<?xml version="1.0" encoding="UTF-8" standalone="no"?>
<svg
   width="279.4mm"
   height="215.9mm"
   viewBox="0 0 3300 2550"
   version="1.2"
   id="svg185"
   sodipodi:docname="5min.svg"
   inkscape:version="1.3.2 (091e20e, 2023-11-25, custom)"
   xmlns:inkscape="http://www.inkscape.org/namespaces/inkscape"
   xmlns:sodipodi="http://sodipodi.sourceforge.net/DTD/sodipodi-0.dtd"
   xmlns="http://www.w3.org/2000/svg"
   xmlns:svg="http://www.w3.org/2000/svg">
  <sodipodi:namedview
     id="namedview185"
     pagecolor="#ffffff"
     bordercolor="#000000"
     borderopacity="0.25"
     inkscape:showpageshadow="2"
     inkscape:pageopacity="0.0"
     inkscape:pagecheckerboard="0"
     inkscape:deskcolor="#d1d1d1"
     inkscape:document-units="mm"
     inkscape:zoom="2.2291667"
     inkscape:cx="528.22428"
     inkscape:cy="407.99999"
     inkscape:window-width="3840"
     inkscape:window-height="2054"
     inkscape:window-x="-11"
     inkscape:window-y="-11"
     inkscape:window-maximized="1"
     inkscape:current-layer="svg185" />
  <defs
     id="defs1" />
  <g
     fill="none"
     stroke="black"
     stroke-width="1"
     fill-rule="evenodd"
     stroke-linecap="square"
     stroke-linejoin="bevel"
     id="g185">
    <g
       fill="#ffffff"
       fill-opacity="1"
       stroke="none"
       transform="matrix(1,0,0,1,0,0)"
       font-family="Arial"
       font-size="12"
       font-weight="400"
       font-style="normal"
       id="g1">
      <rect
         x="0"
         y="0"
         width="3300"
         height="2550"
         id="rect1" />
    </g>
    <g
       fill="none"
       stroke="#000000"
       stroke-opacity="1"
       stroke-width="1"
       stroke-linecap="square"
       stroke-linejoin="bevel"
       transform="matrix(1,0,0,1,0,0)"
       font-family="Arial"
       font-size="12"
       font-weight="400"
       font-style="normal"
       id="g2" />
    <g
       fill="#000000"
       fill-opacity="1"
       stroke="#000000"
       stroke-opacity="1"
       stroke-width="1"
       stroke-linecap="butt"
       stroke-linejoin="miter"
       stroke-miterlimit="2"
       transform="matrix(1,0,0,1,0,0)"
       font-family="Arial"
       font-size="12"
       font-weight="400"
       font-style="normal"
       id="g3" />
    <g
       fill="#000000"
       fill-opacity="1"
       stroke="#000000"
       stroke-opacity="1"
       stroke-width="5"
       stroke-linecap="round"
       stroke-linejoin="bevel"
       transform="matrix(1,0,0,1,0,0)"
       font-family="Arial"
       font-size="12"
       font-weight="400"
       font-style="normal"
       id="g89">
      <polyline
         fill="none"
         vector-effect="none"
         points="1384.7,901.55 1386.22,901.242 "
         id="polyline3" />
      <polyline
         fill="none"
         vector-effect="none"
         points="1622.13,685.485 1622.12,685.043 1622.1,684.602 1622.07,684.161 1622.02,683.722 1621.96,683.284 1621.89,682.848 1621.8,682.415 1621.71,681.984 1621.59,681.557 1621.47,681.133 1621.33,680.713 1621.19,680.297 1621.02,679.886 1620.85,679.48 1620.66,679.079 1620.47,678.684 1620.26,678.295 1620.04,677.912 1619.8,677.537 1619.56,677.168 1619.31,676.807 1619.04,676.453 1618.77,676.108 1618.48,675.771 1618.19,675.443 1617.88,675.123 1617.57,674.813 1617.24,674.513 1616.91,674.222 1616.57,673.942 1616.22,673.672 1615.86,673.412 1615.5,673.163 1615.12,672.925 1614.75,672.699 1614.36,672.484 1613.97,672.28 1613.57,672.089 1613.17,671.909 1612.76,671.741 1612.34,671.586 1611.93,671.443 1611.5,671.313 1611.08,671.196 1610.65,671.091 1610.22,670.999 1609.78,670.92 1609.35,670.854 1608.91,670.802 1608.47,670.762 1608.03,670.736 1607.58,670.722 1607.14,670.722 1606.7,670.736 1606.26,670.762 1605.82,670.802 1605.38,670.854 1604.94,670.92 1604.51,670.999 1604.08,671.091 1603.65,671.196 1603.22,671.313 1602.8,671.443 1602.38,671.586 1601.97,671.741 1601.56,671.909 1601.16,672.089 1600.76,672.28 1600.37,672.484 1599.98,672.699 1599.6,672.925 1599.23,673.163 1598.86,673.412 1598.51,673.672 1598.16,673.942 1597.82,674.222 1597.48,674.513 1597.16,674.813 1596.85,675.123 1596.54,675.443 1596.25,675.771 1595.96,676.108 1595.68,676.453 1595.42,676.807 1595.16,677.168 1594.92,677.537 1594.69,677.912 1594.47,678.295 1594.26,678.684 1594.06,679.079 1593.88,679.48 1593.7,679.886 1593.54,680.297 1593.39,680.713 1593.26,681.133 1593.13,681.557 1593.02,681.984 1592.92,682.415 1592.84,682.848 1592.76,683.284 1592.71,683.722 1592.66,684.161 1592.63,684.602 1592.61,685.043 1592.6,685.485 1592.61,685.926 1592.63,686.368 1592.66,686.808 1592.71,687.247 1592.76,687.685 1592.84,688.121 1592.92,688.554 1593.02,688.985 1593.13,689.412 1593.26,689.836 1593.39,690.256 1593.54,690.672 1593.7,691.083 1593.88,691.49 1594.06,691.89 1594.26,692.285 1594.47,692.674 1594.69,693.057 1594.92,693.433 1595.16,693.801 1595.42,694.163 1595.68,694.516 1595.96,694.861 1596.25,695.198 1596.54,695.527 1596.85,695.846 1597.16,696.156 1597.48,696.456 1597.82,696.747 1598.16,697.027 1598.51,697.298 1598.86,697.557 1599.23,697.806 1599.6,698.044 1599.98,698.27 1600.37,698.486 1600.76,698.689 1601.16,698.881 1601.56,699.06 1601.97,699.228 1602.38,699.383 1602.8,699.526 1603.22,699.656 1603.65,699.774 1604.08,699.878 1604.51,699.97 1604.94,700.049 1605.38,700.115 1605.82,700.168 1606.26,700.207 1606.7,700.234 1607.14,700.247 1607.58,700.247 1608.03,700.234 1608.47,700.207 1608.91,700.168 1609.35,700.115 1609.78,700.049 1610.22,699.97 1610.65,699.878 1611.08,699.774 1611.5,699.656 1611.93,699.526 1612.34,699.383 1612.76,699.228 1613.17,699.06 1613.57,698.881 1613.97,698.689 1614.36,698.486 1614.75,698.27 1615.12,698.044 1615.5,697.806 1615.86,697.557 1616.22,697.298 1616.57,697.027 1616.91,696.747 1617.24,696.456 1617.57,696.156 1617.88,695.846 1618.19,695.527 1618.48,695.198 1618.77,694.861 1619.04,694.516 1619.31,694.163 1619.56,693.801 1619.8,693.433 1620.04,693.057 1620.26,692.674 1620.47,692.285 1620.66,691.89 1620.85,691.49 1621.02,691.083 1621.19,690.672 1621.33,690.256 1621.47,689.836 1621.59,689.412 1621.71,688.985 1621.8,688.554 1621.89,688.121 1621.96,687.685 1622.02,687.247 1622.07,686.808 1622.1,686.368 1622.12,685.926 1622.13,685.485 "
         id="polyline4" />
      <polyline
         fill="none"
         vector-effect="none"
         points="1716.7,780.053 1716.69,779.612 1716.67,779.17 1716.64,778.73 1716.59,778.29 1716.53,777.853 1716.46,777.417 1716.37,776.984 1716.27,776.553 1716.16,776.125 1716.04,775.701 1715.9,775.281 1715.75,774.866 1715.59,774.454 1715.42,774.048 1715.23,773.647 1715.04,773.252 1714.83,772.863 1714.61,772.481 1714.37,772.105 1714.13,771.736 1713.88,771.375 1713.61,771.022 1713.34,770.676 1713.05,770.34 1712.75,770.011 1712.45,769.692 1712.13,769.382 1711.81,769.082 1711.48,768.791 1711.14,768.51 1710.79,768.24 1710.43,767.981 1710.07,767.732 1709.69,767.494 1709.31,767.267 1708.93,767.052 1708.54,766.849 1708.14,766.657 1707.73,766.477 1707.33,766.31 1706.91,766.155 1706.49,766.012 1706.07,765.882 1705.65,765.764 1705.22,765.66 1704.78,765.568 1704.35,765.489 1703.91,765.423 1703.48,765.37 1703.04,765.331 1702.59,765.304 1702.15,765.291 1701.71,765.291 1701.27,765.304 1700.83,765.331 1700.39,765.37 1699.95,765.423 1699.51,765.489 1699.08,765.568 1698.65,765.66 1698.22,765.764 1697.79,765.882 1697.37,766.012 1696.95,766.155 1696.54,766.31 1696.13,766.477 1695.73,766.657 1695.33,766.849 1694.94,767.052 1694.55,767.267 1694.17,767.494 1693.8,767.732 1693.43,767.981 1693.08,768.24 1692.73,768.51 1692.39,768.791 1692.05,769.082 1691.73,769.382 1691.41,769.692 1691.11,770.011 1690.81,770.34 1690.53,770.676 1690.25,771.022 1689.99,771.375 1689.73,771.736 1689.49,772.105 1689.26,772.481 1689.04,772.863 1688.83,773.252 1688.63,773.647 1688.44,774.048 1688.27,774.454 1688.11,774.866 1687.96,775.281 1687.82,775.701 1687.7,776.125 1687.59,776.553 1687.49,776.984 1687.41,777.417 1687.33,777.853 1687.27,778.29 1687.23,778.73 1687.19,779.17 1687.17,779.612 1687.17,780.053 1687.17,780.495 1687.19,780.936 1687.23,781.377 1687.27,781.816 1687.33,782.254 1687.41,782.689 1687.49,783.123 1687.59,783.553 1687.7,783.981 1687.82,784.405 1687.96,784.825 1688.11,785.241 1688.27,785.652 1688.44,786.058 1688.63,786.459 1688.83,786.854 1689.04,787.243 1689.26,787.626 1689.49,788.001 1689.73,788.37 1689.99,788.731 1690.25,789.085 1690.53,789.43 1690.81,789.767 1691.11,790.095 1691.41,790.414 1691.73,790.724 1692.05,791.025 1692.39,791.315 1692.73,791.596 1693.08,791.866 1693.43,792.126 1693.8,792.375 1694.17,792.612 1694.55,792.839 1694.94,793.054 1695.33,793.258 1695.73,793.449 1696.13,793.629 1696.54,793.796 1696.95,793.952 1697.37,794.094 1697.79,794.225 1698.22,794.342 1698.65,794.447 1699.08,794.539 1699.51,794.618 1699.95,794.683 1700.39,794.736 1700.83,794.776 1701.27,794.802 1701.71,794.815 1702.15,794.815 1702.59,794.802 1703.04,794.776 1703.48,794.736 1703.91,794.683 1704.35,794.618 1704.78,794.539 1705.22,794.447 1705.65,794.342 1706.07,794.225 1706.49,794.094 1706.91,793.952 1707.33,793.796 1707.73,793.629 1708.14,793.449 1708.54,793.258 1708.93,793.054 1709.31,792.839 1709.69,792.612 1710.07,792.375 1710.43,792.126 1710.79,791.866 1711.14,791.596 1711.48,791.315 1711.81,791.025 1712.13,790.724 1712.45,790.414 1712.75,790.095 1713.05,789.767 1713.34,789.43 1713.61,789.085 1713.88,788.731 1714.13,788.37 1714.37,788.001 1714.61,787.626 1714.83,787.243 1715.04,786.854 1715.23,786.459 1715.42,786.058 1715.59,785.652 1715.75,785.241 1715.9,784.825 1716.04,784.405 1716.16,783.981 1716.27,783.553 1716.37,783.123 1716.46,782.689 1716.53,782.254 1716.59,781.816 1716.64,781.377 1716.67,780.936 1716.69,780.495 1716.7,780.053 "
         id="polyline5" />
      <polyline
         fill="none"
         vector-effect="none"
         points="1751.31,909.236 1751.3,908.795 1751.28,908.353 1751.25,907.913 1751.2,907.474 1751.15,907.036 1751.07,906.6 1750.99,906.167 1750.89,905.736 1750.78,905.309 1750.65,904.885 1750.52,904.464 1750.37,904.049 1750.21,903.637 1750.03,903.231 1749.85,902.83 1749.65,902.435 1749.44,902.046 1749.22,901.664 1748.99,901.288 1748.74,900.92 1748.49,900.558 1748.23,900.205 1747.95,899.86 1747.66,899.523 1747.37,899.194 1747.06,898.875 1746.75,898.565 1746.43,898.265 1746.09,897.974 1745.75,897.693 1745.4,897.423 1745.04,897.164 1744.68,896.915 1744.31,896.677 1743.93,896.45 1743.54,896.235 1743.15,896.032 1742.75,895.84 1742.35,895.661 1741.94,895.493 1741.53,895.338 1741.11,895.195 1740.69,895.065 1740.26,894.947 1739.83,894.843 1739.4,894.751 1738.96,894.672 1738.53,894.606 1738.09,894.553 1737.65,894.514 1737.21,894.487 1736.77,894.474 1736.33,894.474 1735.88,894.487 1735.44,894.514 1735,894.553 1734.56,894.606 1734.13,894.672 1733.69,894.751 1733.26,894.843 1732.83,894.947 1732.41,895.065 1731.98,895.195 1731.57,895.338 1731.15,895.493 1730.74,895.661 1730.34,895.84 1729.94,896.032 1729.55,896.235 1729.16,896.45 1728.79,896.677 1728.41,896.915 1728.05,897.164 1727.69,897.423 1727.34,897.693 1727,897.974 1726.67,898.265 1726.34,898.565 1726.03,898.875 1725.72,899.194 1725.43,899.523 1725.14,899.86 1724.87,900.205 1724.6,900.558 1724.35,900.92 1724.1,901.288 1723.87,901.664 1723.65,902.046 1723.44,902.435 1723.24,902.83 1723.06,903.231 1722.89,903.637 1722.72,904.049 1722.57,904.464 1722.44,904.885 1722.31,905.309 1722.2,905.736 1722.11,906.167 1722.02,906.6 1721.95,907.036 1721.89,907.474 1721.84,907.913 1721.81,908.353 1721.79,908.795 1721.78,909.236 1721.79,909.678 1721.81,910.119 1721.84,910.56 1721.89,910.999 1721.95,911.437 1722.02,911.872 1722.11,912.306 1722.2,912.736 1722.31,913.164 1722.44,913.588 1722.57,914.008 1722.72,914.424 1722.89,914.835 1723.06,915.241 1723.24,915.642 1723.44,916.037 1723.65,916.426 1723.87,916.809 1724.1,917.184 1724.35,917.553 1724.6,917.914 1724.87,918.268 1725.14,918.613 1725.43,918.95 1725.72,919.278 1726.03,919.597 1726.34,919.907 1726.67,920.208 1727,920.498 1727.34,920.779 1727.69,921.049 1728.05,921.309 1728.41,921.558 1728.79,921.796 1729.16,922.022 1729.55,922.237 1729.94,922.441 1730.34,922.632 1730.74,922.812 1731.15,922.979 1731.57,923.135 1731.98,923.277 1732.41,923.408 1732.83,923.525 1733.26,923.63 1733.69,923.722 1734.13,923.801 1734.56,923.866 1735,923.919 1735.44,923.959 1735.88,923.985 1736.33,923.998 1736.77,923.998 1737.21,923.985 1737.65,923.959 1738.09,923.919 1738.53,923.866 1738.96,923.801 1739.4,923.722 1739.83,923.63 1740.26,923.525 1740.69,923.408 1741.11,923.277 1741.53,923.135 1741.94,922.979 1742.35,922.812 1742.75,922.632 1743.15,922.441 1743.54,922.237 1743.93,922.022 1744.31,921.796 1744.68,921.558 1745.04,921.309 1745.4,921.049 1745.75,920.779 1746.09,920.498 1746.43,920.208 1746.75,919.907 1747.06,919.597 1747.37,919.278 1747.66,918.95 1747.95,918.613 1748.23,918.268 1748.49,917.914 1748.74,917.553 1748.99,917.184 1749.22,916.809 1749.44,916.426 1749.65,916.037 1749.85,915.642 1750.03,915.241 1750.21,914.835 1750.37,914.424 1750.52,914.008 1750.65,913.588 1750.78,913.164 1750.89,912.736 1750.99,912.306 1751.07,911.872 1751.15,911.437 1751.2,910.999 1751.25,910.56 1751.28,910.119 1751.3,909.678 1751.31,909.236 "
         id="polyline6" />
      <polyline
         fill="none"
         vector-effect="none"
         points="1716.7,1038.42 1716.69,1037.98 1716.67,1037.54 1716.64,1037.1 1716.59,1036.66 1716.53,1036.22 1716.46,1035.78 1716.37,1035.35 1716.27,1034.92 1716.16,1034.49 1716.04,1034.07 1715.9,1033.65 1715.75,1033.23 1715.59,1032.82 1715.42,1032.41 1715.23,1032.01 1715.04,1031.62 1714.83,1031.23 1714.61,1030.85 1714.37,1030.47 1714.13,1030.1 1713.88,1029.74 1713.61,1029.39 1713.34,1029.04 1713.05,1028.71 1712.75,1028.38 1712.45,1028.06 1712.13,1027.75 1711.81,1027.45 1711.48,1027.16 1711.14,1026.88 1710.79,1026.61 1710.43,1026.35 1710.07,1026.1 1709.69,1025.86 1709.31,1025.63 1708.93,1025.42 1708.54,1025.21 1708.14,1025.02 1707.73,1024.84 1707.33,1024.68 1706.91,1024.52 1706.49,1024.38 1706.07,1024.25 1705.65,1024.13 1705.22,1024.03 1704.78,1023.93 1704.35,1023.85 1703.91,1023.79 1703.48,1023.74 1703.04,1023.7 1702.59,1023.67 1702.15,1023.66 1701.71,1023.66 1701.27,1023.67 1700.83,1023.7 1700.39,1023.74 1699.95,1023.79 1699.51,1023.85 1699.08,1023.93 1698.65,1024.03 1698.22,1024.13 1697.79,1024.25 1697.37,1024.38 1696.95,1024.52 1696.54,1024.68 1696.13,1024.84 1695.73,1025.02 1695.33,1025.21 1694.94,1025.42 1694.55,1025.63 1694.17,1025.86 1693.8,1026.1 1693.43,1026.35 1693.08,1026.61 1692.73,1026.88 1692.39,1027.16 1692.05,1027.45 1691.73,1027.75 1691.41,1028.06 1691.11,1028.38 1690.81,1028.71 1690.53,1029.04 1690.25,1029.39 1689.99,1029.74 1689.73,1030.1 1689.49,1030.47 1689.26,1030.85 1689.04,1031.23 1688.83,1031.62 1688.63,1032.01 1688.44,1032.41 1688.27,1032.82 1688.11,1033.23 1687.96,1033.65 1687.82,1034.07 1687.7,1034.49 1687.59,1034.92 1687.49,1035.35 1687.41,1035.78 1687.33,1036.22 1687.27,1036.66 1687.23,1037.1 1687.19,1037.54 1687.17,1037.98 1687.17,1038.42 1687.17,1038.86 1687.19,1039.3 1687.23,1039.74 1687.27,1040.18 1687.33,1040.62 1687.41,1041.06 1687.49,1041.49 1687.59,1041.92 1687.7,1042.35 1687.82,1042.77 1687.96,1043.19 1688.11,1043.61 1688.27,1044.02 1688.44,1044.42 1688.63,1044.83 1688.83,1045.22 1689.04,1045.61 1689.26,1045.99 1689.49,1046.37 1689.73,1046.74 1689.99,1047.1 1690.25,1047.45 1690.53,1047.8 1690.81,1048.13 1691.11,1048.46 1691.41,1048.78 1691.73,1049.09 1692.05,1049.39 1692.39,1049.68 1692.73,1049.96 1693.08,1050.23 1693.43,1050.49 1693.8,1050.74 1694.17,1050.98 1694.55,1051.21 1694.94,1051.42 1695.33,1051.62 1695.73,1051.82 1696.13,1052 1696.54,1052.16 1696.95,1052.32 1697.37,1052.46 1697.79,1052.59 1698.22,1052.71 1698.65,1052.81 1699.08,1052.9 1699.51,1052.98 1699.95,1053.05 1700.39,1053.1 1700.83,1053.14 1701.27,1053.17 1701.71,1053.18 1702.15,1053.18 1702.59,1053.17 1703.04,1053.14 1703.48,1053.1 1703.91,1053.05 1704.35,1052.98 1704.78,1052.9 1705.22,1052.81 1705.65,1052.71 1706.07,1052.59 1706.49,1052.46 1706.91,1052.32 1707.33,1052.16 1707.73,1052 1708.14,1051.82 1708.54,1051.62 1708.93,1051.42 1709.31,1051.21 1709.69,1050.98 1710.07,1050.74 1710.43,1050.49 1710.79,1050.23 1711.14,1049.96 1711.48,1049.68 1711.81,1049.39 1712.13,1049.09 1712.45,1048.78 1712.75,1048.46 1713.05,1048.13 1713.34,1047.8 1713.61,1047.45 1713.88,1047.1 1714.13,1046.74 1714.37,1046.37 1714.61,1045.99 1714.83,1045.61 1715.04,1045.22 1715.23,1044.83 1715.42,1044.42 1715.59,1044.02 1715.75,1043.61 1715.9,1043.19 1716.04,1042.77 1716.16,1042.35 1716.27,1041.92 1716.37,1041.49 1716.46,1041.06 1716.53,1040.62 1716.59,1040.18 1716.64,1039.74 1716.67,1039.3 1716.69,1038.86 1716.7,1038.42 "
         id="polyline7" />
      <polyline
         fill="none"
         vector-effect="none"
         points="1622.13,1132.99 1622.12,1132.55 1622.1,1132.1 1622.07,1131.66 1622.02,1131.23 1621.96,1130.79 1621.89,1130.35 1621.8,1129.92 1621.71,1129.49 1621.59,1129.06 1621.47,1128.64 1621.33,1128.22 1621.19,1127.8 1621.02,1127.39 1620.85,1126.98 1620.66,1126.58 1620.47,1126.19 1620.26,1125.8 1620.04,1125.42 1619.8,1125.04 1619.56,1124.67 1619.31,1124.31 1619.04,1123.96 1618.77,1123.61 1618.48,1123.27 1618.19,1122.95 1617.88,1122.63 1617.57,1122.32 1617.24,1122.02 1616.91,1121.73 1616.57,1121.45 1616.22,1121.17 1615.86,1120.92 1615.5,1120.67 1615.12,1120.43 1614.75,1120.2 1614.36,1119.99 1613.97,1119.78 1613.57,1119.59 1613.17,1119.41 1612.76,1119.24 1612.34,1119.09 1611.93,1118.95 1611.5,1118.82 1611.08,1118.7 1610.65,1118.59 1610.22,1118.5 1609.78,1118.42 1609.35,1118.36 1608.91,1118.3 1608.47,1118.27 1608.03,1118.24 1607.58,1118.23 1607.14,1118.23 1606.7,1118.24 1606.26,1118.27 1605.82,1118.3 1605.38,1118.36 1604.94,1118.42 1604.51,1118.5 1604.08,1118.59 1603.65,1118.7 1603.22,1118.82 1602.8,1118.95 1602.38,1119.09 1601.97,1119.24 1601.56,1119.41 1601.16,1119.59 1600.76,1119.78 1600.37,1119.99 1599.98,1120.2 1599.6,1120.43 1599.23,1120.67 1598.86,1120.92 1598.51,1121.17 1598.16,1121.45 1597.82,1121.73 1597.48,1122.02 1597.16,1122.32 1596.85,1122.63 1596.54,1122.95 1596.25,1123.27 1595.96,1123.61 1595.68,1123.96 1595.42,1124.31 1595.16,1124.67 1594.92,1125.04 1594.69,1125.42 1594.47,1125.8 1594.26,1126.19 1594.06,1126.58 1593.88,1126.98 1593.7,1127.39 1593.54,1127.8 1593.39,1128.22 1593.26,1128.64 1593.13,1129.06 1593.02,1129.49 1592.92,1129.92 1592.84,1130.35 1592.76,1130.79 1592.71,1131.23 1592.66,1131.66 1592.63,1132.1 1592.61,1132.55 1592.6,1132.99 1592.61,1133.43 1592.63,1133.87 1592.66,1134.31 1592.71,1134.75 1592.76,1135.19 1592.84,1135.62 1592.92,1136.06 1593.02,1136.49 1593.13,1136.92 1593.26,1137.34 1593.39,1137.76 1593.54,1138.18 1593.7,1138.59 1593.88,1138.99 1594.06,1139.39 1594.26,1139.79 1594.47,1140.18 1594.69,1140.56 1594.92,1140.94 1595.16,1141.3 1595.42,1141.67 1595.68,1142.02 1595.96,1142.36 1596.25,1142.7 1596.54,1143.03 1596.85,1143.35 1597.16,1143.66 1597.48,1143.96 1597.82,1144.25 1598.16,1144.53 1598.51,1144.8 1598.86,1145.06 1599.23,1145.31 1599.6,1145.55 1599.98,1145.77 1600.37,1145.99 1600.76,1146.19 1601.16,1146.38 1601.56,1146.56 1601.97,1146.73 1602.38,1146.89 1602.8,1147.03 1603.22,1147.16 1603.65,1147.28 1604.08,1147.38 1604.51,1147.47 1604.94,1147.55 1605.38,1147.62 1605.82,1147.67 1606.26,1147.71 1606.7,1147.74 1607.14,1147.75 1607.58,1147.75 1608.03,1147.74 1608.47,1147.71 1608.91,1147.67 1609.35,1147.62 1609.78,1147.55 1610.22,1147.47 1610.65,1147.38 1611.08,1147.28 1611.5,1147.16 1611.93,1147.03 1612.34,1146.89 1612.76,1146.73 1613.17,1146.56 1613.57,1146.38 1613.97,1146.19 1614.36,1145.99 1614.75,1145.77 1615.12,1145.55 1615.5,1145.31 1615.86,1145.06 1616.22,1144.8 1616.57,1144.53 1616.91,1144.25 1617.24,1143.96 1617.57,1143.66 1617.88,1143.35 1618.19,1143.03 1618.48,1142.7 1618.77,1142.36 1619.04,1142.02 1619.31,1141.67 1619.56,1141.3 1619.8,1140.94 1620.04,1140.56 1620.26,1140.18 1620.47,1139.79 1620.66,1139.39 1620.85,1138.99 1621.02,1138.59 1621.19,1138.18 1621.33,1137.76 1621.47,1137.34 1621.59,1136.92 1621.71,1136.49 1621.8,1136.06 1621.89,1135.62 1621.96,1135.19 1622.02,1134.75 1622.07,1134.31 1622.1,1133.87 1622.12,1133.43 1622.13,1132.99 "
         id="polyline8" />
      <polyline
         fill="none"
         vector-effect="none"
         points="1492.94,1167.6 1492.94,1167.16 1492.92,1166.72 1492.88,1166.28 1492.84,1165.84 1492.78,1165.4 1492.71,1164.97 1492.62,1164.53 1492.52,1164.1 1492.41,1163.67 1492.29,1163.25 1492.15,1162.83 1492,1162.41 1491.84,1162 1491.67,1161.6 1491.48,1161.2 1491.28,1160.8 1491.07,1160.41 1490.85,1160.03 1490.62,1159.65 1490.38,1159.29 1490.12,1158.92 1489.86,1158.57 1489.58,1158.23 1489.3,1157.89 1489,1157.56 1488.7,1157.24 1488.38,1156.93 1488.06,1156.63 1487.73,1156.34 1487.39,1156.06 1487.04,1155.79 1486.68,1155.53 1486.31,1155.28 1485.94,1155.04 1485.56,1154.82 1485.18,1154.6 1484.78,1154.4 1484.39,1154.21 1483.98,1154.03 1483.57,1153.86 1483.16,1153.7 1482.74,1153.56 1482.32,1153.43 1481.89,1153.31 1481.47,1153.21 1481.03,1153.12 1480.6,1153.04 1480.16,1152.97 1479.72,1152.92 1479.28,1152.88 1478.84,1152.85 1478.4,1152.84 1477.96,1152.84 1477.52,1152.85 1477.08,1152.88 1476.64,1152.92 1476.2,1152.97 1475.76,1153.04 1475.33,1153.12 1474.89,1153.21 1474.47,1153.31 1474.04,1153.43 1473.62,1153.56 1473.2,1153.7 1472.79,1153.86 1472.38,1154.03 1471.97,1154.21 1471.58,1154.4 1471.18,1154.6 1470.8,1154.82 1470.42,1155.04 1470.05,1155.28 1469.68,1155.53 1469.32,1155.79 1468.98,1156.06 1468.63,1156.34 1468.3,1156.63 1467.98,1156.93 1467.66,1157.24 1467.36,1157.56 1467.06,1157.89 1466.78,1158.23 1466.5,1158.57 1466.24,1158.92 1465.98,1159.29 1465.74,1159.65 1465.51,1160.03 1465.29,1160.41 1465.08,1160.8 1464.88,1161.2 1464.69,1161.6 1464.52,1162 1464.36,1162.41 1464.21,1162.83 1464.07,1163.25 1463.95,1163.67 1463.84,1164.1 1463.74,1164.53 1463.65,1164.97 1463.58,1165.4 1463.52,1165.84 1463.48,1166.28 1463.44,1166.72 1463.42,1167.16 1463.42,1167.6 1463.42,1168.04 1463.44,1168.49 1463.48,1168.93 1463.52,1169.37 1463.58,1169.8 1463.65,1170.24 1463.74,1170.67 1463.84,1171.1 1463.95,1171.53 1464.07,1171.95 1464.21,1172.37 1464.36,1172.79 1464.52,1173.2 1464.69,1173.61 1464.88,1174.01 1465.08,1174.4 1465.29,1174.79 1465.51,1175.17 1465.74,1175.55 1465.98,1175.92 1466.24,1176.28 1466.5,1176.63 1466.78,1176.98 1467.06,1177.32 1467.36,1177.64 1467.66,1177.96 1467.98,1178.27 1468.3,1178.57 1468.63,1178.86 1468.98,1179.15 1469.32,1179.42 1469.68,1179.68 1470.05,1179.92 1470.42,1180.16 1470.8,1180.39 1471.18,1180.6 1471.58,1180.81 1471.97,1181 1472.38,1181.18 1472.79,1181.35 1473.2,1181.5 1473.62,1181.64 1474.04,1181.77 1474.47,1181.89 1474.89,1182 1475.33,1182.09 1475.76,1182.17 1476.2,1182.23 1476.64,1182.29 1477.08,1182.32 1477.52,1182.35 1477.96,1182.36 1478.4,1182.36 1478.84,1182.35 1479.28,1182.32 1479.72,1182.29 1480.16,1182.23 1480.6,1182.17 1481.03,1182.09 1481.47,1182 1481.89,1181.89 1482.32,1181.77 1482.74,1181.64 1483.16,1181.5 1483.57,1181.35 1483.98,1181.18 1484.39,1181 1484.78,1180.81 1485.18,1180.6 1485.56,1180.39 1485.94,1180.16 1486.31,1179.92 1486.68,1179.68 1487.04,1179.42 1487.39,1179.15 1487.73,1178.86 1488.06,1178.57 1488.38,1178.27 1488.7,1177.96 1489,1177.64 1489.3,1177.32 1489.58,1176.98 1489.86,1176.63 1490.12,1176.28 1490.38,1175.92 1490.62,1175.55 1490.85,1175.17 1491.07,1174.79 1491.28,1174.4 1491.48,1174.01 1491.67,1173.61 1491.84,1173.2 1492,1172.79 1492.15,1172.37 1492.29,1171.95 1492.41,1171.53 1492.52,1171.1 1492.62,1170.67 1492.71,1170.24 1492.78,1169.8 1492.84,1169.37 1492.88,1168.93 1492.92,1168.49 1492.94,1168.04 1492.94,1167.6 "
         id="polyline9" />
      <polyline
         fill="none"
         vector-effect="none"
         points="1363.76,1132.99 1363.75,1132.55 1363.73,1132.1 1363.7,1131.66 1363.66,1131.23 1363.6,1130.79 1363.52,1130.35 1363.44,1129.92 1363.34,1129.49 1363.23,1129.06 1363.1,1128.64 1362.97,1128.22 1362.82,1127.8 1362.66,1127.39 1362.48,1126.98 1362.3,1126.58 1362.1,1126.19 1361.89,1125.8 1361.67,1125.42 1361.44,1125.04 1361.2,1124.67 1360.94,1124.31 1360.68,1123.96 1360.4,1123.61 1360.12,1123.27 1359.82,1122.95 1359.51,1122.63 1359.2,1122.32 1358.88,1122.02 1358.54,1121.73 1358.2,1121.45 1357.85,1121.17 1357.5,1120.92 1357.13,1120.67 1356.76,1120.43 1356.38,1120.2 1355.99,1119.99 1355.6,1119.78 1355.2,1119.59 1354.8,1119.41 1354.39,1119.24 1353.98,1119.09 1353.56,1118.95 1353.14,1118.82 1352.71,1118.7 1352.28,1118.59 1351.85,1118.5 1351.42,1118.42 1350.98,1118.36 1350.54,1118.3 1350.1,1118.27 1349.66,1118.24 1349.22,1118.23 1348.78,1118.23 1348.33,1118.24 1347.89,1118.27 1347.45,1118.3 1347.02,1118.36 1346.58,1118.42 1346.14,1118.5 1345.71,1118.59 1345.28,1118.7 1344.86,1118.82 1344.43,1118.95 1344.02,1119.09 1343.6,1119.24 1343.19,1119.41 1342.79,1119.59 1342.39,1119.78 1342,1119.99 1341.62,1120.2 1341.24,1120.43 1340.86,1120.67 1340.5,1120.92 1340.14,1121.17 1339.79,1121.45 1339.45,1121.73 1339.12,1122.02 1338.79,1122.32 1338.48,1122.63 1338.17,1122.95 1337.88,1123.27 1337.59,1123.61 1337.32,1123.96 1337.05,1124.31 1336.8,1124.67 1336.56,1125.04 1336.32,1125.42 1336.1,1125.8 1335.89,1126.19 1335.7,1126.58 1335.51,1126.98 1335.34,1127.39 1335.17,1127.8 1335.03,1128.22 1334.89,1128.64 1334.77,1129.06 1334.65,1129.49 1334.56,1129.92 1334.47,1130.35 1334.4,1130.79 1334.34,1131.23 1334.29,1131.66 1334.26,1132.1 1334.24,1132.55 1334.23,1132.99 1334.24,1133.43 1334.26,1133.87 1334.29,1134.31 1334.34,1134.75 1334.4,1135.19 1334.47,1135.62 1334.56,1136.06 1334.65,1136.49 1334.77,1136.92 1334.89,1137.34 1335.03,1137.76 1335.17,1138.18 1335.34,1138.59 1335.51,1138.99 1335.7,1139.39 1335.89,1139.79 1336.1,1140.18 1336.32,1140.56 1336.56,1140.94 1336.8,1141.3 1337.05,1141.67 1337.32,1142.02 1337.59,1142.36 1337.88,1142.7 1338.17,1143.03 1338.48,1143.35 1338.79,1143.66 1339.12,1143.96 1339.45,1144.25 1339.79,1144.53 1340.14,1144.8 1340.5,1145.06 1340.86,1145.31 1341.24,1145.55 1341.62,1145.77 1342,1145.99 1342.39,1146.19 1342.79,1146.38 1343.19,1146.56 1343.6,1146.73 1344.02,1146.89 1344.43,1147.03 1344.86,1147.16 1345.28,1147.28 1345.71,1147.38 1346.14,1147.47 1346.58,1147.55 1347.02,1147.62 1347.45,1147.67 1347.89,1147.71 1348.33,1147.74 1348.78,1147.75 1349.22,1147.75 1349.66,1147.74 1350.1,1147.71 1350.54,1147.67 1350.98,1147.62 1351.42,1147.55 1351.85,1147.47 1352.28,1147.38 1352.71,1147.28 1353.14,1147.16 1353.56,1147.03 1353.98,1146.89 1354.39,1146.73 1354.8,1146.56 1355.2,1146.38 1355.6,1146.19 1355.99,1145.99 1356.38,1145.77 1356.76,1145.55 1357.13,1145.31 1357.5,1145.06 1357.85,1144.8 1358.2,1144.53 1358.54,1144.25 1358.88,1143.96 1359.2,1143.66 1359.51,1143.35 1359.82,1143.03 1360.12,1142.7 1360.4,1142.36 1360.68,1142.02 1360.94,1141.67 1361.2,1141.3 1361.44,1140.94 1361.67,1140.56 1361.89,1140.18 1362.1,1139.79 1362.3,1139.39 1362.48,1138.99 1362.66,1138.59 1362.82,1138.18 1362.97,1137.76 1363.1,1137.34 1363.23,1136.92 1363.34,1136.49 1363.44,1136.06 1363.52,1135.62 1363.6,1135.19 1363.66,1134.75 1363.7,1134.31 1363.73,1133.87 1363.75,1133.43 1363.76,1132.99 "
         id="polyline10" />
      <polyline
         fill="none"
         vector-effect="none"
         points="1269.19,1038.42 1269.19,1037.98 1269.17,1037.54 1269.13,1037.1 1269.09,1036.66 1269.03,1036.22 1268.96,1035.78 1268.87,1035.35 1268.77,1034.92 1268.66,1034.49 1268.54,1034.07 1268.4,1033.65 1268.25,1033.23 1268.09,1032.82 1267.92,1032.41 1267.73,1032.01 1267.53,1031.62 1267.32,1031.23 1267.1,1030.85 1266.87,1030.47 1266.63,1030.1 1266.37,1029.74 1266.11,1029.39 1265.83,1029.04 1265.55,1028.71 1265.25,1028.38 1264.95,1028.06 1264.63,1027.75 1264.31,1027.45 1263.97,1027.16 1263.63,1026.88 1263.28,1026.61 1262.93,1026.35 1262.56,1026.1 1262.19,1025.86 1261.81,1025.63 1261.42,1025.42 1261.03,1025.21 1260.63,1025.02 1260.23,1024.84 1259.82,1024.68 1259.41,1024.52 1258.99,1024.38 1258.57,1024.25 1258.14,1024.13 1257.71,1024.03 1257.28,1023.93 1256.85,1023.85 1256.41,1023.79 1255.97,1023.74 1255.53,1023.7 1255.09,1023.67 1254.65,1023.66 1254.21,1023.66 1253.77,1023.67 1253.33,1023.7 1252.89,1023.74 1252.45,1023.79 1252.01,1023.85 1251.58,1023.93 1251.14,1024.03 1250.71,1024.13 1250.29,1024.25 1249.87,1024.38 1249.45,1024.52 1249.03,1024.68 1248.63,1024.84 1248.22,1025.02 1247.82,1025.21 1247.43,1025.42 1247.05,1025.63 1246.67,1025.86 1246.3,1026.1 1245.93,1026.35 1245.57,1026.61 1245.22,1026.88 1244.88,1027.16 1244.55,1027.45 1244.23,1027.75 1243.91,1028.06 1243.61,1028.38 1243.31,1028.71 1243.02,1029.04 1242.75,1029.39 1242.48,1029.74 1242.23,1030.1 1241.99,1030.47 1241.75,1030.85 1241.53,1031.23 1241.32,1031.62 1241.13,1032.01 1240.94,1032.41 1240.77,1032.82 1240.61,1033.23 1240.46,1033.65 1240.32,1034.07 1240.2,1034.49 1240.09,1034.92 1239.99,1035.35 1239.9,1035.78 1239.83,1036.22 1239.77,1036.66 1239.72,1037.1 1239.69,1037.54 1239.67,1037.98 1239.66,1038.42 1239.67,1038.86 1239.69,1039.3 1239.72,1039.74 1239.77,1040.18 1239.83,1040.62 1239.9,1041.06 1239.99,1041.49 1240.09,1041.92 1240.2,1042.35 1240.32,1042.77 1240.46,1043.19 1240.61,1043.61 1240.77,1044.02 1240.94,1044.42 1241.13,1044.83 1241.32,1045.22 1241.53,1045.61 1241.75,1045.99 1241.99,1046.37 1242.23,1046.74 1242.48,1047.1 1242.75,1047.45 1243.02,1047.8 1243.31,1048.13 1243.61,1048.46 1243.91,1048.78 1244.23,1049.09 1244.55,1049.39 1244.88,1049.68 1245.22,1049.96 1245.57,1050.23 1245.93,1050.49 1246.3,1050.74 1246.67,1050.98 1247.05,1051.21 1247.43,1051.42 1247.82,1051.62 1248.22,1051.82 1248.63,1052 1249.03,1052.16 1249.45,1052.32 1249.87,1052.46 1250.29,1052.59 1250.71,1052.71 1251.14,1052.81 1251.58,1052.9 1252.01,1052.98 1252.45,1053.05 1252.89,1053.1 1253.33,1053.14 1253.77,1053.17 1254.21,1053.18 1254.65,1053.18 1255.09,1053.17 1255.53,1053.14 1255.97,1053.1 1256.41,1053.05 1256.85,1052.98 1257.28,1052.9 1257.71,1052.81 1258.14,1052.71 1258.57,1052.59 1258.99,1052.46 1259.41,1052.32 1259.82,1052.16 1260.23,1052 1260.63,1051.82 1261.03,1051.62 1261.42,1051.42 1261.81,1051.21 1262.19,1050.98 1262.56,1050.74 1262.93,1050.49 1263.28,1050.23 1263.63,1049.96 1263.97,1049.68 1264.31,1049.39 1264.63,1049.09 1264.95,1048.78 1265.25,1048.46 1265.55,1048.13 1265.83,1047.8 1266.11,1047.45 1266.37,1047.1 1266.63,1046.74 1266.87,1046.37 1267.1,1045.99 1267.32,1045.61 1267.53,1045.22 1267.73,1044.83 1267.92,1044.42 1268.09,1044.02 1268.25,1043.61 1268.4,1043.19 1268.54,1042.77 1268.66,1042.35 1268.77,1041.92 1268.87,1041.49 1268.96,1041.06 1269.03,1040.62 1269.09,1040.18 1269.13,1039.74 1269.17,1039.3 1269.19,1038.86 1269.19,1038.42 "
         id="polyline11" />
      <polyline
         fill="none"
         vector-effect="none"
         points="1234.58,909.236 1234.57,908.795 1234.55,908.353 1234.52,907.913 1234.47,907.474 1234.41,907.036 1234.34,906.6 1234.26,906.167 1234.16,905.736 1234.05,905.309 1233.92,904.885 1233.79,904.464 1233.64,904.049 1233.48,903.637 1233.3,903.231 1233.12,902.83 1232.92,902.435 1232.71,902.046 1232.49,901.664 1232.26,901.288 1232.01,900.92 1231.76,900.558 1231.49,900.205 1231.22,899.86 1230.93,899.523 1230.64,899.194 1230.33,898.875 1230.02,898.565 1229.69,898.265 1229.36,897.974 1229.02,897.693 1228.67,897.423 1228.31,897.164 1227.95,896.915 1227.58,896.677 1227.2,896.45 1226.81,896.235 1226.42,896.032 1226.02,895.84 1225.62,895.661 1225.21,895.493 1224.79,895.338 1224.38,895.195 1223.95,895.065 1223.53,894.947 1223.1,894.843 1222.67,894.751 1222.23,894.672 1221.8,894.606 1221.36,894.553 1220.92,894.514 1220.48,894.487 1220.03,894.474 1219.59,894.474 1219.15,894.487 1218.71,894.514 1218.27,894.553 1217.83,894.606 1217.4,894.672 1216.96,894.751 1216.53,894.843 1216.1,894.947 1215.67,895.065 1215.25,895.195 1214.83,895.338 1214.42,895.493 1214.01,895.661 1213.61,895.84 1213.21,896.032 1212.82,896.235 1212.43,896.45 1212.05,896.677 1211.68,896.915 1211.32,897.164 1210.96,897.423 1210.61,897.693 1210.27,897.974 1209.94,898.265 1209.61,898.565 1209.3,898.875 1208.99,899.194 1208.7,899.523 1208.41,899.86 1208.13,900.205 1207.87,900.558 1207.62,900.92 1207.37,901.288 1207.14,901.664 1206.92,902.046 1206.71,902.435 1206.51,902.83 1206.33,903.231 1206.15,903.637 1205.99,904.049 1205.84,904.464 1205.71,904.885 1205.58,905.309 1205.47,905.736 1205.37,906.167 1205.29,906.6 1205.22,907.036 1205.16,907.474 1205.11,907.913 1205.08,908.353 1205.06,908.795 1205.05,909.236 1205.06,909.678 1205.08,910.119 1205.11,910.56 1205.16,910.999 1205.22,911.437 1205.29,911.872 1205.37,912.306 1205.47,912.736 1205.58,913.164 1205.71,913.588 1205.84,914.008 1205.99,914.424 1206.15,914.835 1206.33,915.241 1206.51,915.642 1206.71,916.037 1206.92,916.426 1207.14,916.809 1207.37,917.184 1207.62,917.553 1207.87,917.914 1208.13,918.268 1208.41,918.613 1208.7,918.95 1208.99,919.278 1209.3,919.597 1209.61,919.907 1209.94,920.208 1210.27,920.498 1210.61,920.779 1210.96,921.049 1211.32,921.309 1211.68,921.558 1212.05,921.796 1212.43,922.022 1212.82,922.237 1213.21,922.441 1213.61,922.632 1214.01,922.812 1214.42,922.979 1214.83,923.135 1215.25,923.277 1215.67,923.408 1216.1,923.525 1216.53,923.63 1216.96,923.722 1217.4,923.801 1217.83,923.866 1218.27,923.919 1218.71,923.959 1219.15,923.985 1219.59,923.998 1220.03,923.998 1220.48,923.985 1220.92,923.959 1221.36,923.919 1221.8,923.866 1222.23,923.801 1222.67,923.722 1223.1,923.63 1223.53,923.525 1223.95,923.408 1224.38,923.277 1224.79,923.135 1225.21,922.979 1225.62,922.812 1226.02,922.632 1226.42,922.441 1226.81,922.237 1227.2,922.022 1227.58,921.796 1227.95,921.558 1228.31,921.309 1228.67,921.049 1229.02,920.779 1229.36,920.498 1229.69,920.208 1230.02,919.907 1230.33,919.597 1230.64,919.278 1230.93,918.95 1231.22,918.613 1231.49,918.268 1231.76,917.914 1232.01,917.553 1232.26,917.184 1232.49,916.809 1232.71,916.426 1232.92,916.037 1233.12,915.642 1233.3,915.241 1233.48,914.835 1233.64,914.424 1233.79,914.008 1233.92,913.588 1234.05,913.164 1234.16,912.736 1234.26,912.306 1234.34,911.872 1234.41,911.437 1234.47,910.999 1234.52,910.56 1234.55,910.119 1234.57,909.678 1234.58,909.236 "
         id="polyline12" />
      <polyline
         fill="none"
         vector-effect="none"
         points="1269.19,780.053 1269.19,779.612 1269.17,779.17 1269.13,778.73 1269.09,778.29 1269.03,777.853 1268.96,777.417 1268.87,776.984 1268.77,776.553 1268.66,776.125 1268.54,775.701 1268.4,775.281 1268.25,774.866 1268.09,774.454 1267.92,774.048 1267.73,773.647 1267.53,773.252 1267.32,772.863 1267.1,772.481 1266.87,772.105 1266.63,771.736 1266.37,771.375 1266.11,771.022 1265.83,770.676 1265.55,770.34 1265.25,770.011 1264.95,769.692 1264.63,769.382 1264.31,769.082 1263.97,768.791 1263.63,768.51 1263.28,768.24 1262.93,767.981 1262.56,767.732 1262.19,767.494 1261.81,767.267 1261.42,767.052 1261.03,766.849 1260.63,766.657 1260.23,766.477 1259.82,766.31 1259.41,766.155 1258.99,766.012 1258.57,765.882 1258.14,765.764 1257.71,765.66 1257.28,765.568 1256.85,765.489 1256.41,765.423 1255.97,765.37 1255.53,765.331 1255.09,765.304 1254.65,765.291 1254.21,765.291 1253.77,765.304 1253.33,765.331 1252.89,765.37 1252.45,765.423 1252.01,765.489 1251.58,765.568 1251.14,765.66 1250.71,765.764 1250.29,765.882 1249.87,766.012 1249.45,766.155 1249.03,766.31 1248.63,766.477 1248.22,766.657 1247.82,766.849 1247.43,767.052 1247.05,767.267 1246.67,767.494 1246.3,767.732 1245.93,767.981 1245.57,768.24 1245.22,768.51 1244.88,768.791 1244.55,769.082 1244.23,769.382 1243.91,769.692 1243.61,770.011 1243.31,770.34 1243.02,770.676 1242.75,771.022 1242.48,771.375 1242.23,771.736 1241.99,772.105 1241.75,772.481 1241.53,772.863 1241.32,773.252 1241.13,773.647 1240.94,774.048 1240.77,774.454 1240.61,774.866 1240.46,775.281 1240.32,775.701 1240.2,776.125 1240.09,776.553 1239.99,776.984 1239.9,777.417 1239.83,777.853 1239.77,778.29 1239.72,778.73 1239.69,779.17 1239.67,779.612 1239.66,780.053 1239.67,780.495 1239.69,780.936 1239.72,781.377 1239.77,781.816 1239.83,782.254 1239.9,782.689 1239.99,783.123 1240.09,783.553 1240.2,783.981 1240.32,784.405 1240.46,784.825 1240.61,785.241 1240.77,785.652 1240.94,786.058 1241.13,786.459 1241.32,786.854 1241.53,787.243 1241.75,787.626 1241.99,788.001 1242.23,788.37 1242.48,788.731 1242.75,789.085 1243.02,789.43 1243.31,789.767 1243.61,790.095 1243.91,790.414 1244.23,790.724 1244.55,791.025 1244.88,791.315 1245.22,791.596 1245.57,791.866 1245.93,792.126 1246.3,792.375 1246.67,792.612 1247.05,792.839 1247.43,793.054 1247.82,793.258 1248.22,793.449 1248.63,793.629 1249.03,793.796 1249.45,793.952 1249.87,794.094 1250.29,794.225 1250.71,794.342 1251.14,794.447 1251.58,794.539 1252.01,794.618 1252.45,794.683 1252.89,794.736 1253.33,794.776 1253.77,794.802 1254.21,794.815 1254.65,794.815 1255.09,794.802 1255.53,794.776 1255.97,794.736 1256.41,794.683 1256.85,794.618 1257.28,794.539 1257.71,794.447 1258.14,794.342 1258.57,794.225 1258.99,794.094 1259.41,793.952 1259.82,793.796 1260.23,793.629 1260.63,793.449 1261.03,793.258 1261.42,793.054 1261.81,792.839 1262.19,792.612 1262.56,792.375 1262.93,792.126 1263.28,791.866 1263.63,791.596 1263.97,791.315 1264.31,791.025 1264.63,790.724 1264.95,790.414 1265.25,790.095 1265.55,789.767 1265.83,789.43 1266.11,789.085 1266.37,788.731 1266.63,788.37 1266.87,788.001 1267.1,787.626 1267.32,787.243 1267.53,786.854 1267.73,786.459 1267.92,786.058 1268.09,785.652 1268.25,785.241 1268.4,784.825 1268.54,784.405 1268.66,783.981 1268.77,783.553 1268.87,783.123 1268.96,782.689 1269.03,782.254 1269.09,781.816 1269.13,781.377 1269.17,780.936 1269.19,780.495 1269.19,780.053 "
         id="polyline13" />
      <polyline
         fill="none"
         vector-effect="none"
         points="1363.76,685.485 1363.75,685.043 1363.73,684.602 1363.7,684.161 1363.66,683.722 1363.6,683.284 1363.52,682.848 1363.44,682.415 1363.34,681.984 1363.23,681.557 1363.1,681.133 1362.97,680.713 1362.82,680.297 1362.66,679.886 1362.48,679.48 1362.3,679.079 1362.1,678.684 1361.89,678.295 1361.67,677.912 1361.44,677.537 1361.2,677.168 1360.94,676.807 1360.68,676.453 1360.4,676.108 1360.12,675.771 1359.82,675.443 1359.51,675.123 1359.2,674.813 1358.88,674.513 1358.54,674.222 1358.2,673.942 1357.85,673.672 1357.5,673.412 1357.13,673.163 1356.76,672.925 1356.38,672.699 1355.99,672.484 1355.6,672.28 1355.2,672.089 1354.8,671.909 1354.39,671.741 1353.98,671.586 1353.56,671.443 1353.14,671.313 1352.71,671.196 1352.28,671.091 1351.85,670.999 1351.42,670.92 1350.98,670.854 1350.54,670.802 1350.1,670.762 1349.66,670.736 1349.22,670.722 1348.78,670.722 1348.33,670.736 1347.89,670.762 1347.45,670.802 1347.02,670.854 1346.58,670.92 1346.14,670.999 1345.71,671.091 1345.28,671.196 1344.86,671.313 1344.43,671.443 1344.02,671.586 1343.6,671.741 1343.19,671.909 1342.79,672.089 1342.39,672.28 1342,672.484 1341.62,672.699 1341.24,672.925 1340.86,673.163 1340.5,673.412 1340.14,673.672 1339.79,673.942 1339.45,674.222 1339.12,674.513 1338.79,674.813 1338.48,675.123 1338.17,675.443 1337.88,675.771 1337.59,676.108 1337.32,676.453 1337.05,676.807 1336.8,677.168 1336.56,677.537 1336.32,677.912 1336.1,678.295 1335.89,678.684 1335.7,679.079 1335.51,679.48 1335.34,679.886 1335.17,680.297 1335.03,680.713 1334.89,681.133 1334.77,681.557 1334.65,681.984 1334.56,682.415 1334.47,682.848 1334.4,683.284 1334.34,683.722 1334.29,684.161 1334.26,684.602 1334.24,685.043 1334.23,685.485 1334.24,685.926 1334.26,686.368 1334.29,686.808 1334.34,687.247 1334.4,687.685 1334.47,688.121 1334.56,688.554 1334.65,688.985 1334.77,689.412 1334.89,689.836 1335.03,690.256 1335.17,690.672 1335.34,691.083 1335.51,691.49 1335.7,691.89 1335.89,692.285 1336.1,692.674 1336.32,693.057 1336.56,693.433 1336.8,693.801 1337.05,694.163 1337.32,694.516 1337.59,694.861 1337.88,695.198 1338.17,695.527 1338.48,695.846 1338.79,696.156 1339.12,696.456 1339.45,696.747 1339.79,697.027 1340.14,697.298 1340.5,697.557 1340.86,697.806 1341.24,698.044 1341.62,698.27 1342,698.486 1342.39,698.689 1342.79,698.881 1343.19,699.06 1343.6,699.228 1344.02,699.383 1344.43,699.526 1344.86,699.656 1345.28,699.774 1345.71,699.878 1346.14,699.97 1346.58,700.049 1347.02,700.115 1347.45,700.168 1347.89,700.207 1348.33,700.234 1348.78,700.247 1349.22,700.247 1349.66,700.234 1350.1,700.207 1350.54,700.168 1350.98,700.115 1351.42,700.049 1351.85,699.97 1352.28,699.878 1352.71,699.774 1353.14,699.656 1353.56,699.526 1353.98,699.383 1354.39,699.228 1354.8,699.06 1355.2,698.881 1355.6,698.689 1355.99,698.486 1356.38,698.27 1356.76,698.044 1357.13,697.806 1357.5,697.557 1357.85,697.298 1358.2,697.027 1358.54,696.747 1358.88,696.456 1359.2,696.156 1359.51,695.846 1359.82,695.527 1360.12,695.198 1360.4,694.861 1360.68,694.516 1360.94,694.163 1361.2,693.801 1361.44,693.433 1361.67,693.057 1361.89,692.674 1362.1,692.285 1362.3,691.89 1362.48,691.49 1362.66,691.083 1362.82,690.672 1362.97,690.256 1363.1,689.836 1363.23,689.412 1363.34,688.985 1363.44,688.554 1363.52,688.121 1363.6,687.685 1363.66,687.247 1363.7,686.808 1363.73,686.368 1363.75,685.926 1363.76,685.485 "
         id="polyline14" />
      <polyline
         fill="none"
         vector-effect="none"
         points="1492.94,650.87 1492.94,650.428 1492.92,649.987 1492.88,649.547 1492.84,649.107 1492.78,648.67 1492.71,648.234 1492.62,647.801 1492.52,647.37 1492.41,646.942 1492.29,646.518 1492.15,646.098 1492,645.682 1491.84,645.271 1491.67,644.865 1491.48,644.464 1491.28,644.069 1491.07,643.68 1490.85,643.298 1490.62,642.922 1490.38,642.553 1490.12,642.192 1489.86,641.839 1489.58,641.493 1489.3,641.156 1489,640.828 1488.7,640.509 1488.38,640.199 1488.06,639.898 1487.73,639.608 1487.39,639.327 1487.04,639.057 1486.68,638.797 1486.31,638.549 1485.94,638.311 1485.56,638.084 1485.18,637.869 1484.78,637.666 1484.39,637.474 1483.98,637.294 1483.57,637.127 1483.16,636.972 1482.74,636.829 1482.32,636.699 1481.89,636.581 1481.47,636.476 1481.03,636.385 1480.6,636.306 1480.16,636.24 1479.72,636.187 1479.28,636.148 1478.84,636.121 1478.4,636.108 1477.96,636.108 1477.52,636.121 1477.08,636.148 1476.64,636.187 1476.2,636.24 1475.76,636.306 1475.33,636.385 1474.89,636.476 1474.47,636.581 1474.04,636.699 1473.62,636.829 1473.2,636.972 1472.79,637.127 1472.38,637.294 1471.97,637.474 1471.58,637.666 1471.18,637.869 1470.8,638.084 1470.42,638.311 1470.05,638.549 1469.68,638.797 1469.32,639.057 1468.98,639.327 1468.63,639.608 1468.3,639.898 1467.98,640.199 1467.66,640.509 1467.36,640.828 1467.06,641.156 1466.78,641.493 1466.5,641.839 1466.24,642.192 1465.98,642.553 1465.74,642.922 1465.51,643.298 1465.29,643.68 1465.08,644.069 1464.88,644.464 1464.69,644.865 1464.52,645.271 1464.36,645.682 1464.21,646.098 1464.07,646.518 1463.95,646.942 1463.84,647.37 1463.74,647.801 1463.65,648.234 1463.58,648.67 1463.52,649.107 1463.48,649.547 1463.44,649.987 1463.42,650.428 1463.42,650.87 1463.42,651.312 1463.44,651.753 1463.48,652.194 1463.52,652.633 1463.58,653.071 1463.65,653.506 1463.74,653.94 1463.84,654.37 1463.95,654.798 1464.07,655.222 1464.21,655.642 1464.36,656.058 1464.52,656.469 1464.69,656.875 1464.88,657.276 1465.08,657.671 1465.29,658.06 1465.51,658.442 1465.74,658.818 1465.98,659.187 1466.24,659.548 1466.5,659.901 1466.78,660.247 1467.06,660.584 1467.36,660.912 1467.66,661.231 1467.98,661.541 1468.3,661.842 1468.63,662.132 1468.98,662.413 1469.32,662.683 1469.68,662.943 1470.05,663.192 1470.42,663.429 1470.8,663.656 1471.18,663.871 1471.58,664.075 1471.97,664.266 1472.38,664.446 1472.79,664.613 1473.2,664.769 1473.62,664.911 1474.04,665.041 1474.47,665.159 1474.89,665.264 1475.33,665.356 1475.76,665.434 1476.2,665.5 1476.64,665.553 1477.08,665.593 1477.52,665.619 1477.96,665.632 1478.4,665.632 1478.84,665.619 1479.28,665.593 1479.72,665.553 1480.16,665.5 1480.6,665.434 1481.03,665.356 1481.47,665.264 1481.89,665.159 1482.32,665.041 1482.74,664.911 1483.16,664.769 1483.57,664.613 1483.98,664.446 1484.39,664.266 1484.78,664.075 1485.18,663.871 1485.56,663.656 1485.94,663.429 1486.31,663.192 1486.68,662.943 1487.04,662.683 1487.39,662.413 1487.73,662.132 1488.06,661.842 1488.38,661.541 1488.7,661.231 1489,660.912 1489.3,660.584 1489.58,660.247 1489.86,659.901 1490.12,659.548 1490.38,659.187 1490.62,658.818 1490.85,658.442 1491.07,658.06 1491.28,657.671 1491.48,657.276 1491.67,656.875 1491.84,656.469 1492,656.058 1492.15,655.642 1492.29,655.222 1492.41,654.798 1492.52,654.37 1492.62,653.94 1492.71,653.506 1492.78,653.071 1492.84,652.633 1492.88,652.194 1492.92,651.753 1492.94,651.312 1492.94,650.87 "
         id="polyline15" />
      <polyline
         fill="none"
         vector-effect="none"
         points="1773.46,909.236 1773.37,901.99 1773.1,894.748 1772.66,887.514 1772.03,880.294 1771.24,873.091 1770.26,865.91 1769.11,858.755 1767.78,851.631 1766.28,844.541 1764.61,837.49 1762.76,830.482 1760.74,823.522 1758.55,816.614 1756.2,809.761 1753.67,802.968 1750.98,796.239 1748.12,789.578 1745.11,782.99 1741.93,776.477 1738.59,770.044 1735.1,763.695 1731.45,757.434 1727.64,751.265 1723.69,745.19 1719.59,739.214 1715.35,733.341 1710.96,727.573 1706.43,721.915 1701.77,716.37 1696.96,710.941 1692.03,705.632 1686.97,700.445 1681.78,695.384 1676.48,690.451 1671.05,685.651 1665.5,680.985 1659.84,676.457 1654.08,672.069 1648.2,667.823 1642.23,663.724 1636.15,659.772 1629.98,655.97 1623.72,652.321 1617.37,648.826 1610.94,645.489 1604.43,642.31 1597.84,639.292 1591.18,636.437 1584.45,633.746 1577.66,631.221 1570.8,628.864 1563.89,626.675 1556.93,624.657 1549.93,622.81 1542.88,621.135 1535.79,619.634 1528.66,618.308 1521.51,617.157 1514.33,616.181 1507.12,615.382 1499.9,614.761 1492.67,614.316 1485.43,614.05 1478.18,613.961 1470.93,614.05 1463.69,614.316 1456.46,614.761 1449.24,615.382 1442.04,616.181 1434.85,617.157 1427.7,618.308 1420.57,619.634 1413.48,621.135 1406.43,622.81 1399.43,624.657 1392.47,626.675 1385.56,628.864 1378.7,631.221 1371.91,633.746 1365.18,636.437 1358.52,639.292 1351.93,642.31 1345.42,645.489 1338.99,648.826 1332.64,652.321 1326.38,655.97 1320.21,659.772 1314.13,663.724 1308.16,667.823 1302.28,672.069 1296.52,676.457 1290.86,680.985 1285.31,685.651 1279.89,690.451 1274.58,695.384 1269.39,700.445 1264.33,705.632 1259.4,710.941 1254.59,716.37 1249.93,721.915 1245.4,727.573 1241.01,733.341 1236.77,739.214 1232.67,745.19 1228.72,751.265 1224.91,757.434 1221.26,763.695 1217.77,770.044 1214.43,776.477 1211.25,782.99 1208.24,789.578 1205.38,796.239 1202.69,802.968 1200.17,809.761 1197.81,816.614 1195.62,823.522 1193.6,830.482 1191.75,837.49 1190.08,844.541 1188.58,851.631 1187.25,858.755 1186.1,865.91 1185.13,873.091 1184.33,880.294 1183.7,887.514 1183.26,894.748 1182.99,901.99 1182.9,909.236 1182.99,916.483 1183.26,923.725 1183.7,930.958 1184.33,938.178 1185.13,945.381 1186.1,952.562 1187.25,959.717 1188.58,966.842 1190.08,973.931 1191.75,980.982 1193.6,987.99 1195.62,994.95 1197.81,1001.86 1200.17,1008.71 1202.69,1015.5 1205.38,1022.23 1208.24,1028.89 1211.25,1035.48 1214.43,1042 1217.77,1048.43 1221.26,1054.78 1224.91,1061.04 1228.72,1067.21 1232.67,1073.28 1236.77,1079.26 1241.01,1085.13 1245.4,1090.9 1249.93,1096.56 1254.59,1102.1 1259.4,1107.53 1264.33,1112.84 1269.39,1118.03 1274.58,1123.09 1279.89,1128.02 1285.31,1132.82 1290.86,1137.49 1296.52,1142.02 1302.28,1146.4 1308.16,1150.65 1314.13,1154.75 1320.21,1158.7 1326.38,1162.5 1332.64,1166.15 1338.99,1169.65 1345.42,1172.98 1351.93,1176.16 1358.52,1179.18 1365.18,1182.04 1371.91,1184.73 1378.7,1187.25 1385.56,1189.61 1392.47,1191.8 1399.43,1193.82 1406.43,1195.66 1413.48,1197.34 1420.57,1198.84 1427.7,1200.16 1434.85,1201.32 1442.04,1202.29 1449.24,1203.09 1456.46,1203.71 1463.69,1204.16 1470.93,1204.42 1478.18,1204.51 1485.43,1204.42 1492.67,1204.16 1499.9,1203.71 1507.12,1203.09 1514.33,1202.29 1521.51,1201.32 1528.66,1200.16 1535.79,1198.84 1542.88,1197.34 1549.93,1195.66 1556.93,1193.82 1563.89,1191.8 1570.8,1189.61 1577.66,1187.25 1584.45,1184.73 1591.18,1182.04 1597.84,1179.18 1604.43,1176.16 1610.94,1172.98 1617.37,1169.65 1623.72,1166.15 1629.98,1162.5 1636.15,1158.7 1642.23,1154.75 1648.2,1150.65 1654.08,1146.4 1659.84,1142.02 1665.5,1137.49 1671.05,1132.82 1676.48,1128.02 1681.78,1123.09 1686.97,1118.03 1692.03,1112.84 1696.96,1107.53 1701.77,1102.1 1706.43,1096.56 1710.96,1090.9 1715.35,1085.13 1719.59,1079.26 1723.69,1073.28 1727.64,1067.21 1731.45,1061.04 1735.1,1054.78 1738.59,1048.43 1741.93,1042 1745.11,1035.48 1748.12,1028.89 1750.98,1022.23 1753.67,1015.5 1756.2,1008.71 1758.55,1001.86 1760.74,994.95 1762.76,987.99 1764.61,980.982 1766.28,973.931 1767.78,966.842 1769.11,959.717 1770.26,952.562 1771.24,945.381 1772.03,938.178 1772.66,930.958 1773.1,923.725 1773.37,916.483 1773.46,909.236 "
         id="polyline16" />
      <polyline
         fill="none"
         vector-effect="none"
         points="1580.17,896.279 1580.44,896.571 1580.7,896.871 1580.96,897.18 1581.2,897.496 1581.44,897.82 1581.67,898.153 1581.89,898.493 1582.1,898.841 1582.3,899.198 1582.5,899.562 1582.68,899.934 1582.86,900.314 1583.03,900.703 1583.19,901.099 1583.34,901.503 1583.48,901.916 1583.61,902.336 1583.74,902.764 1583.86,903.201 1583.96,903.645 1584.06,904.097 1584.15,904.557 1584.24,905.026 1584.31,905.502 1584.37,905.986 1584.43,906.479 1584.48,906.979 1584.52,907.487 1584.55,908.003 1584.57,908.528 1584.58,909.06 1584.58,909.6 "
         id="polyline17" />
      <polyline
         fill="none"
         vector-effect="none"
         points="1512.09,892.576 1525.43,892.576 "
         id="polyline18" />
      <polyline
         fill="none"
         vector-effect="none"
         points="1524.24,884.77 1524.12,884.877 1524,884.98 1523.88,885.079 1523.75,885.175 1523.62,885.268 1523.49,885.358 1523.35,885.444 1523.21,885.527 1523.07,885.606 1522.92,885.682 1522.77,885.755 1522.62,885.824 1522.46,885.89 1522.3,885.952 1522.13,886.011 1521.97,886.067 1521.79,886.119 1521.62,886.168 1521.44,886.214 1521.26,886.256 1521.07,886.295 1520.88,886.33 1520.69,886.362 1520.49,886.391 1520.29,886.417 1520.08,886.438 1519.87,886.457 1519.66,886.472 1519.45,886.484 1519.23,886.492 1519.01,886.498 1518.78,886.499 "
         id="polyline19" />
      <polyline
         fill="none"
         vector-effect="none"
         points="1470.33,905.834 1470.18,906.057 1470.04,906.288 1469.9,906.527 1469.76,906.773 1469.63,907.028 1469.51,907.291 1469.39,907.562 1469.27,907.841 1469.16,908.129 1469.05,908.424 1468.95,908.727 1468.85,909.038 1468.76,909.357 1468.67,909.685 1468.59,910.02 1468.51,910.363 1468.44,910.715 1468.37,911.074 1468.3,911.442 1468.25,911.817 1468.19,912.201 1468.14,912.592 1468.1,912.992 1468.06,913.4 1468.02,913.815 1467.99,914.239 1467.96,914.671 1467.94,915.111 1467.93,915.559 1467.91,916.015 1467.91,916.479 1467.9,916.951 "
         id="polyline20" />
      <polyline
         fill="none"
         vector-effect="none"
         points="1567.21,891.665 1567.74,891.67 1568.26,891.683 1568.78,891.706 1569.28,891.738 1569.78,891.778 1570.27,891.828 1570.75,891.886 1571.22,891.954 1571.69,892.03 1572.15,892.116 1572.59,892.211 1573.04,892.314 1573.47,892.427 1573.89,892.548 1574.31,892.679 1574.72,892.819 1575.12,892.967 1575.51,893.125 1575.9,893.292 1576.27,893.468 1576.64,893.652 1577,893.846 1577.36,894.049 1577.7,894.26 1578.04,894.481 1578.37,894.711 1578.69,894.95 1579,895.197 1579.3,895.454 1579.6,895.72 1579.89,895.995 1580.17,896.279 "
         id="polyline21" />
      <polyline
         fill="none"
         vector-effect="none"
         points="1558.31,893.479 1558.56,893.367 1558.81,893.259 1559.06,893.155 1559.31,893.054 1559.56,892.956 1559.82,892.862 1560.08,892.772 1560.34,892.685 1560.6,892.602 1560.86,892.522 1561.13,892.446 1561.4,892.374 1561.67,892.305 1561.94,892.239 1562.22,892.177 1562.49,892.119 1562.77,892.064 1563.05,892.013 1563.34,891.965 1563.62,891.92 1563.91,891.88 1564.2,891.843 1564.49,891.809 1564.78,891.779 1565.08,891.752 1565.38,891.729 1565.68,891.71 1565.98,891.694 1566.28,891.681 1566.59,891.673 1566.9,891.667 1567.21,891.665 "
         id="polyline22" />
      <polyline
         fill="none"
         vector-effect="none"
         points="1552.16,898.834 1552.3,898.614 1552.45,898.398 1552.59,898.185 1552.75,897.975 1552.9,897.769 1553.06,897.566 1553.22,897.367 1553.38,897.171 1553.55,896.978 1553.72,896.789 1553.9,896.603 1554.07,896.42 1554.26,896.241 1554.44,896.065 1554.63,895.893 1554.82,895.724 1555.01,895.558 1555.21,895.396 1555.41,895.237 1555.61,895.082 1555.82,894.929 1556.03,894.781 1556.24,894.635 1556.46,894.493 1556.68,894.355 1556.9,894.219 1557.13,894.087 1557.36,893.959 1557.59,893.834 1557.83,893.712 1558.07,893.594 1558.31,893.479 "
         id="polyline23" />
      <polyline
         fill="none"
         vector-effect="none"
         points="1551.42,898.834 1552.16,898.834 "
         id="polyline24" />
      <polyline
         fill="none"
         vector-effect="none"
         points="1549.63,892.576 1551.42,898.834 "
         id="polyline25" />
      <polyline
         fill="none"
         vector-effect="none"
         points="1539.43,892.576 1549.63,892.576 "
         id="polyline26" />
      <polyline
         fill="none"
         vector-effect="none"
         points="1539.43,941.494 1539.43,892.576 "
         id="polyline27" />
      <polyline
         fill="none"
         vector-effect="none"
         points="1552.78,941.494 1539.43,941.494 "
         id="polyline28" />
      <polyline
         fill="none"
         vector-effect="none"
         points="1552.78,918.477 1552.78,941.494 "
         id="polyline29" />
      <polyline
         fill="none"
         vector-effect="none"
         points="1555.27,906.072 1555.11,906.311 1554.97,906.559 1554.82,906.816 1554.68,907.084 1554.55,907.361 1554.42,907.647 1554.3,907.943 1554.18,908.249 1554.06,908.565 1553.95,908.89 1553.85,909.224 1553.75,909.569 1553.65,909.923 1553.56,910.286 1553.48,910.66 1553.4,911.042 1553.32,911.435 1553.25,911.837 1553.19,912.249 1553.13,912.67 1553.07,913.101 1553.02,913.541 1552.97,913.992 1552.93,914.451 1552.89,914.921 1552.86,915.4 1552.84,915.889 1552.81,916.387 1552.8,916.895 1552.79,917.413 1552.78,917.94 1552.78,918.477 "
         id="polyline30" />
      <polyline
         fill="none"
         vector-effect="none"
         points="1563.36,902.334 1563.01,902.338 1562.67,902.349 1562.34,902.367 1562.01,902.392 1561.69,902.425 1561.37,902.465 1561.06,902.513 1560.75,902.568 1560.46,902.63 1560.16,902.699 1559.88,902.776 1559.6,902.86 1559.32,902.951 1559.05,903.049 1558.79,903.155 1558.54,903.268 1558.29,903.389 1558.04,903.517 1557.81,903.652 1557.57,903.794 1557.35,903.944 1557.13,904.101 1556.92,904.265 1556.71,904.437 1556.51,904.616 1556.31,904.802 1556.12,904.995 1555.94,905.196 1555.76,905.404 1555.59,905.619 1555.43,905.842 1555.27,906.072 "
         id="polyline31" />
      <polyline
         fill="none"
         vector-effect="none"
         points="1569.36,904.98 1569.24,904.817 1569.12,904.66 1568.99,904.507 1568.85,904.36 1568.72,904.218 1568.57,904.081 1568.43,903.949 1568.28,903.822 1568.12,903.701 1567.96,903.585 1567.8,903.474 1567.63,903.368 1567.46,903.267 1567.28,903.171 1567.1,903.081 1566.92,902.995 1566.73,902.915 1566.53,902.84 1566.34,902.771 1566.13,902.706 1565.93,902.647 1565.71,902.592 1565.5,902.543 1565.28,902.499 1565.05,902.461 1564.82,902.427 1564.59,902.399 1564.35,902.375 1564.11,902.357 1563.87,902.344 1563.61,902.337 1563.36,902.334 "
         id="polyline32" />
      <polyline
         fill="none"
         vector-effect="none"
         points="1571.24,912.918 1571.24,912.59 1571.23,912.267 1571.23,911.949 1571.21,911.637 1571.2,911.329 1571.18,911.027 1571.15,910.73 1571.12,910.438 1571.09,910.151 1571.06,909.869 1571.02,909.593 1570.98,909.321 1570.93,909.055 1570.88,908.794 1570.83,908.538 1570.77,908.288 1570.71,908.042 1570.65,907.802 1570.58,907.567 1570.51,907.337 1570.43,907.112 1570.35,906.892 1570.27,906.678 1570.18,906.469 1570.09,906.264 1570,906.065 1569.9,905.872 1569.8,905.683 1569.7,905.499 1569.59,905.321 1569.48,905.148 1569.36,904.98 "
         id="polyline33" />
      <polyline
         fill="none"
         vector-effect="none"
         points="1571.24,941.494 1571.24,912.918 "
         id="polyline34" />
      <polyline
         fill="none"
         vector-effect="none"
         points="1584.58,941.494 1571.24,941.494 "
         id="polyline35" />
      <polyline
         fill="none"
         vector-effect="none"
         points="1584.58,909.6 1584.58,941.494 "
         id="polyline36" />
      <polyline
         fill="none"
         vector-effect="none"
         points="1512.09,941.494 1512.09,892.576 "
         id="polyline37" />
      <polyline
         fill="none"
         vector-effect="none"
         points="1525.43,941.494 1512.09,941.494 "
         id="polyline38" />
      <polyline
         fill="none"
         vector-effect="none"
         points="1525.43,892.576 1525.43,941.494 "
         id="polyline39" />
      <polyline
         fill="none"
         vector-effect="none"
         points="1526.05,879.933 1526.05,880.126 1526.04,880.316 1526.03,880.504 1526.02,880.688 1526,880.871 1525.98,881.05 1525.96,881.227 1525.93,881.401 1525.9,881.572 1525.87,881.741 1525.83,881.907 1525.79,882.07 1525.75,882.231 1525.7,882.389 1525.65,882.544 1525.59,882.696 1525.54,882.846 1525.47,882.993 1525.41,883.138 1525.34,883.279 1525.27,883.418 1525.19,883.555 1525.11,883.688 1525.03,883.819 1524.94,883.948 1524.85,884.073 1524.76,884.196 1524.66,884.316 1524.56,884.434 1524.45,884.549 1524.35,884.661 1524.24,884.77 "
         id="polyline40" />
      <polyline
         fill="none"
         vector-effect="none"
         points="1518.78,873.409 1519.01,873.41 1519.23,873.415 1519.45,873.423 1519.66,873.434 1519.87,873.448 1520.08,873.466 1520.28,873.487 1520.48,873.511 1520.68,873.538 1520.88,873.568 1521.07,873.601 1521.25,873.638 1521.43,873.678 1521.61,873.721 1521.79,873.767 1521.96,873.816 1522.13,873.869 1522.29,873.925 1522.46,873.984 1522.61,874.046 1522.77,874.111 1522.92,874.18 1523.07,874.251 1523.21,874.326 1523.35,874.404 1523.49,874.485 1523.62,874.57 1523.75,874.657 1523.88,874.748 1524,874.842 1524.12,874.939 1524.23,875.04 1524.34,875.143 1524.45,875.25 1524.56,875.36 1524.66,875.473 1524.76,875.589 1524.85,875.709 1524.94,875.831 1525.03,875.957 1525.11,876.086 1525.19,876.218 1525.27,876.354 1525.34,876.492 1525.41,876.634 1525.47,876.779 1525.54,876.927 1525.59,877.079 1525.65,877.233 1525.7,877.391 1525.75,877.552 1525.79,877.716 1525.83,877.883 1525.87,878.053 1525.9,878.227 1525.93,878.404 1525.96,878.584 1525.98,878.767 1526,878.953 1526.02,879.143 1526.03,879.336 1526.04,879.532 1526.05,879.731 1526.05,879.933 "
         id="polyline41" />
      <polyline
         fill="none"
         vector-effect="none"
         points="1511.52,879.933 1511.52,879.731 1511.52,879.532 1511.53,879.336 1511.54,879.143 1511.56,878.953 1511.58,878.767 1511.6,878.584 1511.63,878.404 1511.66,878.227 1511.69,878.053 1511.73,877.883 1511.77,877.716 1511.82,877.552 1511.86,877.391 1511.91,877.233 1511.97,877.079 1512.03,876.927 1512.09,876.779 1512.16,876.634 1512.23,876.492 1512.3,876.354 1512.37,876.218 1512.45,876.086 1512.54,875.957 1512.62,875.831 1512.71,875.709 1512.81,875.589 1512.91,875.473 1513.01,875.36 1513.11,875.25 1513.22,875.143 1513.33,875.04 1513.45,874.939 1513.57,874.842 1513.69,874.748 1513.81,874.657 1513.94,874.57 1514.08,874.485 1514.21,874.404 1514.35,874.326 1514.5,874.251 1514.64,874.18 1514.8,874.111 1514.95,874.046 1515.11,873.984 1515.27,873.925 1515.43,873.869 1515.6,873.816 1515.78,873.767 1515.95,873.721 1516.13,873.678 1516.31,873.638 1516.5,873.601 1516.69,873.568 1516.88,873.538 1517.08,873.511 1517.28,873.487 1517.48,873.466 1517.69,873.448 1517.9,873.434 1518.12,873.423 1518.33,873.415 1518.56,873.41 1518.78,873.409 "
         id="polyline42" />
      <polyline
         fill="none"
         vector-effect="none"
         points="1518.78,886.499 1518.56,886.498 1518.33,886.493 1518.12,886.485 1517.9,886.474 1517.69,886.459 1517.48,886.442 1517.28,886.421 1517.08,886.397 1516.88,886.369 1516.69,886.339 1516.5,886.305 1516.31,886.268 1516.13,886.228 1515.95,886.185 1515.78,886.139 1515.6,886.089 1515.43,886.036 1515.27,885.98 1515.11,885.921 1514.95,885.858 1514.8,885.792 1514.64,885.723 1514.5,885.651 1514.35,885.576 1514.21,885.497 1514.08,885.416 1513.94,885.331 1513.81,885.242 1513.69,885.151 1513.57,885.056 1513.45,884.959 1513.33,884.858 1513.22,884.753 1513.11,884.646 1513.01,884.535 1512.91,884.422 1512.81,884.305 1512.71,884.184 1512.62,884.061 1512.54,883.934 1512.45,883.804 1512.37,883.671 1512.3,883.535 1512.23,883.396 1512.16,883.253 1512.09,883.107 1512.03,882.958 1511.97,882.806 1511.91,882.65 1511.86,882.492 1511.82,882.33 1511.77,882.164 1511.73,881.996 1511.69,881.825 1511.66,881.65 1511.63,881.472 1511.6,881.291 1511.58,881.106 1511.56,880.919 1511.54,880.728 1511.53,880.534 1511.52,880.337 1511.52,880.137 1511.52,879.933 "
         id="polyline43" />
      <polyline
         fill="none"
         vector-effect="none"
         points="1477.66,902.334 1477.36,902.337 1477.06,902.348 1476.77,902.365 1476.48,902.389 1476.19,902.419 1475.91,902.457 1475.64,902.501 1475.37,902.553 1475.1,902.611 1474.84,902.676 1474.59,902.748 1474.33,902.826 1474.09,902.912 1473.85,903.004 1473.61,903.103 1473.38,903.209 1473.15,903.322 1472.93,903.441 1472.71,903.568 1472.5,903.701 1472.29,903.841 1472.09,903.988 1471.89,904.142 1471.7,904.303 1471.51,904.47 1471.33,904.645 1471.15,904.826 1470.98,905.014 1470.81,905.209 1470.65,905.41 1470.49,905.619 1470.33,905.834 "
         id="polyline44" />
      <polyline
         fill="none"
         vector-effect="none"
         points="1483.24,904.98 1483.13,904.817 1483.01,904.66 1482.89,904.507 1482.77,904.36 1482.64,904.218 1482.51,904.081 1482.37,903.949 1482.23,903.822 1482.08,903.701 1481.94,903.585 1481.78,903.474 1481.63,903.368 1481.47,903.267 1481.3,903.171 1481.13,903.081 1480.96,902.995 1480.78,902.915 1480.6,902.84 1480.42,902.771 1480.23,902.706 1480.04,902.647 1479.84,902.592 1479.64,902.543 1479.44,902.499 1479.23,902.461 1479.02,902.427 1478.8,902.399 1478.58,902.375 1478.36,902.357 1478.13,902.344 1477.9,902.337 1477.66,902.334 "
         id="polyline45" />
      <polyline
         fill="none"
         vector-effect="none"
         points="1485.01,912.918 1485.01,912.59 1485.01,912.267 1485,911.949 1484.98,911.637 1484.97,911.329 1484.95,911.027 1484.93,910.73 1484.9,910.438 1484.87,910.151 1484.84,909.869 1484.8,909.593 1484.76,909.321 1484.72,909.055 1484.67,908.794 1484.62,908.538 1484.57,908.288 1484.51,908.042 1484.45,907.802 1484.39,907.567 1484.32,907.337 1484.25,907.112 1484.18,906.892 1484.1,906.678 1484.02,906.469 1483.93,906.264 1483.84,906.065 1483.75,905.872 1483.66,905.683 1483.56,905.499 1483.46,905.321 1483.35,905.148 1483.24,904.98 "
         id="polyline46" />
      <polyline
         fill="none"
         vector-effect="none"
         points="1485.01,941.494 1485.01,912.918 "
         id="polyline47" />
      <polyline
         fill="none"
         vector-effect="none"
         points="1498.4,941.494 1485.01,941.494 "
         id="polyline48" />
      <polyline
         fill="none"
         vector-effect="none"
         points="1498.4,909.6 1498.4,941.494 "
         id="polyline49" />
      <polyline
         fill="none"
         vector-effect="none"
         points="1494.13,895.929 1494.4,896.2 1494.65,896.482 1494.9,896.773 1495.13,897.075 1495.36,897.387 1495.58,897.708 1495.8,898.04 1496,898.382 1496.19,898.734 1496.38,899.096 1496.56,899.468 1496.73,899.85 1496.89,900.242 1497.05,900.644 1497.19,901.056 1497.33,901.478 1497.46,901.91 1497.58,902.353 1497.69,902.805 1497.8,903.268 1497.89,903.74 1497.98,904.222 1498.06,904.715 1498.13,905.218 1498.19,905.73 1498.25,906.253 1498.29,906.786 1498.33,907.329 1498.36,907.881 1498.38,908.444 1498.39,909.017 1498.4,909.6 "
         id="polyline50" />
      <polyline
         fill="none"
         vector-effect="none"
         points="1481.55,891.665 1482.07,891.67 1482.58,891.682 1483.08,891.703 1483.57,891.732 1484.05,891.77 1484.53,891.815 1485,891.869 1485.46,891.932 1485.91,892.003 1486.36,892.082 1486.79,892.169 1487.22,892.265 1487.64,892.369 1488.06,892.481 1488.46,892.602 1488.86,892.731 1489.25,892.869 1489.63,893.014 1490,893.168 1490.37,893.331 1490.72,893.501 1491.07,893.68 1491.42,893.868 1491.75,894.064 1492.07,894.268 1492.39,894.48 1492.7,894.7 1493,894.929 1493.3,895.167 1493.59,895.412 1493.86,895.666 1494.13,895.929 "
         id="polyline51" />
      <polyline
         fill="none"
         vector-effect="none"
         points="1472.92,893.542 1473.16,893.426 1473.4,893.314 1473.64,893.206 1473.89,893.102 1474.13,893.001 1474.38,892.904 1474.64,892.811 1474.89,892.721 1475.14,892.635 1475.4,892.552 1475.66,892.473 1475.92,892.398 1476.19,892.327 1476.45,892.259 1476.72,892.195 1476.99,892.134 1477.26,892.078 1477.53,892.025 1477.81,891.975 1478.08,891.929 1478.36,891.887 1478.64,891.849 1478.92,891.814 1479.21,891.783 1479.49,891.755 1479.78,891.731 1480.07,891.711 1480.37,891.695 1480.66,891.682 1480.96,891.673 1481.25,891.667 1481.55,891.665 "
         id="polyline52" />
      <polyline
         fill="none"
         vector-effect="none"
         points="1467.12,898.834 1467.24,898.622 1467.37,898.413 1467.51,898.207 1467.64,898.004 1467.78,897.804 1467.92,897.607 1468.07,897.413 1468.22,897.222 1468.38,897.034 1468.53,896.849 1468.7,896.667 1468.86,896.488 1469.03,896.312 1469.2,896.139 1469.38,895.97 1469.56,895.803 1469.74,895.639 1469.93,895.478 1470.12,895.32 1470.31,895.165 1470.51,895.013 1470.71,894.865 1470.91,894.719 1471.12,894.576 1471.33,894.436 1471.55,894.299 1471.77,894.165 1471.99,894.035 1472.22,893.907 1472.45,893.782 1472.68,893.66 1472.92,893.542 "
         id="polyline53" />
      <polyline
         fill="none"
         vector-effect="none"
         points="1465.94,898.834 1467.12,898.834 "
         id="polyline54" />
      <polyline
         fill="none"
         vector-effect="none"
         points="1451.06,891.665 1451.4,891.667 1451.74,891.672 1452.07,891.681 1452.41,891.693 1452.73,891.709 1453.06,891.728 1453.38,891.751 1453.69,891.777 1454.01,891.807 1454.32,891.84 1454.63,891.877 1454.93,891.917 1455.23,891.961 1455.52,892.008 1455.82,892.059 1456.11,892.113 1456.39,892.171 1456.68,892.233 1456.96,892.297 1457.23,892.366 1457.5,892.437 1457.77,892.513 1458.04,892.591 1458.3,892.674 1458.56,892.759 1458.81,892.849 1459.06,892.941 1459.31,893.038 1459.56,893.137 1459.8,893.241 1460.04,893.347 1460.27,893.458 1460.5,893.571 1460.73,893.689 1460.95,893.809 1461.17,893.934 1461.39,894.061 1461.6,894.193 1461.81,894.327 1462.02,894.466 1462.22,894.607 1462.42,894.753 1462.62,894.901 1462.81,895.054 1463,895.209 1463.19,895.369 1463.37,895.531 1463.55,895.698 1463.72,895.867 1463.9,896.041 1464.07,896.217 1464.23,896.398 1464.39,896.581 1464.55,896.769 1464.71,896.959 1464.86,897.154 1465,897.351 1465.15,897.553 1465.29,897.757 1465.43,897.966 1465.56,898.178 1465.69,898.393 1465.82,898.612 1465.94,898.834 "
         id="polyline55" />
      <polyline
         fill="none"
         vector-effect="none"
         points="1442.53,893.563 1442.76,893.446 1443,893.333 1443.23,893.224 1443.47,893.118 1443.72,893.016 1443.96,892.918 1444.21,892.823 1444.45,892.733 1444.71,892.646 1444.96,892.562 1445.21,892.482 1445.47,892.407 1445.73,892.334 1445.99,892.266 1446.25,892.201 1446.52,892.14 1446.79,892.082 1447.06,892.029 1447.33,891.979 1447.6,891.932 1447.88,891.89 1448.16,891.851 1448.44,891.816 1448.72,891.784 1449.01,891.756 1449.29,891.732 1449.58,891.712 1449.87,891.695 1450.17,891.682 1450.46,891.673 1450.76,891.667 1451.06,891.665 "
         id="polyline56" />
      <polyline
         fill="none"
         vector-effect="none"
         points="1436.84,898.834 1436.96,898.624 1437.09,898.418 1437.22,898.214 1437.36,898.013 1437.5,897.815 1437.64,897.62 1437.78,897.428 1437.93,897.239 1438.08,897.053 1438.24,896.869 1438.4,896.689 1438.56,896.511 1438.73,896.336 1438.9,896.164 1439.07,895.995 1439.25,895.829 1439.43,895.666 1439.61,895.505 1439.8,895.348 1439.98,895.193 1440.18,895.041 1440.37,894.892 1440.57,894.747 1440.78,894.603 1440.98,894.463 1441.19,894.326 1441.41,894.191 1441.63,894.06 1441.85,893.931 1442.07,893.805 1442.3,893.683 1442.53,893.563 "
         id="polyline57" />
      <polyline
         fill="none"
         vector-effect="none"
         points="1436.09,898.834 1436.84,898.834 "
         id="polyline58" />
      <polyline
         fill="none"
         vector-effect="none"
         points="1434.3,892.576 1436.09,898.834 "
         id="polyline59" />
      <polyline
         fill="none"
         vector-effect="none"
         points="1424.11,892.576 1434.3,892.576 "
         id="polyline60" />
      <polyline
         fill="none"
         vector-effect="none"
         points="1424.11,941.494 1424.11,892.576 "
         id="polyline61" />
      <polyline
         fill="none"
         vector-effect="none"
         points="1437.45,941.494 1424.11,941.494 "
         id="polyline62" />
      <polyline
         fill="none"
         vector-effect="none"
         points="1437.45,918.477 1437.45,941.494 "
         id="polyline63" />
      <polyline
         fill="none"
         vector-effect="none"
         points="1439.77,906.1 1439.63,906.34 1439.49,906.59 1439.36,906.849 1439.23,907.117 1439.1,907.395 1438.98,907.683 1438.87,907.98 1438.76,908.286 1438.65,908.602 1438.55,908.927 1438.45,909.262 1438.36,909.606 1438.27,909.96 1438.19,910.323 1438.11,910.695 1438.03,911.077 1437.96,911.469 1437.9,911.87 1437.83,912.28 1437.78,912.7 1437.73,913.129 1437.68,913.568 1437.64,914.017 1437.6,914.474 1437.56,914.941 1437.53,915.418 1437.51,915.904 1437.49,916.4 1437.47,916.905 1437.46,917.419 1437.45,917.943 1437.45,918.477 "
         id="polyline64" />
      <polyline
         fill="none"
         vector-effect="none"
         points="1447.21,902.334 1446.89,902.338 1446.58,902.349 1446.27,902.367 1445.97,902.393 1445.68,902.426 1445.39,902.466 1445.1,902.514 1444.82,902.569 1444.55,902.632 1444.28,902.702 1444.02,902.779 1443.76,902.864 1443.51,902.956 1443.26,903.055 1443.02,903.161 1442.79,903.275 1442.56,903.397 1442.33,903.526 1442.12,903.662 1441.9,903.805 1441.69,903.956 1441.49,904.114 1441.29,904.28 1441.1,904.452 1440.92,904.633 1440.74,904.82 1440.56,905.015 1440.39,905.217 1440.23,905.427 1440.07,905.644 1439.92,905.868 1439.77,906.1 "
         id="polyline65" />
      <polyline
         fill="none"
         vector-effect="none"
         points="1452.79,904.98 1452.68,904.817 1452.56,904.66 1452.44,904.507 1452.32,904.36 1452.19,904.218 1452.05,904.081 1451.92,903.949 1451.78,903.822 1451.63,903.701 1451.48,903.585 1451.33,903.474 1451.18,903.368 1451.01,903.267 1450.85,903.171 1450.68,903.081 1450.51,902.995 1450.33,902.915 1450.15,902.84 1449.97,902.771 1449.78,902.706 1449.59,902.647 1449.39,902.592 1449.19,902.543 1448.99,902.499 1448.78,902.461 1448.57,902.427 1448.35,902.399 1448.13,902.375 1447.91,902.357 1447.68,902.344 1447.45,902.337 1447.21,902.334 "
         id="polyline66" />
      <polyline
         fill="none"
         vector-effect="none"
         points="1454.56,912.918 1454.56,912.59 1454.55,912.267 1454.55,911.949 1454.53,911.637 1454.52,911.329 1454.5,911.027 1454.48,910.73 1454.45,910.438 1454.42,910.151 1454.39,909.869 1454.35,909.593 1454.31,909.321 1454.27,909.055 1454.22,908.794 1454.17,908.538 1454.12,908.288 1454.06,908.042 1454,907.802 1453.94,907.567 1453.87,907.337 1453.8,907.112 1453.72,906.892 1453.65,906.678 1453.56,906.469 1453.48,906.264 1453.39,906.065 1453.3,905.872 1453.21,905.683 1453.11,905.499 1453,905.321 1452.9,905.148 1452.79,904.98 "
         id="polyline67" />
      <polyline
         fill="none"
         vector-effect="none"
         points="1454.56,941.494 1454.56,912.918 "
         id="polyline68" />
      <polyline
         fill="none"
         vector-effect="none"
         points="1467.9,941.494 1454.56,941.494 "
         id="polyline69" />
      <polyline
         fill="none"
         vector-effect="none"
         points="1467.9,916.951 1467.9,941.494 "
         id="polyline70" />
      <polyline
         fill="none"
         vector-effect="none"
         points="1385.87,888.991 1384.7,901.55 "
         id="polyline71" />
      <polyline
         fill="none"
         vector-effect="none"
         points="1408.71,888.991 1385.87,888.991 "
         id="polyline72" />
      <polyline
         fill="none"
         vector-effect="none"
         points="1408.71,877.525 1408.71,888.991 "
         id="polyline73" />
      <polyline
         fill="none"
         vector-effect="none"
         points="1374.02,877.525 1408.71,877.525 "
         id="polyline74" />
      <polyline
         fill="none"
         vector-effect="none"
         points="1371.61,910.118 1374.02,877.525 "
         id="polyline75" />
      <polyline
         fill="none"
         vector-effect="none"
         points="1377,913.016 1371.61,910.118 "
         id="polyline76" />
      <polyline
         fill="none"
         vector-effect="none"
         points="1381.55,912.022 1381.2,912.08 1380.86,912.139 1380.53,912.198 1380.21,912.258 1379.9,912.318 1379.6,912.379 1379.3,912.44 1379.01,912.502 1378.73,912.564 1378.46,912.627 1378.19,912.691 1377.94,912.755 1377.69,912.819 1377.45,912.885 1377.22,912.95 1377,913.016 "
         id="polyline77" />
      <polyline
         fill="none"
         vector-effect="none"
         points="1386.66,911.56 1386.37,911.562 1386.07,911.568 1385.77,911.577 1385.47,911.589 1385.17,911.605 1384.86,911.625 1384.54,911.649 1384.23,911.676 1383.9,911.707 1383.58,911.741 1383.25,911.779 1382.92,911.82 1382.58,911.865 1382.24,911.914 1381.9,911.966 1381.55,912.022 "
         id="polyline78" />
      <polyline
         fill="none"
         vector-effect="none"
         points="1399.48,921.235 1399.48,920.935 1399.47,920.64 1399.45,920.349 1399.43,920.063 1399.4,919.782 1399.37,919.506 1399.33,919.234 1399.28,918.967 1399.23,918.705 1399.17,918.448 1399.1,918.195 1399.03,917.947 1398.95,917.704 1398.87,917.465 1398.78,917.231 1398.68,917.002 1398.58,916.778 1398.47,916.558 1398.35,916.343 1398.23,916.133 1398.1,915.928 1397.97,915.727 1397.83,915.531 1397.68,915.339 1397.53,915.153 1397.37,914.971 1397.2,914.794 1397.03,914.621 1396.85,914.454 1396.66,914.291 1396.47,914.132 1396.28,913.979 1396.07,913.83 1395.86,913.686 1395.65,913.547 1395.42,913.412 1395.2,913.282 1394.96,913.157 1394.72,913.037 1394.47,912.921 1394.22,912.81 1393.96,912.704 1393.69,912.602 1393.42,912.505 1393.14,912.413 1392.86,912.326 1392.57,912.243 1392.27,912.165 1391.97,912.092 1391.66,912.023 1391.34,911.96 1391.02,911.9 1390.69,911.846 1390.35,911.797 1390.01,911.752 1389.66,911.712 1389.31,911.676 1388.95,911.645 1388.58,911.619 1388.21,911.598 1387.83,911.582 1387.45,911.57 1387.06,911.563 1386.66,911.56 "
         id="polyline79" />
      <polyline
         fill="none"
         vector-effect="none"
         points="1387.09,931.385 1387.48,931.383 1387.85,931.375 1388.23,931.363 1388.59,931.346 1388.95,931.323 1389.31,931.296 1389.65,931.264 1390,931.227 1390.33,931.184 1390.66,931.137 1390.99,931.085 1391.3,931.028 1391.61,930.966 1391.92,930.9 1392.22,930.828 1392.51,930.751 1392.8,930.669 1393.08,930.582 1393.36,930.491 1393.63,930.394 1393.89,930.292 1394.15,930.186 1394.4,930.074 1394.64,929.958 1394.88,929.836 1395.11,929.71 1395.34,929.579 1395.56,929.442 1395.78,929.301 1395.99,929.155 1396.19,929.004 1396.39,928.848 1396.58,928.687 1396.76,928.521 1396.94,928.35 1397.11,928.174 1397.28,927.993 1397.44,927.807 1397.59,927.616 1397.74,927.42 1397.88,927.219 1398.02,927.014 1398.15,926.803 1398.27,926.588 1398.39,926.367 1398.5,926.141 1398.61,925.911 1398.71,925.676 1398.8,925.435 1398.89,925.19 1398.97,924.94 1399.05,924.684 1399.12,924.424 1399.18,924.159 1399.24,923.889 1399.29,923.614 1399.33,923.334 1399.37,923.049 1399.41,922.759 1399.43,922.464 1399.46,922.164 1399.47,921.859 1399.48,921.55 1399.48,921.235 "
         id="polyline80" />
      <polyline
         fill="none"
         vector-effect="none"
         points="1378.39,930.223 1378.96,930.364 1379.53,930.496 1380.1,930.618 1380.66,930.732 1381.22,930.836 1381.77,930.931 1382.32,931.018 1382.87,931.095 1383.41,931.163 1383.95,931.222 1384.48,931.272 1385.01,931.313 1385.54,931.344 1386.06,931.367 1386.58,931.381 1387.09,931.385 "
         id="polyline81" />
      <polyline
         fill="none"
         vector-effect="none"
         points="1370.35,927.227 1370.78,927.454 1371.23,927.675 1371.68,927.891 1372.14,928.102 1372.61,928.308 1373.09,928.508 1373.58,928.703 1374.08,928.893 1374.59,929.078 1375.1,929.257 1375.63,929.431 1376.16,929.6 1376.71,929.764 1377.26,929.922 1377.82,930.075 1378.39,930.223 "
         id="polyline82" />
      <polyline
         fill="none"
         vector-effect="none"
         points="1370.35,938.918 1370.35,927.227 "
         id="polyline83" />
      <polyline
         fill="none"
         vector-effect="none"
         points="1387.58,942.376 1386.92,942.372 1386.26,942.362 1385.62,942.345 1384.98,942.322 1384.34,942.291 1383.72,942.254 1383.11,942.21 1382.5,942.16 1381.9,942.102 1381.31,942.038 1380.73,941.967 1380.15,941.889 1379.58,941.805 1379.03,941.714 1378.47,941.616 1377.93,941.511 1377.4,941.4 1376.87,941.282 1376.35,941.157 1375.84,941.025 1375.34,940.886 1374.85,940.741 1374.36,940.589 1373.88,940.431 1373.41,940.265 1372.95,940.093 1372.5,939.914 1372.05,939.728 1371.61,939.536 1371.18,939.336 1370.76,939.13 1370.35,938.918 "
         id="polyline84" />
      <polyline
         fill="none"
         vector-effect="none"
         points="1406.48,936.593 1406.28,936.773 1406.06,936.949 1405.85,937.123 1405.63,937.294 1405.42,937.462 1405.19,937.627 1404.97,937.789 1404.74,937.949 1404.51,938.105 1404.28,938.259 1404.04,938.41 1403.81,938.559 1403.56,938.704 1403.32,938.847 1403.07,938.986 1402.82,939.123 1402.57,939.257 1402.32,939.389 1402.06,939.517 1401.8,939.643 1401.53,939.766 1401.27,939.886 1401,940.003 1400.73,940.117 1400.45,940.229 1400.18,940.337 1399.9,940.443 1399.61,940.546 1399.33,940.646 1399.04,940.744 1398.75,940.838 1398.45,940.93 1398.16,941.019 1397.86,941.105 1397.56,941.188 1397.25,941.269 1396.94,941.347 1396.63,941.421 1396.32,941.493 1396,941.563 1395.68,941.629 1395.36,941.692 1395.04,941.753 1394.71,941.811 1394.38,941.866 1394.05,941.918 1393.71,941.968 1393.37,942.014 1393.03,942.058 1392.69,942.099 1392.34,942.137 1391.99,942.172 1391.64,942.205 1391.28,942.235 1390.93,942.261 1390.57,942.285 1390.2,942.307 1389.84,942.325 1389.47,942.34 1389.1,942.353 1388.72,942.363 1388.34,942.37 1387.96,942.374 1387.58,942.376 "
         id="polyline85" />
      <polyline
         fill="none"
         vector-effect="none"
         points="1413.09,920.101 1413.09,920.434 1413.08,920.765 1413.08,921.094 1413.07,921.42 1413.05,921.744 1413.03,922.066 1413.01,922.385 1412.99,922.701 1412.96,923.016 1412.93,923.327 1412.9,923.637 1412.86,923.944 1412.82,924.249 1412.78,924.551 1412.73,924.851 1412.68,925.148 1412.63,925.443 1412.57,925.736 1412.51,926.026 1412.45,926.314 1412.38,926.599 1412.31,926.882 1412.24,927.162 1412.16,927.441 1412.08,927.716 1412,927.99 1411.92,928.261 1411.83,928.529 1411.73,928.795 1411.64,929.059 1411.54,929.32 1411.44,929.579 1411.33,929.836 1411.23,930.09 1411.11,930.341 1411,930.591 1410.88,930.838 1410.76,931.082 1410.64,931.324 1410.51,931.564 1410.38,931.801 1410.25,932.036 1410.11,932.268 1409.97,932.498 1409.82,932.726 1409.68,932.951 1409.53,933.174 1409.37,933.394 1409.22,933.612 1409.06,933.828 1408.89,934.041 1408.73,934.252 1408.56,934.46 1408.39,934.666 1408.21,934.87 1408.03,935.071 1407.85,935.27 1407.66,935.466 1407.48,935.66 1407.28,935.851 1407.09,936.041 1406.89,936.227 1406.69,936.412 1406.48,936.593 "
         id="polyline86" />
      <polyline
         fill="none"
         vector-effect="none"
         points="1407.6,905.834 1407.93,906.163 1408.26,906.5 1408.58,906.844 1408.88,907.196 1409.18,907.556 1409.46,907.923 1409.74,908.297 1410,908.679 1410.25,909.068 1410.49,909.465 1410.72,909.87 1410.94,910.282 1411.15,910.701 1411.35,911.128 1411.54,911.563 1411.72,912.005 1411.88,912.454 1412.04,912.912 1412.18,913.376 1412.32,913.848 1412.44,914.328 1412.55,914.815 1412.66,915.31 1412.75,915.812 1412.83,916.322 1412.9,916.839 1412.96,917.364 1413.01,917.896 1413.04,918.436 1413.07,918.983 1413.09,919.538 1413.09,920.101 "
         id="polyline87" />
      <polyline
         fill="none"
         vector-effect="none"
         points="1392.83,900.626 1393.41,900.631 1393.98,900.646 1394.54,900.672 1395.09,900.707 1395.64,900.753 1396.18,900.809 1396.71,900.875 1397.23,900.951 1397.75,901.038 1398.26,901.134 1398.76,901.241 1399.25,901.358 1399.74,901.485 1400.22,901.623 1400.69,901.77 1401.16,901.928 1401.62,902.096 1402.07,902.274 1402.51,902.462 1402.94,902.66 1403.37,902.869 1403.79,903.088 1404.21,903.316 1404.61,903.556 1405.01,903.805 1405.4,904.064 1405.79,904.334 1406.16,904.613 1406.53,904.903 1406.89,905.203 1407.25,905.514 1407.6,905.834 "
         id="polyline88" />
      <polyline
         fill="none"
         vector-effect="none"
         points="1386.22,901.242 1386.56,901.167 1386.91,901.098 1387.27,901.033 1387.64,900.972 1388.02,900.917 1388.41,900.867 1388.81,900.821 1389.21,900.78 1389.63,900.744 1390.06,900.712 1390.5,900.686 1390.94,900.664 1391.4,900.648 1391.87,900.635 1392.35,900.628 1392.83,900.626 "
         id="polyline89" />
    </g>
    <g
       fill="none"
       stroke="#000000"
       stroke-opacity="1"
       stroke-width="1"
       stroke-linecap="square"
       stroke-linejoin="bevel"
       transform="matrix(1,0,0,1,0,0)"
       font-family="Arial"
       font-size="12"
       font-weight="400"
       font-style="normal"
       id="g184" />
  </g>
</svg>
