<?xml version="1.0" encoding="UTF-8" standalone="no"?>
<svg
   width="279.4mm"
   height="215.9mm"
   viewBox="0 0 3300 2550"
   version="1.2"
   id="svg134"
   sodipodi:docname="Hourly.svg"
   inkscape:version="1.3.2 (091e20e, 2023-11-25, custom)"
   xmlns:inkscape="http://www.inkscape.org/namespaces/inkscape"
   xmlns:sodipodi="http://sodipodi.sourceforge.net/DTD/sodipodi-0.dtd"
   xmlns="http://www.w3.org/2000/svg"
   xmlns:svg="http://www.w3.org/2000/svg">
  <sodipodi:namedview
     id="namedview134"
     pagecolor="#ffffff"
     bordercolor="#000000"
     borderopacity="0.25"
     inkscape:showpageshadow="2"
     inkscape:pageopacity="0.0"
     inkscape:pagecheckerboard="0"
     inkscape:deskcolor="#d1d1d1"
     inkscape:document-units="mm"
     inkscape:zoom="2.2291667"
     inkscape:cx="528.22428"
     inkscape:cy="407.99999"
     inkscape:window-width="3840"
     inkscape:window-height="2054"
     inkscape:window-x="-11"
     inkscape:window-y="-11"
     inkscape:window-maximized="1"
     inkscape:current-layer="svg134" />
  <defs
     id="defs1" />
  <g
     fill="none"
     stroke="black"
     stroke-width="1"
     fill-rule="evenodd"
     stroke-linecap="square"
     stroke-linejoin="bevel"
     id="g134">
    <g
       fill="#ffffff"
       fill-opacity="1"
       stroke="none"
       transform="matrix(1,0,0,1,0,0)"
       font-family="Arial"
       font-size="12"
       font-weight="400"
       font-style="normal"
       id="g1">
      <rect
         x="0"
         y="0"
         width="3300"
         height="2550"
         id="rect1" />
    </g>
    <g
       fill="none"
       stroke="#000000"
       stroke-opacity="1"
       stroke-width="1"
       stroke-linecap="square"
       stroke-linejoin="bevel"
       transform="matrix(1,0,0,1,0,0)"
       font-family="Arial"
       font-size="12"
       font-weight="400"
       font-style="normal"
       id="g2" />
    <g
       fill="#000000"
       fill-opacity="1"
       stroke="#000000"
       stroke-opacity="1"
       stroke-width="1"
       stroke-linecap="butt"
       stroke-linejoin="miter"
       stroke-miterlimit="2"
       transform="matrix(1,0,0,1,0,0)"
       font-family="Arial"
       font-size="12"
       font-weight="400"
       font-style="normal"
       id="g3" />
    <g
       fill="#000000"
       fill-opacity="1"
       stroke="#000000"
       stroke-opacity="1"
       stroke-width="5"
       stroke-linecap="round"
       stroke-linejoin="bevel"
       transform="matrix(1,0,0,1,0,0)"
       font-family="Arial"
       font-size="12"
       font-weight="400"
       font-style="normal"
       id="g110">
      <polyline
         fill="none"
         vector-effect="none"
         points="1377.03,510.691 1377.44,510.693 1377.84,510.701 1378.24,510.713 1378.64,510.73 1379.03,510.752 1379.43,510.778 1379.81,510.81 1380.2,510.846 1380.58,510.887 1380.96,510.933 1381.33,510.984 1381.71,511.039 1382.07,511.1 1382.44,511.165 1382.8,511.235 1383.16,511.31 1383.52,511.39 1383.87,511.475 1384.22,511.564 1384.57,511.659 1384.92,511.758 1385.26,511.862 1385.6,511.97 1385.93,512.084 1386.26,512.203 1386.59,512.326 1386.92,512.454 1387.24,512.587 1387.56,512.725 1387.87,512.868 1388.19,513.015 1388.5,513.168 1388.8,513.325 1389.11,513.487 1389.41,513.654 1389.71,513.826 1390,514.002 1390.29,514.183 1390.58,514.37 1390.86,514.561 1391.15,514.757 1391.43,514.957 1391.7,515.163 1391.97,515.373 1392.24,515.589 1392.51,515.809 1392.77,516.034 1393.03,516.263 1393.29,516.498 1393.54,516.737 1393.79,516.982 1394.04,517.231 1394.29,517.485 1394.53,517.744 1394.77,518.007 1395,518.276 1395.23,518.549 1395.46,518.827 1395.69,519.11 1395.91,519.398 1396.13,519.691 1396.35,519.988 1396.56,520.29 1396.77,520.598 "
         id="polyline3" />
      <polyline
         fill="none"
         vector-effect="none"
         points="1437.35,510.691 1437.75,510.693 1438.16,510.701 1438.56,510.713 1438.95,510.73 1439.35,510.752 1439.74,510.778 1440.13,510.81 1440.51,510.846 1440.89,510.887 1441.27,510.933 1441.65,510.984 1442.02,511.039 1442.39,511.1 1442.75,511.165 1443.12,511.235 1443.48,511.31 1443.83,511.39 1444.19,511.475 1444.54,511.564 1444.89,511.659 1445.23,511.758 1445.57,511.862 1445.91,511.97 1446.24,512.084 1446.58,512.203 1446.9,512.326 1447.23,512.454 1447.55,512.587 1447.87,512.725 1448.19,512.868 1448.5,513.015 1448.81,513.168 1449.12,513.325 1449.42,513.487 1449.72,513.654 1450.02,513.826 1450.31,514.002 1450.61,514.183 1450.89,514.37 1451.18,514.561 1451.46,514.757 1451.74,514.957 1452.01,515.163 1452.29,515.373 1452.56,515.589 1452.82,515.809 1453.09,516.034 1453.35,516.263 1453.6,516.498 1453.86,516.737 1454.11,516.982 1454.36,517.231 1454.6,517.485 1454.84,517.744 1455.08,518.007 1455.32,518.276 1455.55,518.549 1455.78,518.827 1456,519.11 1456.23,519.398 1456.44,519.691 1456.66,519.988 1456.87,520.29 1457.08,520.598 "
         id="polyline4" />
      <polyline
         fill="none"
         vector-effect="none"
         points="1406.95,804.261 1406.95,781.436 "
         id="polyline5" />
      <polyline
         fill="none"
         vector-effect="none"
         points="1445.06,818.802 1436.14,804.466 "
         id="polyline6" />
      <polyline
         fill="none"
         vector-effect="none"
         points="1481.64,812.26 1481.64,818.802 "
         id="polyline7" />
      <polyline
         fill="none"
         vector-effect="none"
         points="1483.43,781.436 1492.02,781.436 "
         id="polyline8" />
      <polyline
         fill="none"
         vector-effect="none"
         points="1704.03,799.96 1703.94,792.713 1703.68,785.471 1703.23,778.238 1702.61,771.017 1701.81,763.815 1700.84,756.634 1699.69,749.479 1698.36,742.354 1696.86,735.264 1695.18,728.213 1693.34,721.206 1691.32,714.246 1689.13,707.337 1686.77,700.484 1684.25,693.691 1681.56,686.962 1678.7,680.302 1675.68,673.713 1672.51,667.2 1669.17,660.768 1665.67,654.419 1662.02,648.158 1658.22,641.988 1654.27,635.913 1650.17,629.937 1645.93,624.064 1641.54,618.297 1637.01,612.639 1632.34,607.094 1627.54,601.665 1622.61,596.355 1617.55,591.168 1612.36,586.107 1607.05,581.175 1601.62,576.374 1596.08,571.708 1590.42,567.18 1584.65,562.792 1578.78,558.547 1572.8,554.447 1566.73,550.495 1560.56,546.693 1554.3,543.044 1547.95,539.55 1541.52,536.212 1535,533.034 1528.42,530.016 1521.75,527.16 1515.03,524.47 1508.23,521.945 1501.38,519.587 1494.47,517.398 1487.51,515.38 1480.5,513.533 1473.45,511.859 1466.36,510.358 1459.24,509.031 1452.08,507.88 1444.9,506.905 1437.7,506.106 1430.48,505.484 1423.25,505.04 1416,504.773 1408.76,504.684 1401.51,504.773 1394.27,505.04 1387.04,505.484 1379.82,506.106 1372.61,506.905 1365.43,507.88 1358.28,509.031 1351.15,510.358 1344.06,511.859 1337.01,513.533 1330,515.38 1323.04,517.398 1316.14,519.587 1309.28,521.945 1302.49,524.47 1295.76,527.16 1289.1,530.016 1282.51,533.034 1276,536.212 1269.57,539.55 1263.22,543.044 1256.96,546.693 1250.79,550.495 1244.71,554.447 1238.74,558.547 1232.86,562.792 1227.1,567.18 1221.44,571.708 1215.89,576.374 1210.46,581.175 1205.15,586.107 1199.97,591.168 1194.91,596.355 1189.97,601.665 1185.17,607.094 1180.51,612.639 1175.98,618.297 1171.59,624.064 1167.35,629.937 1163.25,635.913 1159.29,641.988 1155.49,648.158 1151.84,654.419 1148.35,660.768 1145.01,667.2 1141.83,673.713 1138.81,680.302 1135.96,686.962 1133.27,693.691 1130.74,700.484 1128.39,707.337 1126.2,714.246 1124.18,721.206 1122.33,728.213 1120.66,735.264 1119.16,742.354 1117.83,749.479 1116.68,756.634 1115.7,763.815 1114.9,771.017 1114.28,778.238 1113.84,785.471 1113.57,792.713 1113.48,799.96 1113.57,807.206 1113.84,814.448 1114.28,821.681 1114.9,828.902 1115.7,836.104 1116.68,843.285 1117.83,850.44 1119.16,857.565 1120.66,864.655 1122.33,871.706 1124.18,878.713 1126.2,885.674 1128.39,892.582 1130.74,899.435 1133.27,906.228 1135.96,912.957 1138.81,919.617 1141.83,926.206 1145.01,932.719 1148.35,939.152 1151.84,945.5 1155.49,951.762 1159.29,957.931 1163.25,964.006 1167.35,969.982 1171.59,975.855 1175.98,981.622 1180.51,987.28 1185.17,992.826 1189.97,998.255 1194.91,1003.56 1199.97,1008.75 1205.15,1013.81 1210.46,1018.74 1215.89,1023.54 1221.44,1028.21 1227.1,1032.74 1232.86,1037.13 1238.74,1041.37 1244.71,1045.47 1250.79,1049.42 1256.96,1053.23 1263.22,1056.88 1269.57,1060.37 1276,1063.71 1282.51,1066.89 1289.1,1069.9 1295.76,1072.76 1302.49,1075.45 1309.28,1077.97 1316.14,1080.33 1323.04,1082.52 1330,1084.54 1337.01,1086.39 1344.06,1088.06 1351.15,1089.56 1358.28,1090.89 1365.43,1092.04 1372.61,1093.01 1379.82,1093.81 1387.04,1094.44 1394.27,1094.88 1401.51,1095.15 1408.76,1095.24 1416,1095.15 1423.25,1094.88 1430.48,1094.44 1437.7,1093.81 1444.9,1093.01 1452.08,1092.04 1459.24,1090.89 1466.36,1089.56 1473.45,1088.06 1480.5,1086.39 1487.51,1084.54 1494.47,1082.52 1501.38,1080.33 1508.23,1077.97 1515.03,1075.45 1521.75,1072.76 1528.42,1069.9 1535,1066.89 1541.52,1063.71 1547.95,1060.37 1554.3,1056.88 1560.56,1053.23 1566.73,1049.42 1572.8,1045.47 1578.78,1041.37 1584.65,1037.13 1590.42,1032.74 1596.08,1028.21 1601.62,1023.54 1607.05,1018.74 1612.36,1013.81 1617.55,1008.75 1622.61,1003.56 1627.54,998.255 1632.34,992.826 1637.01,987.28 1641.54,981.622 1645.93,975.855 1650.17,969.982 1654.27,964.006 1658.22,957.931 1662.02,951.762 1665.67,945.5 1669.17,939.152 1672.51,932.719 1675.68,926.206 1678.7,919.617 1681.56,912.957 1684.25,906.228 1686.77,899.435 1689.13,892.582 1691.32,885.674 1693.34,878.713 1695.18,871.706 1696.86,864.655 1698.36,857.565 1699.69,850.44 1700.84,843.285 1701.81,836.104 1702.61,828.902 1703.23,821.681 1703.68,814.448 1703.94,807.206 1704.03,799.96 "
         id="polyline9" />
      <polyline
         fill="none"
         vector-effect="none"
         points="1358.96,780.847 1359.49,780.852 1360.02,780.867 1360.54,780.891 1361.05,780.925 1361.55,780.968 1362.04,781.022 1362.53,781.085 1363.01,781.157 1363.48,781.24 1363.94,781.332 1364.4,781.433 1364.85,781.545 1365.29,781.666 1365.72,781.797 1366.14,781.937 1366.56,782.087 1366.96,782.247 1367.36,782.417 1367.76,782.596 1368.14,782.785 1368.52,782.983 1368.88,783.192 1369.24,783.41 1369.6,783.637 1369.94,783.875 1370.28,784.122 1370.61,784.378 1370.93,784.645 1371.24,784.921 1371.55,785.207 1371.84,785.502 1372.13,785.807 "
         id="polyline10" />
      <polyline
         fill="none"
         vector-effect="none"
         points="1325.45,781.436 1333.35,781.436 "
         id="polyline11" />
      <polyline
         fill="none"
         vector-effect="none"
         points="1417.48,520.16 1417.69,519.866 1417.89,519.577 1418.1,519.293 1418.32,519.013 1418.53,518.738 1418.76,518.468 1418.98,518.202 1419.21,517.941 1419.44,517.684 1419.67,517.432 1419.91,517.185 1420.15,516.942 1420.39,516.704 1420.64,516.47 1420.89,516.242 1421.15,516.017 1421.4,515.798 1421.66,515.583 1421.93,515.372 1422.2,515.167 1422.47,514.965 1422.74,514.769 1423.02,514.577 1423.3,514.39 1423.59,514.207 1423.88,514.029 1424.17,513.856 1424.46,513.687 1424.76,513.523 1425.06,513.363 1425.37,513.209 1425.68,513.058 1425.99,512.913 1426.3,512.772 1426.62,512.635 1426.95,512.503 1427.27,512.376 1427.6,512.254 1427.93,512.136 1428.27,512.023 1428.61,511.914 1428.95,511.81 1429.3,511.711 1429.65,511.616 1430,511.526 1430.35,511.44 1430.71,511.359 1431.08,511.283 1431.44,511.211 1431.81,511.144 1432.19,511.082 1432.56,511.024 1432.94,510.971 1433.33,510.922 1433.71,510.878 1434.1,510.839 1434.5,510.804 1434.89,510.774 1435.29,510.749 1435.7,510.728 1436.1,510.712 1436.52,510.7 1436.93,510.693 1437.35,510.691 "
         id="polyline12" />
      <polyline
         fill="none"
         vector-effect="none"
         points="1411.03,549.607 1411.03,548.985 1411.03,548.368 1411.04,547.757 1411.05,547.151 1411.07,546.549 1411.08,545.953 1411.11,545.362 1411.13,544.777 1411.16,544.196 1411.19,543.62 1411.22,543.05 1411.26,542.485 1411.29,541.924 1411.34,541.369 1411.38,540.819 1411.43,540.275 1411.48,539.735 1411.54,539.201 1411.6,538.671 1411.66,538.147 1411.72,537.628 1411.79,537.114 1411.86,536.605 1411.94,536.101 1412.01,535.603 1412.09,535.109 1412.18,534.621 1412.26,534.138 1412.35,533.66 1412.45,533.187 1412.54,532.719 1412.64,532.256 1412.74,531.799 1412.85,531.346 1412.96,530.899 1413.07,530.457 1413.19,530.02 1413.3,529.588 1413.43,529.161 1413.55,528.739 1413.68,528.323 1413.81,527.912 1413.94,527.505 1414.08,527.104 1414.22,526.708 1414.36,526.318 1414.51,525.932 1414.66,525.551 1414.81,525.176 1414.97,524.805 1415.13,524.44 1415.29,524.08 1415.46,523.725 1415.62,523.376 1415.8,523.031 1415.97,522.691 1416.15,522.357 1416.33,522.028 1416.51,521.704 1416.7,521.385 1416.89,521.071 1417.09,520.762 1417.28,520.458 1417.48,520.16 "
         id="polyline13" />
      <polyline
         fill="none"
         vector-effect="none"
         points="1417.66,578.55 1417.45,578.241 1417.25,577.928 1417.05,577.61 1416.85,577.288 1416.66,576.961 1416.47,576.629 1416.29,576.293 1416.1,575.953 1415.92,575.607 1415.75,575.258 1415.57,574.903 1415.4,574.544 1415.24,574.181 1415.07,573.813 1414.91,573.44 1414.76,573.063 1414.6,572.682 1414.45,572.296 1414.31,571.905 1414.16,571.51 1414.02,571.11 1413.88,570.705 1413.75,570.296 1413.62,569.883 1413.49,569.465 1413.37,569.042 1413.24,568.615 1413.13,568.183 1413.01,567.747 1412.9,567.306 1412.79,566.861 1412.69,566.411 1412.58,565.956 1412.48,565.497 1412.39,565.033 1412.3,564.565 1412.21,564.092 1412.12,563.615 1412.04,563.133 1411.96,562.647 1411.88,562.156 1411.81,561.66 1411.74,561.16 1411.68,560.656 1411.61,560.147 1411.55,559.633 1411.5,559.115 1411.44,558.592 1411.39,558.064 1411.35,557.532 1411.3,556.996 1411.26,556.455 1411.22,555.909 1411.19,555.359 1411.16,554.804 1411.13,554.245 1411.11,553.681 1411.09,553.113 1411.07,552.54 1411.05,551.962 1411.04,551.38 1411.03,550.794 1411.03,550.203 1411.03,549.607 "
         id="polyline14" />
      <polyline
         fill="none"
         vector-effect="none"
         points="1437.35,588.357 1436.94,588.355 1436.54,588.348 1436.14,588.336 1435.74,588.319 1435.34,588.298 1434.95,588.271 1434.57,588.24 1434.18,588.204 1433.8,588.164 1433.42,588.118 1433.05,588.068 1432.67,588.013 1432.31,587.953 1431.94,587.888 1431.58,587.819 1431.22,587.745 1430.86,587.666 1430.51,587.582 1430.16,587.493 1429.81,587.4 1429.47,587.302 1429.13,587.199 1428.79,587.091 1428.46,586.978 1428.12,586.861 1427.8,586.739 1427.47,586.612 1427.15,586.48 1426.83,586.344 1426.52,586.203 1426.2,586.056 1425.89,585.906 1425.59,585.75 1425.28,585.59 1424.99,585.424 1424.69,585.254 1424.4,585.08 1424.1,584.9 1423.82,584.716 1423.53,584.526 1423.25,584.333 1422.97,584.134 1422.7,583.93 1422.43,583.722 1422.16,583.509 1421.89,583.291 1421.63,583.068 1421.37,582.841 1421.12,582.609 1420.87,582.372 1420.62,582.13 1420.37,581.883 1420.13,581.632 1419.89,581.375 1419.65,581.114 1419.41,580.849 1419.18,580.578 1418.96,580.303 1418.73,580.023 1418.51,579.738 1418.29,579.448 1418.08,579.154 1417.87,578.854 1417.66,578.55 "
         id="polyline15" />
      <polyline
         fill="none"
         vector-effect="none"
         points="1457.29,578.856 1457.09,579.15 1456.88,579.44 1456.67,579.725 1456.45,580.006 1456.24,580.282 1456.02,580.554 1455.79,580.82 1455.56,581.083 1455.33,581.34 1455.1,581.593 1454.86,581.841 1454.62,582.085 1454.37,582.324 1454.12,582.558 1453.87,582.788 1453.62,583.013 1453.36,583.233 1453.1,583.449 1452.83,583.66 1452.56,583.866 1452.29,584.068 1452.01,584.265 1451.74,584.458 1451.45,584.646 1451.17,584.829 1450.88,585.008 1450.58,585.182 1450.29,585.351 1449.99,585.516 1449.69,585.676 1449.38,585.831 1449.07,585.982 1448.76,586.128 1448.44,586.27 1448.12,586.407 1447.79,586.539 1447.47,586.666 1447.14,586.789 1446.8,586.908 1446.47,587.021 1446.13,587.13 1445.78,587.235 1445.43,587.334 1445.08,587.43 1444.73,587.52 1444.37,587.606 1444.01,587.687 1443.65,587.764 1443.28,587.836 1442.91,587.903 1442.53,587.965 1442.15,588.023 1441.77,588.077 1441.39,588.126 1441,588.17 1440.61,588.209 1440.21,588.244 1439.81,588.274 1439.41,588.299 1439,588.32 1438.59,588.337 1438.18,588.348 1437.77,588.355 1437.35,588.357 "
         id="polyline16" />
      <polyline
         fill="none"
         vector-effect="none"
         points="1463.76,549.607 1463.76,550.221 1463.76,550.831 1463.75,551.436 1463.74,552.035 1463.72,552.63 1463.71,553.219 1463.69,553.804 1463.66,554.383 1463.64,554.958 1463.61,555.528 1463.57,556.092 1463.54,556.652 1463.5,557.206 1463.45,557.756 1463.41,558.3 1463.36,558.84 1463.31,559.374 1463.25,559.904 1463.19,560.429 1463.13,560.948 1463.07,561.463 1463,561.972 1462.93,562.477 1462.85,562.976 1462.78,563.471 1462.7,563.96 1462.61,564.445 1462.52,564.924 1462.43,565.399 1462.34,565.868 1462.24,566.333 1462.15,566.792 1462.04,567.247 1461.94,567.696 1461.83,568.141 1461.72,568.58 1461.6,569.015 1461.48,569.444 1461.36,569.869 1461.24,570.288 1461.11,570.703 1460.98,571.112 1460.84,571.517 1460.7,571.916 1460.56,572.311 1460.42,572.7 1460.27,573.085 1460.12,573.464 1459.97,573.839 1459.81,574.208 1459.65,574.573 1459.49,574.932 1459.32,575.287 1459.16,575.636 1458.98,575.981 1458.81,576.32 1458.63,576.654 1458.45,576.984 1458.26,577.308 1458.07,577.628 1457.88,577.942 1457.69,578.252 1457.49,578.556 1457.29,578.856 "
         id="polyline17" />
      <polyline
         fill="none"
         vector-effect="none"
         points="1457.08,520.598 1457.29,520.909 1457.5,521.226 1457.7,521.546 1457.89,521.872 1458.09,522.202 1458.28,522.536 1458.47,522.875 1458.65,523.218 1458.83,523.566 1459.01,523.918 1459.18,524.275 1459.35,524.636 1459.52,525.001 1459.69,525.372 1459.85,525.746 1460.01,526.125 1460.16,526.509 1460.31,526.897 1460.46,527.29 1460.61,527.687 1460.75,528.089 1460.89,528.495 1461.02,528.905 1461.15,529.321 1461.28,529.74 1461.41,530.164 1461.53,530.593 1461.65,531.026 1461.77,531.463 1461.88,531.905 1461.99,532.352 1462.09,532.803 1462.2,533.259 1462.3,533.719 1462.39,534.183 1462.49,534.652 1462.57,535.126 1462.66,535.604 1462.74,536.086 1462.82,536.573 1462.9,537.064 1462.97,537.56 1463.04,538.061 1463.11,538.566 1463.17,539.075 1463.24,539.589 1463.29,540.107 1463.35,540.63 1463.4,541.158 1463.44,541.689 1463.49,542.226 1463.53,542.767 1463.57,543.312 1463.6,543.862 1463.63,544.416 1463.66,544.975 1463.68,545.538 1463.7,546.106 1463.72,546.678 1463.74,547.255 1463.75,547.836 1463.76,548.422 1463.76,549.012 1463.76,549.607 "
         id="polyline18" />
      <polyline
         fill="none"
         vector-effect="none"
         points="1405.2,810.636 1405.31,810.507 1405.42,810.373 1405.52,810.235 1405.61,810.092 1405.71,809.945 1405.8,809.793 1405.89,809.636 1405.97,809.476 1406.05,809.31 1406.13,809.14 1406.2,808.966 1406.27,808.787 1406.34,808.604 1406.4,808.416 1406.46,808.223 1406.52,808.026 1406.57,807.825 1406.62,807.619 1406.67,807.408 1406.71,807.193 1406.75,806.974 1406.78,806.75 1406.82,806.521 1406.85,806.288 1406.87,806.051 1406.89,805.809 1406.91,805.562 1406.93,805.311 1406.94,805.055 1406.95,804.795 1406.95,804.53 1406.95,804.261 "
         id="polyline19" />
      <polyline
         fill="none"
         vector-effect="none"
         points="1399.57,812.668 1399.81,812.666 1400.05,812.661 1400.28,812.651 1400.51,812.637 1400.73,812.619 1400.95,812.597 1401.17,812.571 1401.38,812.541 1401.59,812.508 1401.79,812.47 1401.99,812.428 1402.18,812.383 1402.37,812.333 1402.56,812.279 1402.74,812.222 1402.92,812.16 1403.09,812.095 1403.26,812.025 1403.43,811.952 1403.59,811.875 1403.75,811.793 1403.9,811.708 1404.05,811.619 1404.2,811.525 1404.34,811.428 1404.47,811.327 1404.61,811.222 1404.73,811.112 1404.86,810.999 1404.98,810.882 1405.09,810.761 1405.2,810.636 "
         id="polyline20" />
      <polyline
         fill="none"
         vector-effect="none"
         points="1393.82,810.648 1393.93,810.773 1394.04,810.893 1394.16,811.009 1394.29,811.122 1394.42,811.23 1394.55,811.335 1394.69,811.436 1394.83,811.532 1394.97,811.625 1395.12,811.714 1395.28,811.798 1395.44,811.879 1395.6,811.956 1395.77,812.029 1395.95,812.098 1396.12,812.163 1396.31,812.225 1396.49,812.282 1396.68,812.335 1396.88,812.384 1397.08,812.43 1397.28,812.471 1397.49,812.509 1397.7,812.542 1397.92,812.572 1398.14,812.597 1398.37,812.619 1398.6,812.637 1398.84,812.651 1399.08,812.661 1399.32,812.666 1399.57,812.668 "
         id="polyline21" />
      <polyline
         fill="none"
         vector-effect="none"
         points="1392.08,804.31 1392.08,804.578 1392.09,804.841 1392.09,805.1 1392.11,805.354 1392.12,805.604 1392.14,805.849 1392.16,806.09 1392.19,806.326 1392.22,806.557 1392.25,806.785 1392.28,807.007 1392.32,807.226 1392.37,807.44 1392.41,807.649 1392.46,807.854 1392.51,808.054 1392.57,808.25 1392.63,808.441 1392.69,808.628 1392.76,808.81 1392.83,808.988 1392.9,809.162 1392.98,809.33 1393.06,809.495 1393.14,809.655 1393.23,809.81 1393.32,809.961 1393.41,810.108 1393.51,810.249 1393.61,810.387 1393.71,810.52 1393.82,810.648 "
         id="polyline22" />
      <polyline
         fill="none"
         vector-effect="none"
         points="1392.08,781.436 1392.08,804.31 "
         id="polyline23" />
      <polyline
         fill="none"
         vector-effect="none"
         points="1384.19,781.436 1392.08,781.436 "
         id="polyline24" />
      <polyline
         fill="none"
         vector-effect="none"
         points="1384.19,805.513 1384.19,781.436 "
         id="polyline25" />
      <polyline
         fill="none"
         vector-effect="none"
         points="1388.17,815.621 1387.93,815.387 1387.69,815.148 1387.46,814.904 1387.24,814.654 1387.02,814.399 1386.82,814.139 1386.62,813.874 1386.43,813.603 1386.25,813.327 1386.07,813.045 1385.9,812.759 1385.74,812.467 1385.59,812.169 1385.45,811.867 1385.31,811.559 1385.18,811.245 1385.06,810.927 1384.95,810.603 1384.84,810.274 1384.75,809.939 1384.66,809.6 1384.58,809.255 1384.5,808.904 1384.44,808.549 1384.38,808.188 1384.33,807.821 1384.28,807.45 1384.25,807.073 1384.22,806.691 1384.2,806.303 1384.19,805.911 1384.19,805.513 "
         id="polyline26" />
      <polyline
         fill="none"
         vector-effect="none"
         points="1399.37,819.317 1398.92,819.314 1398.48,819.303 1398.04,819.285 1397.61,819.26 1397.19,819.227 1396.78,819.187 1396.37,819.14 1395.96,819.086 1395.57,819.025 1395.18,818.956 1394.79,818.88 1394.41,818.797 1394.04,818.707 1393.68,818.61 1393.32,818.505 1392.96,818.393 1392.62,818.274 1392.28,818.148 1391.94,818.014 1391.62,817.873 1391.29,817.725 1390.98,817.57 1390.67,817.408 1390.37,817.238 1390.07,817.061 1389.78,816.877 1389.5,816.686 1389.22,816.487 1388.95,816.281 1388.68,816.068 1388.43,815.848 1388.17,815.621 "
         id="polyline27" />
      <polyline
         fill="none"
         vector-effect="none"
         points="1407.65,817.653 1407.43,817.755 1407.2,817.855 1406.98,817.95 1406.75,818.043 1406.52,818.132 1406.29,818.219 1406.05,818.302 1405.81,818.381 1405.57,818.458 1405.33,818.531 1405.09,818.601 1404.84,818.667 1404.59,818.731 1404.34,818.791 1404.08,818.848 1403.82,818.901 1403.56,818.952 1403.3,818.999 1403.04,819.043 1402.77,819.083 1402.5,819.121 1402.23,819.155 1401.95,819.186 1401.67,819.213 1401.39,819.238 1401.11,819.259 1400.83,819.277 1400.54,819.291 1400.25,819.303 1399.96,819.311 1399.66,819.316 1399.37,819.317 "
         id="polyline28" />
      <polyline
         fill="none"
         vector-effect="none"
         points="1413,812.873 1412.88,813.066 1412.76,813.257 1412.64,813.444 1412.51,813.629 1412.38,813.811 1412.25,813.99 1412.11,814.167 1411.97,814.34 1411.83,814.511 1411.68,814.679 1411.53,814.844 1411.38,815.006 1411.22,815.165 1411.07,815.321 1410.9,815.475 1410.74,815.626 1410.57,815.774 1410.4,815.919 1410.22,816.061 1410.04,816.201 1409.86,816.337 1409.67,816.471 1409.49,816.602 1409.29,816.73 1409.1,816.855 1408.9,816.978 1408.7,817.098 1408.5,817.214 1408.29,817.328 1408.08,817.439 1407.86,817.548 1407.65,817.653 "
         id="polyline29" />
      <polyline
         fill="none"
         vector-effect="none"
         points="1414.85,805.611 1414.85,805.869 1414.85,806.125 1414.84,806.379 1414.83,806.631 1414.81,806.881 1414.79,807.129 1414.77,807.375 1414.74,807.619 1414.71,807.861 1414.67,808.102 1414.64,808.34 1414.59,808.576 1414.55,808.81 1414.5,809.041 1414.45,809.271 1414.39,809.499 1414.33,809.725 1414.27,809.949 1414.2,810.171 1414.13,810.391 1414.06,810.609 1413.98,810.825 1413.9,811.039 1413.81,811.251 1413.72,811.46 1413.63,811.668 1413.54,811.874 1413.44,812.078 1413.33,812.28 1413.23,812.479 1413.12,812.677 1413,812.873 "
         id="polyline30" />
      <polyline
         fill="none"
         vector-effect="none"
         points="1414.85,781.436 1414.85,805.611 "
         id="polyline31" />
      <polyline
         fill="none"
         vector-effect="none"
         points="1406.95,781.436 1414.85,781.436 "
         id="polyline32" />
      <polyline
         fill="none"
         vector-effect="none"
         points="1453.86,818.802 1445.06,818.802 "
         id="polyline33" />
      <polyline
         fill="none"
         vector-effect="none"
         points="1442.86,802.519 1443.13,802.911 1443.39,803.298 1443.64,803.681 1443.9,804.06 1444.15,804.434 1444.4,804.804 1444.64,805.169 1444.88,805.531 1445.12,805.887 1445.36,806.24 1445.59,806.588 1445.82,806.932 1446.05,807.271 1446.28,807.606 1446.5,807.937 1446.72,808.263 1446.93,808.585 1447.15,808.902 1447.36,809.216 1447.56,809.525 1447.77,809.829 1447.97,810.129 1448.17,810.425 1448.37,810.717 1448.56,811.004 1448.75,811.286 1448.94,811.565 1449.12,811.839 1449.3,812.108 1449.48,812.374 1449.66,812.635 1449.83,812.891 1450,813.144 1450.17,813.391 1450.34,813.635 1450.5,813.874 1450.66,814.109 1450.81,814.339 1450.96,814.565 1451.11,814.787 1451.26,815.005 1451.41,815.218 1451.55,815.426 1451.69,815.631 1451.82,815.831 1451.96,816.026 1452.09,816.217 1452.21,816.404 1452.34,816.587 1452.46,816.765 1452.58,816.939 1452.69,817.108 1452.81,817.273 1452.92,817.434 1453.02,817.591 1453.13,817.743 1453.23,817.89 1453.33,818.034 1453.42,818.173 1453.51,818.307 1453.6,818.437 1453.69,818.563 1453.78,818.685 1453.86,818.802 "
         id="polyline34" />
      <polyline
         fill="none"
         vector-effect="none"
         points="1448,798.496 1447.89,798.655 1447.77,798.812 1447.65,798.967 1447.53,799.12 1447.4,799.271 1447.27,799.42 1447.14,799.566 1447,799.71 1446.87,799.852 1446.72,799.992 1446.58,800.13 1446.43,800.265 1446.28,800.399 1446.13,800.53 1445.97,800.659 1445.81,800.786 1445.65,800.91 1445.49,801.033 1445.32,801.153 1445.15,801.271 1444.97,801.387 1444.8,801.501 1444.62,801.613 1444.43,801.722 1444.25,801.829 1444.06,801.934 1443.87,802.037 1443.67,802.138 1443.48,802.237 1443.28,802.333 1443.07,802.427 1442.86,802.519 "
         id="polyline35" />
      <polyline
         fill="none"
         vector-effect="none"
         points="1449.82,792.632 1449.81,792.837 1449.81,793.041 1449.8,793.243 1449.79,793.445 1449.77,793.644 1449.75,793.842 1449.73,794.039 1449.7,794.234 1449.67,794.428 1449.64,794.621 1449.6,794.812 1449.56,795.001 1449.52,795.19 1449.47,795.376 1449.42,795.562 1449.36,795.746 1449.31,795.928 1449.24,796.109 1449.18,796.289 1449.11,796.467 1449.04,796.644 1448.96,796.82 1448.88,796.994 1448.8,797.166 1448.71,797.337 1448.62,797.507 1448.53,797.675 1448.43,797.842 1448.33,798.008 1448.22,798.172 1448.12,798.334 1448,798.496 "
         id="polyline36" />
      <polyline
         fill="none"
         vector-effect="none"
         points="1446.16,784.208 1446.39,784.384 1446.61,784.566 1446.82,784.754 1447.02,784.946 1447.22,785.145 1447.41,785.349 1447.59,785.559 1447.76,785.775 1447.93,785.996 1448.09,786.222 1448.24,786.455 1448.39,786.693 1448.53,786.936 1448.66,787.185 1448.79,787.44 1448.9,787.7 1449.01,787.967 1449.12,788.238 1449.21,788.515 1449.3,788.798 1449.38,789.087 1449.46,789.381 1449.53,789.681 1449.59,789.986 1449.64,790.297 1449.69,790.614 1449.73,790.936 1449.76,791.264 1449.78,791.598 1449.8,791.937 1449.81,792.282 1449.82,792.632 "
         id="polyline37" />
      <polyline
         fill="none"
         vector-effect="none"
         points="1434.89,781.436 1435.36,781.439 1435.83,781.447 1436.29,781.46 1436.73,781.479 1437.18,781.504 1437.61,781.533 1438.04,781.569 1438.45,781.609 1438.86,781.655 1439.27,781.707 1439.66,781.764 1440.05,781.826 1440.43,781.894 1440.8,781.967 1441.16,782.045 1441.52,782.129 1441.87,782.218 1442.21,782.313 1442.54,782.413 1442.87,782.519 1443.19,782.63 1443.49,782.746 1443.8,782.868 1444.09,782.995 1444.38,783.128 1444.66,783.266 1444.93,783.41 1445.19,783.559 1445.45,783.713 1445.69,783.873 1445.93,784.038 1446.16,784.208 "
         id="polyline38" />
      <polyline
         fill="none"
         vector-effect="none"
         points="1424.01,781.436 1434.89,781.436 "
         id="polyline39" />
      <polyline
         fill="none"
         vector-effect="none"
         points="1424.01,818.802 1424.01,781.436 "
         id="polyline40" />
      <polyline
         fill="none"
         vector-effect="none"
         points="1431.93,818.802 1424.01,818.802 "
         id="polyline41" />
      <polyline
         fill="none"
         vector-effect="none"
         points="1431.93,804.466 1431.93,818.802 "
         id="polyline42" />
      <polyline
         fill="none"
         vector-effect="none"
         points="1436.14,804.466 1431.93,804.466 "
         id="polyline43" />
      <polyline
         fill="none"
         vector-effect="none"
         points="1466.48,812.26 1481.64,812.26 "
         id="polyline44" />
      <polyline
         fill="none"
         vector-effect="none"
         points="1466.48,781.436 1466.48,812.26 "
         id="polyline45" />
      <polyline
         fill="none"
         vector-effect="none"
         points="1458.56,781.436 1466.48,781.436 "
         id="polyline46" />
      <polyline
         fill="none"
         vector-effect="none"
         points="1458.56,818.802 1458.56,781.436 "
         id="polyline47" />
      <polyline
         fill="none"
         vector-effect="none"
         points="1481.64,818.802 1458.56,818.802 "
         id="polyline48" />
      <polyline
         fill="none"
         vector-effect="none"
         points="1495.83,804.515 1483.43,781.436 "
         id="polyline49" />
      <polyline
         fill="none"
         vector-effect="none"
         points="1495.83,818.802 1495.83,804.515 "
         id="polyline50" />
      <polyline
         fill="none"
         vector-effect="none"
         points="1503.69,818.802 1495.83,818.802 "
         id="polyline51" />
      <polyline
         fill="none"
         vector-effect="none"
         points="1503.69,804.261 1503.69,818.802 "
         id="polyline52" />
      <polyline
         fill="none"
         vector-effect="none"
         points="1516.09,781.436 1503.69,804.261 "
         id="polyline53" />
      <polyline
         fill="none"
         vector-effect="none"
         points="1507.55,781.436 1516.09,781.436 "
         id="polyline54" />
      <polyline
         fill="none"
         vector-effect="none"
         points="1499.76,796.819 1507.55,781.436 "
         id="polyline55" />
      <polyline
         fill="none"
         vector-effect="none"
         points="1492.02,781.436 1499.76,796.819 "
         id="polyline56" />
      <polyline
         fill="none"
         vector-effect="none"
         points="1345.73,785.766 1346.03,785.464 1346.33,785.171 1346.63,784.887 1346.95,784.613 1347.27,784.349 1347.6,784.095 1347.94,783.85 1348.29,783.614 1348.64,783.388 1349.01,783.172 1349.38,782.966 1349.75,782.769 1350.14,782.581 1350.53,782.404 1350.94,782.235 1351.35,782.077 1351.76,781.928 1352.19,781.789 1352.62,781.659 1353.06,781.539 1353.51,781.428 1353.97,781.328 1354.43,781.236 1354.9,781.155 1355.38,781.083 1355.87,781.02 1356.36,780.967 1356.87,780.924 1357.38,780.89 1357.9,780.866 1358.42,780.852 1358.96,780.847 "
         id="polyline57" />
      <polyline
         fill="none"
         vector-effect="none"
         points="1341.12,800.017 1341.12,799.438 1341.14,798.868 1341.16,798.306 1341.19,797.753 1341.23,797.209 1341.28,796.673 1341.34,796.145 1341.41,795.627 1341.49,795.117 1341.57,794.616 1341.67,794.123 1341.77,793.639 1341.88,793.163 1342,792.696 1342.13,792.238 1342.27,791.789 1342.42,791.348 1342.58,790.915 1342.75,790.491 1342.92,790.076 1343.11,789.67 1343.3,789.272 1343.5,788.882 1343.71,788.502 1343.94,788.13 1344.17,787.766 1344.4,787.411 1344.65,787.065 1344.91,786.727 1345.17,786.398 1345.45,786.078 1345.73,785.766 "
         id="polyline58" />
      <polyline
         fill="none"
         vector-effect="none"
         points="1345.72,814.333 1345.44,814.017 1345.16,813.693 1344.9,813.36 1344.64,813.019 1344.4,812.669 1344.16,812.311 1343.93,811.944 1343.71,811.569 1343.5,811.185 1343.29,810.793 1343.1,810.392 1342.92,809.983 1342.74,809.565 1342.58,809.139 1342.42,808.705 1342.27,808.261 1342.13,807.81 1342,807.35 1341.88,806.881 1341.77,806.404 1341.66,805.918 1341.57,805.424 1341.48,804.922 1341.41,804.411 1341.34,803.891 1341.28,803.363 1341.23,802.827 1341.19,802.282 1341.16,801.728 1341.14,801.166 1341.12,800.596 1341.12,800.017 "
         id="polyline59" />
      <polyline
         fill="none"
         vector-effect="none"
         points="1358.91,819.317 1358.38,819.312 1357.85,819.298 1357.33,819.273 1356.82,819.239 1356.32,819.196 1355.83,819.142 1355.34,819.079 1354.86,819.006 1354.39,818.923 1353.93,818.831 1353.48,818.728 1353.03,818.616 1352.59,818.495 1352.16,818.363 1351.73,818.222 1351.32,818.071 1350.91,817.911 1350.51,817.74 1350.12,817.56 1349.73,817.37 1349.35,817.171 1348.99,816.961 1348.62,816.742 1348.27,816.513 1347.92,816.275 1347.59,816.027 1347.26,815.769 1346.93,815.501 1346.62,815.224 1346.31,814.936 1346.01,814.639 1345.72,814.333 "
         id="polyline60" />
      <polyline
         fill="none"
         vector-effect="none"
         points="1372.1,814.333 1371.8,814.639 1371.5,814.936 1371.2,815.224 1370.88,815.501 1370.56,815.769 1370.23,816.027 1369.89,816.275 1369.55,816.513 1369.19,816.742 1368.83,816.961 1368.46,817.171 1368.08,817.37 1367.7,817.56 1367.31,817.74 1366.91,817.911 1366.5,818.071 1366.08,818.222 1365.66,818.363 1365.23,818.495 1364.79,818.616 1364.34,818.728 1363.89,818.831 1363.42,818.923 1362.95,819.006 1362.47,819.079 1361.99,819.142 1361.49,819.196 1360.99,819.239 1360.48,819.273 1359.97,819.298 1359.44,819.312 1358.91,819.317 "
         id="polyline61" />
      <polyline
         fill="none"
         vector-effect="none"
         points="1376.7,800.066 1376.69,800.642 1376.68,801.209 1376.65,801.769 1376.62,802.319 1376.58,802.862 1376.53,803.396 1376.48,803.921 1376.41,804.438 1376.33,804.947 1376.25,805.448 1376.15,805.94 1376.05,806.423 1375.94,806.898 1375.81,807.365 1375.68,807.824 1375.55,808.274 1375.4,808.715 1375.24,809.149 1375.07,809.573 1374.9,809.99 1374.71,810.398 1374.52,810.798 1374.32,811.189 1374.11,811.572 1373.89,811.946 1373.66,812.312 1373.42,812.67 1373.17,813.019 1372.92,813.36 1372.65,813.693 1372.38,814.017 1372.1,814.333 "
         id="polyline62" />
      <polyline
         fill="none"
         vector-effect="none"
         points="1372.13,785.807 1372.41,786.121 1372.68,786.444 1372.95,786.775 1373.2,787.115 1373.45,787.463 1373.68,787.82 1373.91,788.185 1374.13,788.558 1374.34,788.94 1374.54,789.331 1374.73,789.73 1374.91,790.137 1375.09,790.553 1375.25,790.978 1375.41,791.411 1375.55,791.852 1375.69,792.302 1375.82,792.76 1375.94,793.227 1376.05,793.702 1376.16,794.186 1376.25,794.678 1376.33,795.179 1376.41,795.688 1376.48,796.205 1376.53,796.731 1376.58,797.266 1376.62,797.809 1376.66,798.361 1376.68,798.921 1376.69,799.489 1376.7,800.066 "
         id="polyline63" />
      <polyline
         fill="none"
         vector-effect="none"
         points="1325.45,796.083 1325.45,781.436 "
         id="polyline64" />
      <polyline
         fill="none"
         vector-effect="none"
         points="1310.66,796.083 1325.45,796.083 "
         id="polyline65" />
      <polyline
         fill="none"
         vector-effect="none"
         points="1310.66,781.436 1310.66,796.083 "
         id="polyline66" />
      <polyline
         fill="none"
         vector-effect="none"
         points="1302.73,781.436 1310.66,781.436 "
         id="polyline67" />
      <polyline
         fill="none"
         vector-effect="none"
         points="1302.73,818.802 1302.73,781.436 "
         id="polyline68" />
      <polyline
         fill="none"
         vector-effect="none"
         points="1310.66,818.802 1302.73,818.802 "
         id="polyline69" />
      <polyline
         fill="none"
         vector-effect="none"
         points="1310.66,802.675 1310.66,818.802 "
         id="polyline70" />
      <polyline
         fill="none"
         vector-effect="none"
         points="1325.45,802.675 1310.66,802.675 "
         id="polyline71" />
      <polyline
         fill="none"
         vector-effect="none"
         points="1325.45,818.802 1325.45,802.675 "
         id="polyline72" />
      <polyline
         fill="none"
         vector-effect="none"
         points="1333.35,818.802 1325.45,818.802 "
         id="polyline73" />
      <polyline
         fill="none"
         vector-effect="none"
         points="1333.35,781.436 1333.35,818.802 "
         id="polyline74" />
      <polyline
         fill="none"
         vector-effect="none"
         points="1357.17,520.16 1357.37,519.866 1357.58,519.577 1357.79,519.293 1358,519.013 1358.22,518.738 1358.44,518.468 1358.67,518.202 1358.89,517.941 1359.12,517.684 1359.36,517.432 1359.59,517.185 1359.84,516.942 1360.08,516.704 1360.33,516.47 1360.58,516.242 1360.83,516.017 1361.09,515.798 1361.35,515.583 1361.62,515.372 1361.88,515.167 1362.16,514.965 1362.43,514.769 1362.71,514.577 1362.99,514.39 1363.27,514.207 1363.56,514.029 1363.85,513.856 1364.15,513.687 1364.45,513.523 1364.75,513.363 1365.05,513.209 1365.36,513.058 1365.68,512.913 1365.99,512.772 1366.31,512.635 1366.63,512.503 1366.96,512.376 1367.29,512.254 1367.62,512.136 1367.96,512.023 1368.29,511.914 1368.64,511.81 1368.98,511.711 1369.33,511.616 1369.68,511.526 1370.04,511.44 1370.4,511.359 1370.76,511.283 1371.13,511.211 1371.5,511.144 1371.87,511.082 1372.25,511.024 1372.63,510.971 1373.01,510.922 1373.4,510.878 1373.79,510.839 1374.18,510.804 1374.58,510.774 1374.98,510.749 1375.38,510.728 1375.79,510.712 1376.2,510.7 1376.62,510.693 1377.03,510.691 "
         id="polyline75" />
      <polyline
         fill="none"
         vector-effect="none"
         points="1350.71,549.607 1350.72,548.985 1350.72,548.368 1350.73,547.757 1350.74,547.151 1350.75,546.549 1350.77,545.953 1350.79,545.362 1350.82,544.777 1350.84,544.196 1350.87,543.62 1350.91,543.05 1350.94,542.485 1350.98,541.924 1351.02,541.369 1351.07,540.819 1351.12,540.275 1351.17,539.735 1351.23,539.201 1351.28,538.671 1351.34,538.147 1351.41,537.628 1351.48,537.114 1351.55,536.605 1351.62,536.101 1351.7,535.603 1351.78,535.109 1351.86,534.621 1351.95,534.138 1352.04,533.66 1352.13,533.187 1352.23,532.719 1352.33,532.256 1352.43,531.799 1352.54,531.346 1352.65,530.899 1352.76,530.457 1352.87,530.02 1352.99,529.588 1353.11,529.161 1353.24,528.739 1353.36,528.323 1353.49,527.912 1353.63,527.505 1353.77,527.104 1353.91,526.708 1354.05,526.318 1354.2,525.932 1354.35,525.551 1354.5,525.176 1354.65,524.805 1354.81,524.44 1354.98,524.08 1355.14,523.725 1355.31,523.376 1355.48,523.031 1355.66,522.691 1355.84,522.357 1356.02,522.028 1356.2,521.704 1356.39,521.385 1356.58,521.071 1356.77,520.762 1356.97,520.458 1357.17,520.16 "
         id="polyline76" />
      <polyline
         fill="none"
         vector-effect="none"
         points="1357.34,578.55 1357.14,578.241 1356.94,577.928 1356.74,577.61 1356.54,577.288 1356.35,576.961 1356.16,576.629 1355.97,576.293 1355.79,575.953 1355.61,575.607 1355.43,575.258 1355.26,574.903 1355.09,574.544 1354.92,574.181 1354.76,573.813 1354.6,573.44 1354.44,573.063 1354.29,572.682 1354.14,572.296 1353.99,571.905 1353.85,571.51 1353.71,571.11 1353.57,570.705 1353.44,570.296 1353.3,569.883 1353.18,569.465 1353.05,569.042 1352.93,568.615 1352.81,568.183 1352.7,567.747 1352.59,567.306 1352.48,566.861 1352.37,566.411 1352.27,565.956 1352.17,565.497 1352.08,565.033 1351.98,564.565 1351.89,564.092 1351.81,563.615 1351.73,563.133 1351.65,562.647 1351.57,562.156 1351.5,561.66 1351.43,561.16 1351.36,560.656 1351.3,560.147 1351.24,559.633 1351.18,559.115 1351.13,558.592 1351.08,558.064 1351.03,557.532 1350.99,556.996 1350.95,556.455 1350.91,555.909 1350.88,555.359 1350.85,554.804 1350.82,554.245 1350.79,553.681 1350.77,553.113 1350.75,552.54 1350.74,551.962 1350.73,551.38 1350.72,550.794 1350.72,550.203 1350.71,549.607 "
         id="polyline77" />
      <polyline
         fill="none"
         vector-effect="none"
         points="1377.03,588.357 1376.63,588.355 1376.22,588.348 1375.82,588.336 1375.43,588.319 1375.03,588.298 1374.64,588.271 1374.25,588.24 1373.87,588.204 1373.49,588.164 1373.11,588.118 1372.73,588.068 1372.36,588.013 1371.99,587.953 1371.63,587.888 1371.26,587.819 1370.9,587.745 1370.55,587.666 1370.2,587.582 1369.84,587.493 1369.5,587.4 1369.15,587.302 1368.81,587.199 1368.48,587.091 1368.14,586.978 1367.81,586.861 1367.48,586.739 1367.16,586.612 1366.84,586.48 1366.52,586.344 1366.2,586.203 1365.89,586.056 1365.58,585.906 1365.27,585.75 1364.97,585.59 1364.67,585.424 1364.37,585.254 1364.08,585.08 1363.79,584.9 1363.5,584.716 1363.22,584.526 1362.94,584.333 1362.66,584.134 1362.39,583.93 1362.11,583.722 1361.85,583.509 1361.58,583.291 1361.32,583.068 1361.06,582.841 1360.8,582.609 1360.55,582.372 1360.3,582.13 1360.06,581.883 1359.81,581.632 1359.57,581.375 1359.34,581.114 1359.1,580.849 1358.87,580.578 1358.64,580.303 1358.42,580.023 1358.2,579.738 1357.98,579.448 1357.76,579.154 1357.55,578.854 1357.34,578.55 "
         id="polyline78" />
      <polyline
         fill="none"
         vector-effect="none"
         points="1396.98,578.856 1396.77,579.15 1396.57,579.44 1396.36,579.725 1396.14,580.006 1395.92,580.282 1395.7,580.554 1395.48,580.82 1395.25,581.083 1395.02,581.34 1394.78,581.593 1394.55,581.841 1394.3,582.085 1394.06,582.324 1393.81,582.558 1393.56,582.788 1393.3,583.013 1393.05,583.233 1392.78,583.449 1392.52,583.66 1392.25,583.866 1391.98,584.068 1391.7,584.265 1391.42,584.458 1391.14,584.646 1390.85,584.829 1390.56,585.008 1390.27,585.182 1389.97,585.351 1389.67,585.516 1389.37,585.676 1389.07,585.831 1388.76,585.982 1388.44,586.128 1388.13,586.27 1387.8,586.407 1387.48,586.539 1387.15,586.666 1386.82,586.789 1386.49,586.908 1386.15,587.021 1385.81,587.13 1385.47,587.235 1385.12,587.334 1384.77,587.43 1384.42,587.52 1384.06,587.606 1383.7,587.687 1383.33,587.764 1382.96,587.836 1382.59,587.903 1382.22,587.965 1381.84,588.023 1381.46,588.077 1381.07,588.126 1380.68,588.17 1380.29,588.209 1379.9,588.244 1379.5,588.274 1379.09,588.299 1378.69,588.32 1378.28,588.337 1377.87,588.348 1377.45,588.355 1377.03,588.357 "
         id="polyline79" />
      <polyline
         fill="none"
         vector-effect="none"
         points="1403.45,549.607 1403.45,550.221 1403.44,550.831 1403.44,551.436 1403.42,552.035 1403.41,552.63 1403.39,553.219 1403.37,553.804 1403.35,554.383 1403.32,554.958 1403.29,555.528 1403.26,556.092 1403.22,556.652 1403.18,557.206 1403.14,557.756 1403.09,558.3 1403.05,558.84 1402.99,559.374 1402.94,559.904 1402.88,560.429 1402.82,560.948 1402.75,561.463 1402.68,561.972 1402.61,562.477 1402.54,562.976 1402.46,563.471 1402.38,563.96 1402.3,564.445 1402.21,564.924 1402.12,565.399 1402.03,565.868 1401.93,566.333 1401.83,566.792 1401.73,567.247 1401.62,567.696 1401.51,568.141 1401.4,568.58 1401.29,569.015 1401.17,569.444 1401.05,569.869 1400.92,570.288 1400.79,570.703 1400.66,571.112 1400.53,571.517 1400.39,571.916 1400.25,572.311 1400.11,572.7 1399.96,573.085 1399.81,573.464 1399.66,573.839 1399.5,574.208 1399.34,574.573 1399.18,574.932 1399.01,575.287 1398.84,575.636 1398.67,575.981 1398.49,576.32 1398.32,576.654 1398.13,576.984 1397.95,577.308 1397.76,577.628 1397.57,577.942 1397.38,578.252 1397.18,578.556 1396.98,578.856 "
         id="polyline80" />
      <polyline
         fill="none"
         vector-effect="none"
         points="1396.77,520.598 1396.98,520.909 1397.18,521.226 1397.38,521.546 1397.58,521.872 1397.77,522.202 1397.96,522.536 1398.15,522.875 1398.34,523.218 1398.52,523.566 1398.7,523.918 1398.87,524.275 1399.04,524.636 1399.21,525.001 1399.37,525.372 1399.53,525.746 1399.69,526.125 1399.85,526.509 1400,526.897 1400.15,527.29 1400.29,527.687 1400.43,528.089 1400.57,528.495 1400.71,528.905 1400.84,529.321 1400.97,529.74 1401.1,530.164 1401.22,530.593 1401.34,531.026 1401.45,531.463 1401.56,531.905 1401.67,532.352 1401.78,532.803 1401.88,533.259 1401.98,533.719 1402.08,534.183 1402.17,534.652 1402.26,535.126 1402.35,535.604 1402.43,536.086 1402.51,536.573 1402.59,537.064 1402.66,537.56 1402.73,538.061 1402.8,538.566 1402.86,539.075 1402.92,539.589 1402.98,540.107 1403.03,540.63 1403.08,541.158 1403.13,541.689 1403.17,542.226 1403.21,542.767 1403.25,543.312 1403.29,543.862 1403.32,544.416 1403.35,544.975 1403.37,545.538 1403.39,546.106 1403.41,546.678 1403.42,547.255 1403.44,547.836 1403.44,548.422 1403.45,549.012 1403.45,549.607 "
         id="polyline81" />
      <polyline
         fill="none"
         vector-effect="none"
         points="1377.03,523.602 1376.86,523.604 1376.68,523.608 1376.51,523.616 1376.34,523.626 1376.17,523.639 1376.01,523.656 1375.84,523.675 1375.68,523.697 1375.51,523.722 1375.35,523.75 1375.19,523.781 1375.03,523.815 1374.88,523.852 1374.72,523.892 1374.57,523.935 1374.42,523.981 1374.27,524.03 1374.12,524.082 1373.97,524.137 1373.83,524.194 1373.68,524.255 1373.54,524.318 1373.4,524.385 1373.26,524.455 1373.12,524.527 1372.99,524.602 1372.85,524.681 1372.72,524.762 1372.59,524.847 1372.46,524.934 1372.33,525.024 1372.21,525.117 1372.08,525.213 1371.96,525.313 1371.84,525.415 1371.71,525.52 1371.6,525.628 1371.48,525.739 1371.36,525.853 1371.25,525.969 1371.14,526.089 1371.03,526.212 1370.92,526.338 1370.81,526.466 1370.7,526.598 1370.6,526.733 1370.5,526.87 1370.39,527.011 1370.29,527.154 1370.2,527.301 1370.1,527.45 1370,527.603 1369.91,527.758 1369.82,527.916 1369.73,528.078 1369.64,528.242 1369.55,528.409 1369.47,528.579 1369.38,528.752 1369.3,528.928 1369.22,529.107 1369.14,529.289 1369.06,529.474 1368.98,529.662 "
         id="polyline82" />
      <polyline
         fill="none"
         vector-effect="none"
         points="1385.06,529.662 1384.9,529.289 1384.73,528.928 1384.56,528.579 1384.38,528.242 1384.2,527.916 1384.01,527.603 1383.82,527.301 1383.61,527.011 1383.41,526.733 1383.19,526.466 1382.98,526.212 1382.75,525.969 1382.52,525.739 1382.29,525.52 1382.04,525.313 1381.8,525.117 1381.54,524.934 1381.28,524.762 1381.02,524.602 1380.75,524.455 1380.47,524.318 1380.19,524.194 1379.9,524.082 1379.6,523.981 1379.3,523.892 1378.99,523.815 1378.68,523.75 1378.36,523.697 1378.04,523.656 1377.71,523.626 1377.37,523.608 1377.03,523.602 "
         id="polyline83" />
      <polyline
         fill="none"
         vector-effect="none"
         points="1387.57,549.607 1387.57,549.175 1387.56,548.747 1387.56,548.322 1387.56,547.902 1387.55,547.485 1387.54,547.072 1387.54,546.663 1387.53,546.258 1387.52,545.856 1387.51,545.459 1387.49,545.065 1387.48,544.675 1387.46,544.289 1387.45,543.906 1387.43,543.528 1387.41,543.153 1387.39,542.782 1387.37,542.415 1387.35,542.052 1387.32,541.693 1387.3,541.337 1387.27,540.985 1387.24,540.637 1387.21,540.293 1387.18,539.953 1387.15,539.616 1387.12,539.284 1387.09,538.955 1387.05,538.63 1387.01,538.309 1386.98,537.991 1386.94,537.678 1386.9,537.368 1386.86,537.062 1386.82,536.76 1386.77,536.462 1386.73,536.167 1386.68,535.877 1386.63,535.59 1386.59,535.307 1386.54,535.028 1386.49,534.753 1386.43,534.481 1386.38,534.213 1386.33,533.949 1386.27,533.689 1386.21,533.433 1386.15,533.181 1386.1,532.932 1386.03,532.687 1385.97,532.446 1385.91,532.209 1385.85,531.976 1385.78,531.747 1385.71,531.521 1385.64,531.299 1385.58,531.081 1385.51,530.867 1385.43,530.656 1385.36,530.45 1385.29,530.247 1385.21,530.048 1385.13,529.853 1385.06,529.662 "
         id="polyline84" />
      <polyline
         fill="none"
         vector-effect="none"
         points="1385.09,569.411 1385.17,569.219 1385.24,569.024 1385.32,568.824 1385.39,568.621 1385.46,568.414 1385.53,568.204 1385.6,567.989 1385.67,567.771 1385.74,567.549 1385.8,567.324 1385.87,567.094 1385.93,566.861 1385.99,566.625 1386.05,566.384 1386.11,566.14 1386.17,565.892 1386.23,565.64 1386.29,565.385 1386.34,565.126 1386.4,564.863 1386.45,564.597 1386.5,564.326 1386.55,564.052 1386.6,563.774 1386.65,563.493 1386.69,563.208 1386.74,562.919 1386.78,562.626 1386.83,562.33 1386.87,562.03 1386.91,561.726 1386.95,561.418 1386.99,561.107 1387.02,560.792 1387.06,560.473 1387.09,560.151 1387.13,559.824 1387.16,559.494 1387.19,559.161 1387.22,558.823 1387.25,558.482 1387.27,558.137 1387.3,557.789 1387.32,557.436 1387.35,557.08 1387.37,556.721 1387.39,556.357 1387.41,555.99 1387.43,555.619 1387.45,555.244 1387.46,554.866 1387.48,554.484 1387.49,554.098 1387.51,553.708 1387.52,553.315 1387.53,552.918 1387.54,552.517 1387.54,552.112 1387.55,551.704 1387.56,551.292 1387.56,550.876 1387.56,550.457 1387.57,550.034 1387.57,549.607 "
         id="polyline85" />
      <polyline
         fill="none"
         vector-effect="none"
         points="1377.03,575.496 1377.21,575.494 1377.38,575.49 1377.55,575.482 1377.72,575.472 1377.89,575.458 1378.05,575.442 1378.22,575.423 1378.38,575.401 1378.54,575.375 1378.7,575.347 1378.86,575.316 1379.02,575.282 1379.17,575.245 1379.33,575.204 1379.48,575.161 1379.63,575.115 1379.78,575.066 1379.93,575.014 1380.07,574.959 1380.22,574.901 1380.36,574.841 1380.5,574.777 1380.64,574.71 1380.78,574.64 1380.92,574.567 1381.05,574.492 1381.19,574.413 1381.32,574.331 1381.45,574.246 1381.58,574.159 1381.71,574.068 1381.84,573.975 1381.96,573.878 1382.09,573.779 1382.21,573.676 1382.33,573.571 1382.45,573.462 1382.57,573.351 1382.68,573.236 1382.8,573.119 1382.91,572.999 1383.02,572.875 1383.13,572.749 1383.24,572.62 1383.35,572.488 1383.45,572.353 1383.56,572.214 1383.66,572.073 1383.76,571.929 1383.86,571.782 1383.96,571.632 1384.05,571.479 1384.15,571.323 1384.24,571.164 1384.33,571.002 1384.42,570.837 1384.51,570.67 1384.6,570.499 1384.68,570.325 1384.77,570.148 1384.85,569.968 1384.93,569.786 1385.01,569.6 1385.09,569.411 "
         id="polyline86" />
      <polyline
         fill="none"
         vector-effect="none"
         points="1368.96,569.486 1369.03,569.672 1369.11,569.855 1369.19,570.036 1369.27,570.213 1369.35,570.388 1369.44,570.56 1369.52,570.729 1369.61,570.894 1369.7,571.057 1369.79,571.217 1369.88,571.374 1369.97,571.528 1370.07,571.679 1370.16,571.827 1370.26,571.973 1370.36,572.115 1370.46,572.254 1370.57,572.391 1370.67,572.524 1370.78,572.655 1370.88,572.783 1370.99,572.907 1371.1,573.029 1371.22,573.148 1371.33,573.264 1371.45,573.377 1371.56,573.487 1371.68,573.594 1371.8,573.698 1371.93,573.799 1372.05,573.898 1372.17,573.993 1372.3,574.086 1372.43,574.175 1372.56,574.262 1372.69,574.345 1372.83,574.426 1372.96,574.504 1373.1,574.579 1373.23,574.65 1373.37,574.719 1373.52,574.785 1373.66,574.849 1373.8,574.909 1373.95,574.966 1374.1,575.02 1374.25,575.072 1374.4,575.12 1374.55,575.166 1374.7,575.208 1374.86,575.248 1375.02,575.284 1375.18,575.318 1375.34,575.349 1375.5,575.377 1375.66,575.402 1375.83,575.424 1376,575.443 1376.17,575.459 1376.34,575.472 1376.51,575.482 1376.68,575.49 1376.86,575.494 1377.03,575.496 "
         id="polyline87" />
      <polyline
         fill="none"
         vector-effect="none"
         points="1366.56,549.607 1366.57,550.038 1366.57,550.466 1366.57,550.89 1366.57,551.31 1366.58,551.726 1366.59,552.138 1366.59,552.547 1366.6,552.951 1366.61,553.352 1366.62,553.749 1366.64,554.142 1366.65,554.531 1366.66,554.917 1366.68,555.298 1366.7,555.676 1366.71,556.05 1366.73,556.42 1366.75,556.786 1366.78,557.149 1366.8,557.507 1366.82,557.862 1366.85,558.213 1366.87,558.56 1366.9,558.903 1366.93,559.243 1366.96,559.578 1366.99,559.91 1367.02,560.238 1367.06,560.562 1367.09,560.882 1367.13,561.199 1367.16,561.511 1367.2,561.82 1367.24,562.125 1367.28,562.426 1367.32,562.723 1367.36,563.016 1367.41,563.306 1367.45,563.591 1367.5,563.873 1367.55,564.151 1367.6,564.425 1367.65,564.696 1367.7,564.962 1367.75,565.225 1367.8,565.483 1367.86,565.738 1367.91,565.99 1367.97,566.237 1368.03,566.48 1368.09,566.72 1368.15,566.956 1368.21,567.188 1368.27,567.416 1368.33,567.64 1368.4,567.86 1368.46,568.077 1368.53,568.29 1368.6,568.499 1368.67,568.704 1368.74,568.905 1368.81,569.102 1368.88,569.296 1368.96,569.486 "
         id="polyline88" />
      <polyline
         fill="none"
         vector-effect="none"
         points="1368.98,529.662 1368.91,529.853 1368.83,530.048 1368.76,530.247 1368.69,530.45 1368.62,530.656 1368.55,530.867 1368.48,531.081 1368.42,531.299 1368.35,531.521 1368.29,531.747 1368.22,531.976 1368.16,532.209 1368.1,532.446 1368.04,532.687 1367.98,532.932 1367.93,533.181 1367.87,533.433 1367.81,533.689 1367.76,533.949 1367.71,534.213 1367.66,534.481 1367.61,534.753 1367.56,535.028 1367.51,535.307 1367.46,535.59 1367.42,535.877 1367.37,536.167 1367.33,536.462 1367.29,536.76 1367.25,537.062 1367.21,537.368 1367.17,537.678 1367.13,537.991 1367.1,538.309 1367.06,538.63 1367.03,538.955 1367,539.284 1366.96,539.616 1366.93,539.953 1366.9,540.293 1366.88,540.637 1366.85,540.985 1366.83,541.337 1366.8,541.693 1366.78,542.052 1366.76,542.415 1366.74,542.782 1366.72,543.153 1366.7,543.528 1366.68,543.906 1366.66,544.289 1366.65,544.675 1366.64,545.065 1366.62,545.459 1366.61,545.856 1366.6,546.258 1366.59,546.663 1366.59,547.072 1366.58,547.485 1366.57,547.902 1366.57,548.322 1366.57,548.747 1366.57,549.175 1366.56,549.607 "
         id="polyline89" />
      <polyline
         fill="none"
         vector-effect="none"
         points="1437.35,523.602 1437.17,523.604 1437,523.608 1436.83,523.616 1436.65,523.626 1436.49,523.639 1436.32,523.656 1436.15,523.675 1435.99,523.697 1435.83,523.722 1435.67,523.75 1435.51,523.781 1435.35,523.815 1435.19,523.852 1435.04,523.892 1434.88,523.935 1434.73,523.981 1434.58,524.03 1434.43,524.082 1434.29,524.137 1434.14,524.194 1434,524.255 1433.85,524.318 1433.71,524.385 1433.58,524.455 1433.44,524.527 1433.3,524.602 1433.17,524.681 1433.03,524.762 1432.9,524.847 1432.77,524.934 1432.65,525.024 1432.52,525.117 1432.39,525.213 1432.27,525.313 1432.15,525.415 1432.03,525.52 1431.91,525.628 1431.79,525.739 1431.68,525.853 1431.56,525.969 1431.45,526.089 1431.34,526.212 1431.23,526.338 1431.12,526.466 1431.02,526.598 1430.91,526.733 1430.81,526.87 1430.71,527.011 1430.61,527.154 1430.51,527.301 1430.41,527.45 1430.32,527.603 1430.22,527.758 1430.13,527.916 1430.04,528.078 1429.95,528.242 1429.86,528.409 1429.78,528.579 1429.69,528.752 1429.61,528.928 1429.53,529.107 1429.45,529.289 1429.37,529.474 1429.3,529.662 "
         id="polyline90" />
      <polyline
         fill="none"
         vector-effect="none"
         points="1445.37,529.662 1445.21,529.289 1445.04,528.928 1444.87,528.579 1444.7,528.242 1444.51,527.916 1444.32,527.603 1444.13,527.301 1443.93,527.011 1443.72,526.733 1443.51,526.466 1443.29,526.212 1443.07,525.969 1442.84,525.739 1442.6,525.52 1442.36,525.313 1442.11,525.117 1441.86,524.934 1441.6,524.762 1441.33,524.602 1441.06,524.455 1440.78,524.318 1440.5,524.194 1440.21,524.082 1439.92,523.981 1439.62,523.892 1439.31,523.815 1439,523.75 1438.68,523.697 1438.35,523.656 1438.02,523.626 1437.69,523.608 1437.35,523.602 "
         id="polyline91" />
      <polyline
         fill="none"
         vector-effect="none"
         points="1447.88,549.607 1447.88,549.175 1447.88,548.747 1447.87,548.322 1447.87,547.902 1447.86,547.485 1447.86,547.072 1447.85,546.663 1447.84,546.258 1447.83,545.856 1447.82,545.459 1447.81,545.065 1447.79,544.675 1447.78,544.289 1447.76,543.906 1447.74,543.528 1447.72,543.153 1447.7,542.782 1447.68,542.415 1447.66,542.052 1447.63,541.693 1447.61,541.337 1447.58,540.985 1447.56,540.637 1447.53,540.293 1447.5,539.953 1447.47,539.616 1447.43,539.284 1447.4,538.955 1447.36,538.63 1447.33,538.309 1447.29,537.991 1447.25,537.678 1447.21,537.368 1447.17,537.062 1447.13,536.76 1447.09,536.462 1447.04,536.167 1447,535.877 1446.95,535.59 1446.9,535.307 1446.85,535.028 1446.8,534.753 1446.75,534.481 1446.69,534.213 1446.64,533.949 1446.58,533.689 1446.53,533.433 1446.47,533.181 1446.41,532.932 1446.35,532.687 1446.29,532.446 1446.22,532.209 1446.16,531.976 1446.09,531.747 1446.03,531.521 1445.96,531.299 1445.89,531.081 1445.82,530.867 1445.75,530.656 1445.67,530.45 1445.6,530.247 1445.52,530.048 1445.45,529.853 1445.37,529.662 "
         id="polyline92" />
      <polyline
         fill="none"
         vector-effect="none"
         points="1437.35,575.496 1437.52,575.494 1437.69,575.49 1437.86,575.482 1438.03,575.472 1438.2,575.458 1438.37,575.442 1438.53,575.423 1438.69,575.401 1438.85,575.375 1439.01,575.347 1439.17,575.316 1439.33,575.282 1439.49,575.245 1439.64,575.204 1439.79,575.161 1439.94,575.115 1440.09,575.066 1440.24,575.014 1440.39,574.959 1440.53,574.901 1440.67,574.841 1440.82,574.777 1440.96,574.71 1441.1,574.64 1441.23,574.567 1441.37,574.492 1441.5,574.413 1441.64,574.331 1441.77,574.246 1441.9,574.159 1442.02,574.068 1442.15,573.975 1442.28,573.878 1442.4,573.779 1442.52,573.676 1442.64,573.571 1442.76,573.462 1442.88,573.351 1442.99,573.236 1443.11,573.119 1443.22,572.999 1443.33,572.875 1443.44,572.749 1443.55,572.62 1443.66,572.488 1443.76,572.353 1443.87,572.214 1443.97,572.073 1444.07,571.929 1444.17,571.782 1444.27,571.632 1444.37,571.479 1444.46,571.323 1444.55,571.164 1444.65,571.002 1444.74,570.837 1444.82,570.67 1444.91,570.499 1445,570.325 1445.08,570.148 1445.16,569.968 1445.25,569.786 1445.33,569.6 1445.4,569.411 "
         id="polyline93" />
      <polyline
         fill="none"
         vector-effect="none"
         points="1429.27,569.486 1429.35,569.672 1429.43,569.855 1429.5,570.036 1429.58,570.213 1429.67,570.388 1429.75,570.56 1429.84,570.729 1429.92,570.894 1430.01,571.057 1430.1,571.217 1430.19,571.374 1430.29,571.528 1430.38,571.679 1430.48,571.827 1430.58,571.973 1430.67,572.115 1430.78,572.254 1430.88,572.391 1430.98,572.524 1431.09,572.655 1431.2,572.783 1431.31,572.907 1431.42,573.029 1431.53,573.148 1431.64,573.264 1431.76,573.377 1431.88,573.487 1432,573.594 1432.12,573.698 1432.24,573.799 1432.36,573.898 1432.49,573.993 1432.61,574.086 1432.74,574.175 1432.87,574.262 1433.01,574.345 1433.14,574.426 1433.27,574.504 1433.41,574.579 1433.55,574.65 1433.69,574.719 1433.83,574.785 1433.97,574.849 1434.12,574.909 1434.26,574.966 1434.41,575.02 1434.56,575.072 1434.71,575.12 1434.86,575.166 1435.02,575.208 1435.17,575.248 1435.33,575.284 1435.49,575.318 1435.65,575.349 1435.81,575.377 1435.98,575.402 1436.14,575.424 1436.31,575.443 1436.48,575.459 1436.65,575.472 1436.82,575.482 1436.99,575.49 1437.17,575.494 1437.35,575.496 "
         id="polyline94" />
      <polyline
         fill="none"
         vector-effect="none"
         points="1426.88,549.607 1426.88,550.038 1426.88,550.466 1426.88,550.89 1426.89,551.31 1426.89,551.726 1426.9,552.138 1426.91,552.547 1426.92,552.951 1426.93,553.352 1426.94,553.749 1426.95,554.142 1426.96,554.531 1426.98,554.917 1426.99,555.298 1427.01,555.676 1427.03,556.05 1427.05,556.42 1427.07,556.786 1427.09,557.149 1427.11,557.507 1427.14,557.862 1427.16,558.213 1427.19,558.56 1427.22,558.903 1427.24,559.243 1427.27,559.578 1427.3,559.91 1427.34,560.238 1427.37,560.562 1427.4,560.882 1427.44,561.199 1427.48,561.511 1427.51,561.82 1427.55,562.125 1427.59,562.426 1427.64,562.723 1427.68,563.016 1427.72,563.306 1427.77,563.591 1427.81,563.873 1427.86,564.151 1427.91,564.425 1427.96,564.696 1428.01,564.962 1428.06,565.225 1428.12,565.483 1428.17,565.738 1428.23,565.99 1428.28,566.237 1428.34,566.48 1428.4,566.72 1428.46,566.956 1428.52,567.188 1428.58,567.416 1428.65,567.64 1428.71,567.86 1428.78,568.077 1428.84,568.29 1428.91,568.499 1428.98,568.704 1429.05,568.905 1429.13,569.102 1429.2,569.296 1429.27,569.486 "
         id="polyline95" />
      <polyline
         fill="none"
         vector-effect="none"
         points="1429.3,529.662 1429.22,529.853 1429.15,530.048 1429.08,530.247 1429,530.45 1428.93,530.656 1428.86,530.867 1428.8,531.081 1428.73,531.299 1428.66,531.521 1428.6,531.747 1428.54,531.976 1428.48,532.209 1428.41,532.446 1428.35,532.687 1428.3,532.932 1428.24,533.181 1428.18,533.433 1428.13,533.689 1428.07,533.949 1428.02,534.213 1427.97,534.481 1427.92,534.753 1427.87,535.028 1427.82,535.307 1427.78,535.59 1427.73,535.877 1427.69,536.167 1427.64,536.462 1427.6,536.76 1427.56,537.062 1427.52,537.368 1427.48,537.678 1427.45,537.991 1427.41,538.309 1427.38,538.63 1427.34,538.955 1427.31,539.284 1427.28,539.616 1427.25,539.953 1427.22,540.293 1427.19,540.637 1427.16,540.985 1427.14,541.337 1427.11,541.693 1427.09,542.052 1427.07,542.415 1427.05,542.782 1427.03,543.153 1427.01,543.528 1426.99,543.906 1426.98,544.289 1426.96,544.675 1426.95,545.065 1426.94,545.459 1426.93,545.856 1426.92,546.258 1426.91,546.663 1426.9,547.072 1426.89,547.485 1426.89,547.902 1426.88,548.322 1426.88,548.747 1426.88,549.175 1426.88,549.607 "
         id="polyline96" />
      <polyline
         fill="none"
         vector-effect="none"
         points="1445.4,569.411 1445.48,569.219 1445.56,569.024 1445.63,568.824 1445.7,568.621 1445.78,568.414 1445.85,568.204 1445.92,567.989 1445.98,567.771 1446.05,567.549 1446.12,567.324 1446.18,567.094 1446.25,566.861 1446.31,566.625 1446.37,566.384 1446.43,566.14 1446.49,565.892 1446.54,565.64 1446.6,565.385 1446.66,565.126 1446.71,564.863 1446.76,564.597 1446.81,564.326 1446.86,564.052 1446.91,563.774 1446.96,563.493 1447.01,563.208 1447.05,562.919 1447.1,562.626 1447.14,562.33 1447.18,562.03 1447.22,561.726 1447.26,561.418 1447.3,561.107 1447.34,560.792 1447.37,560.473 1447.41,560.151 1447.44,559.824 1447.47,559.494 1447.5,559.161 1447.53,558.823 1447.56,558.482 1447.59,558.137 1447.61,557.789 1447.64,557.436 1447.66,557.08 1447.68,556.721 1447.71,556.357 1447.73,555.99 1447.74,555.619 1447.76,555.244 1447.78,554.866 1447.79,554.484 1447.81,554.098 1447.82,553.708 1447.83,553.315 1447.84,552.918 1447.85,552.517 1447.86,552.112 1447.86,551.704 1447.87,551.292 1447.87,550.876 1447.88,550.457 1447.88,550.034 1447.88,549.607 "
         id="polyline97" />
      <polyline
         fill="none"
         vector-effect="none"
         points="1434.34,787.929 1431.93,787.929 "
         id="polyline98" />
      <polyline
         fill="none"
         vector-effect="none"
         points="1439.99,789.054 1439.87,788.985 1439.75,788.918 1439.63,788.853 1439.5,788.79 1439.37,788.73 1439.23,788.672 1439.09,788.616 1438.95,788.562 1438.8,788.51 1438.65,788.461 1438.5,788.414 1438.34,788.369 1438.18,788.326 1438.01,788.285 1437.84,788.247 1437.66,788.211 1437.48,788.177 1437.3,788.145 1437.11,788.115 1436.92,788.088 1436.73,788.062 1436.53,788.039 1436.33,788.018 1436.12,788 1435.91,787.983 1435.7,787.969 1435.48,787.957 1435.26,787.947 1435.04,787.939 1434.81,787.934 1434.57,787.931 1434.34,787.929 "
         id="polyline99" />
      <polyline
         fill="none"
         vector-effect="none"
         points="1441.82,792.836 1441.82,792.672 1441.81,792.51 1441.8,792.351 1441.79,792.196 1441.77,792.043 1441.75,791.894 1441.73,791.747 1441.7,791.603 1441.67,791.463 1441.64,791.325 1441.6,791.19 1441.56,791.059 1441.52,790.93 1441.47,790.804 1441.42,790.682 1441.36,790.562 1441.3,790.445 1441.24,790.331 1441.17,790.221 1441.1,790.113 1441.03,790.008 1440.95,789.907 1440.87,789.808 1440.79,789.712 1440.7,789.619 1440.61,789.53 1440.52,789.443 1440.42,789.359 1440.32,789.278 1440.21,789.201 1440.1,789.126 1439.99,789.054 "
         id="polyline100" />
      <polyline
         fill="none"
         vector-effect="none"
         points="1434.48,798.021 1434.72,798.02 1434.94,798.016 1435.17,798.01 1435.39,798.002 1435.61,797.991 1435.82,797.977 1436.03,797.961 1436.24,797.943 1436.44,797.922 1436.64,797.899 1436.84,797.873 1437.03,797.845 1437.21,797.815 1437.4,797.782 1437.58,797.746 1437.75,797.709 1437.92,797.668 1438.09,797.625 1438.25,797.58 1438.41,797.533 1438.57,797.482 1438.72,797.43 1438.87,797.375 1439.01,797.318 1439.15,797.258 1439.29,797.195 1439.42,797.131 1439.55,797.063 1439.68,796.994 1439.8,796.922 1439.92,796.847 1440.03,796.77 "
         id="polyline101" />
      <polyline
         fill="none"
         vector-effect="none"
         points="1431.93,798.021 1434.48,798.021 "
         id="polyline102" />
      <polyline
         fill="none"
         vector-effect="none"
         points="1431.93,787.929 1431.93,798.021 "
         id="polyline103" />
      <polyline
         fill="none"
         vector-effect="none"
         points="1440.03,796.77 1440.14,796.69 1440.25,796.608 1440.35,796.523 1440.45,796.435 1440.55,796.344 1440.64,796.251 1440.73,796.154 1440.81,796.055 1440.9,795.953 1440.97,795.848 1441.05,795.741 1441.12,795.63 1441.19,795.517 1441.25,795.401 1441.31,795.283 1441.37,795.161 1441.43,795.037 1441.48,794.91 1441.52,794.78 1441.57,794.647 1441.61,794.511 1441.64,794.373 1441.68,794.232 1441.71,794.088 1441.73,793.941 1441.76,793.792 1441.77,793.64 1441.79,793.485 1441.8,793.327 1441.81,793.166 1441.82,793.003 1441.82,792.836 "
         id="polyline104" />
      <polyline
         fill="none"
         vector-effect="none"
         points="1358.96,787.447 1358.66,787.45 1358.38,787.459 1358.09,787.475 1357.81,787.497 1357.54,787.525 1357.27,787.559 1357,787.599 1356.74,787.646 1356.48,787.699 1356.23,787.758 1355.98,787.823 1355.74,787.894 1355.5,787.972 1355.27,788.056 1355.04,788.146 1354.81,788.242 1354.59,788.345 1354.38,788.454 1354.16,788.568 1353.96,788.69 1353.75,788.817 1353.56,788.951 1353.36,789.09 1353.18,789.236 1352.99,789.389 1352.81,789.547 1352.64,789.712 1352.47,789.883 1352.3,790.06 1352.14,790.243 1351.98,790.433 1351.83,790.628 "
         id="polyline105" />
      <polyline
         fill="none"
         vector-effect="none"
         points="1349.43,800.066 1349.43,800.454 1349.44,800.837 1349.45,801.213 1349.47,801.584 1349.49,801.948 1349.51,802.306 1349.54,802.658 1349.58,803.005 1349.62,803.345 1349.66,803.679 1349.71,804.007 1349.76,804.329 1349.82,804.645 1349.88,804.955 1349.95,805.259 1350.02,805.556 1350.1,805.848 1350.18,806.134 1350.27,806.414 1350.36,806.687 1350.45,806.955 1350.55,807.216 1350.66,807.472 1350.77,807.721 1350.88,807.965 1351,808.202 1351.12,808.434 1351.25,808.659 1351.38,808.878 1351.52,809.091 1351.66,809.298 1351.81,809.499 "
         id="polyline106" />
      <polyline
         fill="none"
         vector-effect="none"
         points="1351.81,809.499 1351.96,809.694 1352.11,809.883 1352.27,810.066 1352.44,810.242 1352.6,810.412 1352.78,810.576 1352.96,810.734 1353.14,810.886 1353.33,811.031 1353.52,811.171 1353.72,811.304 1353.92,811.431 1354.12,811.551 1354.33,811.666 1354.55,811.774 1354.77,811.876 1354.99,811.972 1355.22,812.062 1355.46,812.145 1355.69,812.223 1355.94,812.294 1356.18,812.359 1356.43,812.418 1356.69,812.47 1356.95,812.517 1357.22,812.557 1357.49,812.591 1357.76,812.619 1358.04,812.641 1358.33,812.656 1358.61,812.665 1358.91,812.668 "
         id="polyline107" />
      <polyline
         fill="none"
         vector-effect="none"
         points="1351.83,790.628 1351.68,790.83 1351.54,791.038 1351.4,791.252 1351.27,791.472 1351.14,791.698 1351.01,791.929 1350.89,792.167 1350.78,792.411 1350.67,792.661 1350.56,792.917 1350.46,793.179 1350.37,793.447 1350.28,793.721 1350.19,794 1350.11,794.286 1350.03,794.578 1349.96,794.876 1349.89,795.18 1349.83,795.49 1349.77,795.806 1349.71,796.128 1349.66,796.456 1349.62,796.79 1349.58,797.13 1349.54,797.476 1349.51,797.828 1349.49,798.186 1349.47,798.55 1349.45,798.92 1349.44,799.296 1349.43,799.678 1349.43,800.066 "
         id="polyline108" />
      <polyline
         fill="none"
         vector-effect="none"
         points="1358.91,812.668 1359.2,812.665 1359.49,812.656 1359.78,812.641 1360.06,812.619 1360.33,812.592 1360.6,812.558 1360.87,812.518 1361.13,812.472 1361.39,812.419 1361.64,812.361 1361.89,812.296 1362.13,812.225 1362.37,812.148 1362.6,812.065 1362.83,811.976 1363.05,811.881 1363.27,811.779 1363.49,811.672 1363.7,811.558 1363.91,811.438 1364.11,811.312 1364.3,811.179 1364.5,811.041 1364.68,810.896 1364.87,810.745 1365.04,810.589 1365.22,810.425 1365.39,810.256 1365.55,810.081 1365.71,809.899 1365.87,809.712 1366.02,809.518 1366.16,809.318 1366.3,809.112 1366.44,808.899 1366.57,808.681 1366.7,808.456 1366.82,808.226 1366.94,807.989 1367.05,807.746 1367.16,807.496 1367.27,807.241 1367.37,806.979 1367.46,806.712 1367.55,806.438 1367.64,806.158 1367.72,805.872 1367.79,805.58 1367.87,805.281 1367.93,804.976 1368,804.666 1368.05,804.349 1368.11,804.026 1368.15,803.697 1368.2,803.361 1368.24,803.02 1368.27,802.672 1368.3,802.318 1368.33,801.958 1368.35,801.592 1368.37,801.22 1368.38,800.841 1368.38,800.457 1368.39,800.066 "
         id="polyline109" />
      <polyline
         fill="none"
         vector-effect="none"
         points="1368.39,800.066 1368.38,799.675 1368.38,799.29 1368.37,798.911 1368.35,798.538 1368.33,798.171 1368.3,797.811 1368.27,797.456 1368.24,797.108 1368.2,796.766 1368.16,796.431 1368.11,796.101 1368.05,795.777 1368,795.46 1367.94,795.149 1367.87,794.844 1367.8,794.545 1367.72,794.252 1367.64,793.966 1367.56,793.686 1367.47,793.411 1367.37,793.143 1367.27,792.881 1367.17,792.626 1367.06,792.376 1366.95,792.133 1366.83,791.896 1366.71,791.665 1366.58,791.44 1366.45,791.221 1366.31,791.008 1366.17,790.802 1366.03,790.602 1365.88,790.408 1365.73,790.22 1365.57,790.038 1365.4,789.862 1365.23,789.693 1365.06,789.53 1364.88,789.372 1364.7,789.221 1364.52,789.077 1364.33,788.938 1364.13,788.806 1363.93,788.679 1363.72,788.559 1363.52,788.445 1363.3,788.337 1363.08,788.236 1362.86,788.14 1362.63,788.051 1362.4,787.968 1362.16,787.891 1361.92,787.82 1361.67,787.755 1361.42,787.697 1361.17,787.644 1360.91,787.598 1360.64,787.558 1360.37,787.524 1360.1,787.496 1359.82,787.475 1359.54,787.459 1359.25,787.45 1358.96,787.447 "
         id="polyline110" />
    </g>
    <g
       fill="none"
       stroke="#000000"
       stroke-opacity="1"
       stroke-width="1"
       stroke-linecap="square"
       stroke-linejoin="bevel"
       transform="matrix(1,0,0,1,0,0)"
       font-family="Arial"
       font-size="12"
       font-weight="400"
       font-style="normal"
       id="g133" />
  </g>
</svg>
