<?xml version="1.0" encoding="UTF-8" standalone="no"?>
<!-- Generator: Fusion 360, Shaper Origin Export Add-In, Version 1.7.0  -->

<svg
   shaper:fusionaddin="version:1.7.0"
   width="1.63cm"
   height="6.5496704cm"
   version="1.1"
   x="0cm"
   y="0cm"
   viewBox="0 0 1.63 6.5496704"
   enable-background="new 0 0 1.63 6.5496704"
   xml:space="preserve"
   id="svg34"
   sodipodi:docname="Lolly_nebarevne.svg"
   inkscape:version="1.3.2 (091e20e, 2023-11-25, custom)"
   xmlns:inkscape="http://www.inkscape.org/namespaces/inkscape"
   xmlns:sodipodi="http://sodipodi.sourceforge.net/DTD/sodipodi-0.dtd"
   xmlns="http://www.w3.org/2000/svg"
   xmlns:svg="http://www.w3.org/2000/svg"
   xmlns:shaper="http://www.shapertools.com/namespaces/shaper"><defs
     id="defs34" /><sodipodi:namedview
     id="namedview34"
     pagecolor="#ffffff"
     bordercolor="#000000"
     borderopacity="0.25"
     inkscape:showpageshadow="2"
     inkscape:pageopacity="0.0"
     inkscape:pagecheckerboard="0"
     inkscape:deskcolor="#d1d1d1"
     inkscape:document-units="cm"
     inkscape:zoom="3.3003888"
     inkscape:cx="-9.2413354"
     inkscape:cy="125.59126"
     inkscape:window-width="1920"
     inkscape:window-height="1094"
     inkscape:window-x="-11"
     inkscape:window-y="-11"
     inkscape:window-maximized="1"
     inkscape:current-layer="svg34" /><path
     d="M0.35,-0.7617836 L0.35,-0.7617836 0.3521075,-0.7623474 0.3541395,-0.7618587 0.356096,-0.7603173 0.3579768,-0.7577243 0.359782,-0.7540836 0.3615118,-0.7494027 0.3631665,-0.7436947 0.3647466,-0.736979 0.3662531,-0.7292836 0.3676872,-0.7206457 0.3690504,-0.7111114 0.3703449,-0.7007353 0.3715727,-0.6895795 0.3727363,-0.6777118 0.3748823,-0.6521342 0.3768064,-0.6246173 0.3785342,-0.5957938 0.3815052,-0.5366216 0.3827985,-0.5072898 0.3839942,-0.4786263 0.3851123,-0.4508579 0.3861711,-0.4240964 0.3871869,-0.3983415 0.3881741,-0.3734815 0.3901114,-0.3254541 0.3920621,-0.2770563 0.3930519,-0.2516826 0.3940418,-0.2252758 0.3959192,-0.1708192 0.396713,-0.1449096 0.3970443,-0.1330875 0.3973226,-0.1223459 0.397546,-0.1128648 0.3977172,-0.1047383 0.3978433,-0.0979812 0.3979337,-0.0925598 0.3979984,-0.0884182 0.3980469,-0.0854897 0.3980878,-0.0837063 0.398127,-0.0830135 A0.071217,0.071217 5.6850388 0,1 0.34,-0.02 L0.2382111,-0.0014929 A0.01,0.01 259.6951535 0,0 0.23,0.0083458 L0.23,2.4784894 0.2704193,2.4952263 A0.01,0.01 292.4936411 0,1 0.2765926,2.5043353 L0.2822545,2.9388241 0.815,2.9388241 A1.4036345,1.4036345 54.5047491 0,1 -0.815,2.9388241 L-0.2822545,2.9388241 -0.2765926,2.5043353 A0.01,0.01 180.7465801 0,1 -0.2704193,2.4952263 L-0.23,2.4784894 -0.23,0.0083458 A0.01,0.01 0 0,0 -0.2382111,-0.0014929 L-0.34,-0.02 A0.071217,0.071217 100.3048465 0,1 -0.398127,-0.0830135 L-0.398127,-0.0830135 -0.3980878,-0.0837063 -0.3980469,-0.0854897 -0.3979984,-0.0884182 -0.3979337,-0.0925598 -0.3978433,-0.0979812 -0.3977172,-0.1047383 -0.397546,-0.1128648 -0.3973226,-0.1223459 -0.3970443,-0.1330875 -0.396713,-0.1449096 -0.3959192,-0.1708192 -0.3940418,-0.2252758 -0.3930519,-0.2516826 -0.3920621,-0.2770563 -0.3901114,-0.3254541 -0.3881741,-0.3734815 -0.3871869,-0.3983415 -0.3861711,-0.4240964 -0.3851123,-0.4508579 -0.3839942,-0.4786263 -0.3827985,-0.5072898 -0.3815052,-0.5366216 -0.3785342,-0.5957938 -0.3768064,-0.6246173 -0.3748823,-0.6521342 -0.3727363,-0.6777118 -0.3715727,-0.6895795 -0.3703449,-0.7007353 -0.3690504,-0.7111114 -0.3676872,-0.7206457 -0.3662531,-0.7292836 -0.3647466,-0.736979 -0.3631665,-0.7436947 -0.3615118,-0.7494027 -0.359782,-0.7540836 -0.3579768,-0.7577243 -0.356096,-0.7603173 -0.3541395,-0.7618587 -0.3521075,-0.7623474 -0.35,-0.7617836 -0.3487323,-3.0937116 0,-3.35 0.3487323,-3.0937116 0.35,-0.7617836 A0.8097536,0.8097536 295.6058599 0,0 -0.3502877,-0.761605"
     transform="matrix(1,0,0,-1,0.815,3.1996704)"
     stroke="rgb(100,100,100)"
     stroke-width="0.0010cm"
     stroke-linecap="round"
     stroke-linejoin="round"
     fill="none"
     id="path1"
     style="stroke-width:0.01322917;stroke-dasharray:none" /><path
     d="M-0.05,0.15 a0.05,0.05 0 1,1 0.1,0 a0.05,0.05 0 1,1 -0.1,0z"
     transform="matrix(1,0,0,-1,0.815,3.1996704)"
     stroke="rgb(100,100,100)"
     stroke-width="0.0010cm"
     stroke-linecap="round"
     stroke-linejoin="round"
     fill="none"
     id="path2"
     style="stroke-width:0.01322917;stroke-dasharray:none" /><path
     d="M-0.2632597,-0.2211615 L-0.2632597,-0.2895453 -0.1666722,-0.289687 -0.0701554,-0.2898996 -0.0699428,-0.3527559 -0.0697479,-0.3972142 -0.0694467,-0.4156831 -0.040605,-0.4078881 -0.019213,-0.402219 -0.013689,-0.4009722 -0.0116926,-0.4008017 -0.0036141,-0.4392807 0.0037646,-0.4752885 0.0051254,-0.4810849 0.0056691,-0.4822242 0.01559,-0.4369422 0.0255818,-0.3908098 0.0269482,-0.3899362 0.0310384,-0.3884979 0.0492504,-0.3833691 0.0726356,-0.3770622 0.0727773,-0.333481 0.0729899,-0.2898997 0.1681603,-0.2896871 0.2632597,-0.2895454 0.2632597,-0.2211616 0.2632597,-0.1527778 0.0000001,-0.1527778 -0.2632595,-0.1527778 -0.2632595,-0.2211616z"
     transform="matrix(1,0,0,-1,0.815,3.1996704)"
     stroke="rgb(100,100,100)"
     stroke-width="0.0010cm"
     stroke-linecap="round"
     stroke-linejoin="round"
     fill="none"
     id="path3"
     style="stroke-width:0.0079375;stroke-dasharray:none" /><path
     d="M0.2143639,-0.3404948 L0.1665308,-0.3536755 0.1663182,-0.3694073 0.1663713,-0.382836 0.1667168,-0.3848135 0.1673812,-0.3852099 0.1828295,-0.3813124 0.198207,-0.3774149 0.1986079,-0.3776697 0.1989167,-0.3788156 0.1993142,-0.3860692 0.1996243,-0.4364446 0.1998368,-0.4954742 0.2161356,-0.4910807 0.2340641,-0.4861911 0.2356231,-0.4858367 0.2356231,-0.4266653 0.2358092,-0.3797002 0.2360716,-0.3700627 0.2364735,-0.3670687 0.2501503,-0.3628877 0.2629058,-0.3593445 0.2631184,-0.3431876 0.2630741,-0.3318316 0.262764,-0.3271723 0.214364,-0.3404947z"
     transform="matrix(1,0,0,-1,0.815,3.1996704)"
     stroke="rgb(100,100,100)"
     stroke-width="0.0010cm"
     stroke-linecap="round"
     stroke-linejoin="round"
     fill="none"
     id="path4"
     style="stroke-width:0.0079375;stroke-dasharray:none" /><path
     d="M0.1179886,-0.3650155 L0.1109846,-0.3669602 0.1041701,-0.3698243 0.0976346,-0.373537 0.0914677,-0.3780279 0.0857593,-0.3832263 0.080599,-0.3890616 0.0760764,-0.3954633 0.0722813,-0.4023608 0.0700003,-0.4078494 0.0685432,-0.4133181 0.0678567,-0.4190128 0.0678877,-0.4251791 0.0685461,-0.4314526 0.0697933,-0.4370078 0.0716533,-0.4418771 0.0741503,-0.4460928 0.0773083,-0.4496873 0.0811515,-0.4526931 0.0857038,-0.4551425 0.0909894,-0.4570678 0.0967914,-0.4582637 0.1055165,-0.459619 0.1178358,-0.461726 0.1222059,-0.4629187 0.1255711,-0.4643048 0.1280727,-0.46596 0.1298517,-0.4679599 0.1310495,-0.4703799 0.1318071,-0.4732957 0.1319633,-0.4766939 0.1311428,-0.4800189 0.1293258,-0.4833307 0.1264923,-0.486689 0.1242723,-0.4887474 0.1223379,-0.4901879 0.120284,-0.4912431 0.1177052,-0.4921455 0.1140889,-0.4931332 0.1111503,-0.4935628 0.1084774,-0.4934609 0.1056583,-0.4928542 0.1026876,-0.4914081 0.0994843,-0.4888326 0.0964803,-0.4855397 0.0941075,-0.4819411 0.0924865,-0.4792571 0.0913438,-0.478327 0.0759663,-0.4886732 0.0612975,-0.4987359 0.064132,-0.5041924 0.0660076,-0.5074433 0.0681215,-0.5104417 0.0704662,-0.513181 0.0730343,-0.5156546 0.0758184,-0.5178558 0.0788108,-0.519778 0.0820042,-0.5214145 0.0853912,-0.5227587 0.0881496,-0.5235261 0.0913947,-0.5240742 0.0988199,-0.5245126 0.1066171,-0.5240742 0.1137367,-0.5227587 0.1186606,-0.5212506 0.1234546,-0.5193962 0.1281002,-0.5172148 0.1325788,-0.5147256 0.1368717,-0.5119479 0.1409605,-0.5089008 0.1448265,-0.5056035 0.1484512,-0.5020753 0.1518159,-0.4983353 0.1549022,-0.4944028 0.1576913,-0.4902968 0.1601648,-0.4860368 0.162304,-0.4816418 0.1640904,-0.477131 0.1655054,-0.4725238 0.1665304,-0.4678392 0.1673837,-0.4608926 0.1674439,-0.4545588 0.1667086,-0.448833 0.1651752,-0.44371 0.1628412,-0.439185 0.1597043,-0.4352528 0.1557617,-0.4319086 0.1510112,-0.4291474 0.1466487,-0.4273592 0.1416217,-0.4258965 0.1351067,-0.4245534 0.1262796,-0.423124 0.1174958,-0.4216646 0.1115488,-0.4203248 0.1076347,-0.4188788 0.1049496,-0.4171005 0.1036412,-0.4156781 0.1027307,-0.4140916 0.1021954,-0.4123764 0.1020132,-0.4105678 0.1021614,-0.408701 0.1026177,-0.4068114 0.104365,-0.4031049 0.1070755,-0.3997305 0.11057,-0.3969707 0.114669,-0.3951078 0.1168892,-0.3946009 0.1191933,-0.394424 0.1211001,-0.3945813 0.1229812,-0.3950441 0.1265897,-0.3968334 0.129866,-0.3996857 0.1326574,-0.4034946 0.1341455,-0.405532 0.1347501,-0.405966 0.1352085,-0.4059749 0.1633415,-0.3868416 0.1628809,-0.3852826 0.1613573,-0.3820228 0.1587143,-0.3779459 0.155201,-0.3739621 0.1512227,-0.3704831 0.1471845,-0.3679209 0.1441687,-0.3666131 0.1408489,-0.3655636 0.1335432,-0.3642626 0.1257592,-0.3640644 0.1218415,-0.3643934 0.1179885,-0.3650155z"
     transform="matrix(1,0,0,-1,0.815,3.1996704)"
     stroke="rgb(100,100,100)"
     stroke-width="0.0010cm"
     stroke-linecap="round"
     stroke-linejoin="round"
     fill="none"
     id="path5"
     style="stroke-width:0.0079375;stroke-dasharray:none" /><path
     d="M-0.1104053,-0.4274451 L-0.1153604,-0.4285113 -0.12015,-0.4298991 -0.1247681,-0.4316028 -0.1292086,-0.4336169 -0.1334657,-0.4359358 -0.1375332,-0.4385539 -0.1414052,-0.4414655 -0.1450755,-0.4446651 -0.1485383,-0.448147 -0.1517874,-0.4519056 -0.1548168,-0.4559354 -0.1576206,-0.4602308 -0.1601927,-0.464786 -0.1625271,-0.4695956 -0.1646178,-0.4746539 -0.1664586,-0.4799552 -0.1688027,-0.4886578 -0.1705688,-0.4979027 -0.1717502,-0.5075079 -0.1723404,-0.5172917 -0.1723326,-0.5270722 -0.1717203,-0.5366674 -0.1704968,-0.5458957 -0.1686554,-0.554575 -0.1667332,-0.5604589 -0.1639607,-0.5665155 -0.1606832,-0.5720938 -0.1572463,-0.5765428 -0.1545864,-0.5791592 -0.1518452,-0.5813837 -0.1489876,-0.5832294 -0.1459789,-0.5847098 -0.1427843,-0.5858381 -0.1393687,-0.5866276 -0.1356973,-0.5870915 -0.1317353,-0.5872432 -0.126654,-0.5870524 -0.1216514,-0.5864607 -0.1167433,-0.5854791 -0.1119454,-0.5841186 -0.1072733,-0.5823902 -0.1027427,-0.5803049 -0.0983692,-0.5778738 -0.0941686,-0.5751078 -0.0901564,-0.5720179 -0.0863485,-0.5686151 -0.0827604,-0.5649105 -0.0794079,-0.560915 -0.0763065,-0.5566397 -0.0734721,-0.5520955 -0.0709201,-0.5472935 -0.0686665,-0.5422446 -0.0649151,-0.5316715 -0.0623596,-0.5211714 -0.0608138,-0.509728 -0.0600919,-0.4963248 -0.0601628,-0.4810547 -0.0606051,-0.4745893 -0.0613498,-0.4687144 -0.0624199,-0.4632879 -0.0638389,-0.4581679 -0.0656298,-0.4532123 -0.0678161,-0.4482791 -0.0712796,-0.4421463 -0.075248,-0.4370317 -0.0797345,-0.4329301 -0.0847526,-0.4298368 -0.0903154,-0.4277465 -0.0964363,-0.4266545 -0.1031286,-0.4265557 -0.1104054,-0.427445z"
     transform="matrix(1,0,0,-1,0.815,3.1996704)"
     stroke="rgb(100,100,100)"
     stroke-width="0.0010cm"
     stroke-linecap="round"
     stroke-linejoin="round"
     fill="none"
     id="path6"
     style="stroke-width:0.0079375;stroke-dasharray:none" /><path
     d="M-0.1077834,-0.4570662 L-0.106067,-0.4580697 -0.1045757,-0.4595664 -0.1032953,-0.4615979 -0.1022117,-0.4642058 -0.1013108,-0.4674315 -0.1005785,-0.4713165 -0.0995631,-0.4812308 -0.098963,-0.4977443 -0.0991202,-0.5147495 -0.0999418,-0.5295224 -0.1005727,-0.5352206 -0.1013347,-0.5393393 -0.1023918,-0.5428676 -0.1036522,-0.5460149 -0.1051203,-0.5487851 -0.1068001,-0.5511824 -0.1086959,-0.553211 -0.1108117,-0.5548751 -0.1131517,-0.5561787 -0.1157201,-0.5571261 -0.1192228,-0.5578175 -0.1222562,-0.5576875 -0.1248495,-0.5566989 -0.1270318,-0.5548142 -0.128832,-0.5519961 -0.1302793,-0.5482072 -0.1314028,-0.5434102 -0.1322314,-0.5375677 -0.1327828,-0.5244977 -0.1327098,-0.5057143 -0.1321318,-0.4876219 -0.1316908,-0.4808361 -0.1311685,-0.4766247 -0.1302025,-0.4728227 -0.1290082,-0.4693943 -0.1275897,-0.466348 -0.1259511,-0.463692 -0.1240966,-0.4614346 -0.1220303,-0.4595841 -0.1197565,-0.4581488 -0.1172791,-0.4571371 -0.11447,-0.4564185 -0.1120795,-0.4561715 -0.1099148,-0.4563897 -0.1077834,-0.4570662z"
     transform="matrix(1,0,0,-1,0.815,3.1996704)"
     stroke="rgb(100,100,100)"
     stroke-width="0.0010cm"
     stroke-linecap="round"
     stroke-linejoin="round"
     fill="none"
     id="path7"
     style="stroke-width:0.0079375;stroke-dasharray:none" /><path
     d="M0.0391876,-0.4277284 L0.0258652,-0.4879627 0.0124719,-0.5478427 0.0116448,-0.5486797 0.0096285,-0.5495966 0.0003542,-0.5523071 -0.0112675,-0.5551416 -0.0233144,-0.500718 -0.0357864,-0.4447354 -0.0359156,-0.4455548 -0.0360356,-0.4486196 -0.0362382,-0.4606621 -0.0364242,-0.5026313 -0.0364951,-0.5622988 -0.039117,-0.5630074 -0.0556284,-0.5675427 -0.0694468,-0.5713694 -0.0696594,-0.6257221 -0.0698011,-0.6800039 0.0014172,-0.6800039 0.0726355,-0.6800039 0.0726355,-0.6062345 0.0724583,-0.5432276 0.0720974,-0.5343751 0.0718081,-0.5330743 0.0714308,-0.5328903 0.0407467,-0.5411105 0.0404444,-0.5372806 0.0401886,-0.5260962 0.0398963,-0.483498 0.0395951,-0.4433891 0.039398,-0.4315791 0.0392937,-0.4285434 0.0391877,-0.4277282z"
     transform="matrix(1,0,0,-1,0.815,3.1996704)"
     stroke="rgb(100,100,100)"
     stroke-width="0.0010cm"
     stroke-linecap="round"
     stroke-linejoin="round"
     fill="none"
     id="path8"
     style="stroke-width:0.0079375;stroke-dasharray:none" /><path
     d="M-0.2171982,-0.4573513 L-0.2629055,-0.4698942 -0.2631181,-0.485626 -0.2630561,-0.4987358 -0.2627494,-0.5009127 -0.2621969,-0.5014287 -0.2504866,-0.4984701 -0.233993,-0.4939171 -0.2336157,-0.4940436 -0.2333264,-0.4950753 -0.2329654,-0.5021727 -0.2327883,-0.5527342 -0.2326111,-0.5981137 -0.2323697,-0.6086292 -0.2320088,-0.6119764 -0.2139119,-0.6072728 -0.1965059,-0.6021972 -0.1960453,-0.5844281 -0.1957972,-0.5425297 -0.1955847,-0.4835001 -0.1822622,-0.4799569 -0.1690107,-0.4764137 -0.1690107,-0.4605401 -0.1691878,-0.4471734 -0.1695488,-0.4451837 -0.169838,-0.4448652 -0.1702153,-0.4448083 -0.2171982,-0.4573513z"
     transform="matrix(1,0,0,-1,0.815,3.1996704)"
     stroke="rgb(100,100,100)"
     stroke-width="0.0010cm"
     stroke-linecap="round"
     stroke-linejoin="round"
     fill="none"
     id="path9"
     style="stroke-width:0.0079375;stroke-dasharray:none" /><path
     d="M0.2067106,-0.5945431 L0.2024765,-0.5960047 0.1974983,-0.5981572 0.1922278,-0.6014357 0.1870105,-0.6058902 0.1824309,-0.6109426 0.1790737,-0.6160149 0.176848,-0.6210263 0.1752725,-0.6262769 0.1743464,-0.6316803 0.1740689,-0.6371501 0.1744392,-0.6426 0.1754563,-0.6479436 0.1771195,-0.6530945 0.179428,-0.6579664 0.1828871,-0.6630598 0.1873293,-0.6679405 0.1923031,-0.6721569 0.1973566,-0.6752572 0.2024101,-0.677464 0.2071712,-0.6789333 0.2119856,-0.6797516 0.2171985,-0.6800051 0.2241472,-0.6794745 0.230708,-0.6779656 0.2368188,-0.6755232 0.2424172,-0.6721924 0.247441,-0.6680177 0.2518277,-0.6630442 0.2555153,-0.6573167 0.2584414,-0.65088 0.2592939,-0.6481982 0.2597878,-0.6454766 0.2600712,-0.6367781 0.2598764,-0.6298234 0.2590969,-0.6245629 0.2574404,-0.6198471 0.2546147,-0.6145268 0.2523336,-0.6110816 0.2496664,-0.607839 0.2466587,-0.6048356 0.2433562,-0.6021079 0.2398046,-0.5996925 0.2360495,-0.5976258 0.2321366,-0.5959444 0.2281116,-0.5946849 0.2233128,-0.5939154 0.2174643,-0.5936308 0.2115892,-0.5938379 0.2067106,-0.5945432z"
     transform="matrix(1,0,0,-1,0.815,3.1996704)"
     stroke="rgb(100,100,100)"
     stroke-width="0.0010cm"
     stroke-linecap="round"
     stroke-linejoin="round"
     fill="none"
     id="path10"
     style="stroke-width:0.00529167;stroke-dasharray:none" /><path
     d="M0.2256313,-0.6009917 L0.2315522,-0.6029625 0.2369773,-0.6058758 0.2418161,-0.6096179 0.2459781,-0.614075 0.2493728,-0.6191333 0.2519097,-0.6246791 0.2534982,-0.6305986 0.2540478,-0.636778 0.2537603,-0.6413557 0.252924,-0.6457427 0.2515781,-0.6499111 0.2497616,-0.653833 0.2475137,-0.6574804 0.2448735,-0.6608254 0.2418802,-0.6638401 0.2385729,-0.6664966 0.2349907,-0.6687669 0.2311727,-0.6706232 0.2271582,-0.6720374 0.2229861,-0.6729818 0.2186957,-0.6734282 0.2143262,-0.6733489 0.2099165,-0.6727159 0.2055059,-0.6715013 0.1999974,-0.6691296 0.1951332,-0.6660271 0.190867,-0.6621539 0.1871522,-0.6574703 0.1851731,-0.6542046 0.1835436,-0.65085 0.1822679,-0.6474241 0.1813502,-0.6439441 0.1807945,-0.6404277 0.180605,-0.6368921 0.1807859,-0.6333549 0.1813413,-0.6298334 0.18233,-0.6260474 0.18366,-0.6224584 0.1853092,-0.6190811 0.1872551,-0.6159297 0.1894755,-0.6130187 0.1919481,-0.6103626 0.1946504,-0.6079757 0.1975603,-0.6058725 0.2006553,-0.6040675 0.2039133,-0.602575 0.2073117,-0.6014095 0.2108284,-0.6005854 0.2144411,-0.6001171 0.2181273,-0.6000191 0.2218648,-0.6003059 0.2256312,-0.6009917z"
     transform="matrix(1,0,0,-1,0.815,3.1996704)"
     stroke="rgb(100,100,100)"
     stroke-width="0.0010cm"
     stroke-linecap="round"
     stroke-linejoin="round"
     fill="none"
     id="path11"
     style="stroke-width:0.00529167;stroke-dasharray:none" /><path
     d="M0.2016084,-0.6367781 L0.2016084,-0.6608719 0.2058603,-0.6608719 0.2101121,-0.6608719 0.2101121,-0.650951 0.2101121,-0.64103 0.2132301,-0.64103 0.2155852,-0.6412902 0.2165847,-0.6418036 0.2176148,-0.6427396 0.2202158,-0.6463814 0.2242849,-0.6532186 0.2286785,-0.6608719 0.233639,-0.6608719 0.237005,-0.6607213 0.2382451,-0.660305 0.2311499,-0.6486833 0.2261274,-0.6411009 0.2252239,-0.6397633 0.2252106,-0.639357 0.2254896,-0.6391167 0.2275413,-0.6380017 0.2297857,-0.6362024 0.2317777,-0.6341241 0.233072,-0.632172 0.2342568,-0.629178 0.2347374,-0.6263966 0.234527,-0.6237215 0.233639,-0.6210464 0.232444,-0.6187775 0.2309616,-0.6169396 0.2290774,-0.615492 0.2266766,-0.614394 0.2236446,-0.613605 0.219867,-0.6130842 0.209616,-0.6126844 0.2016084,-0.6126844 0.2016084,-0.6367783z"
     transform="matrix(1,0,0,-1,0.815,3.1996704)"
     stroke="rgb(100,100,100)"
     stroke-width="0.0010cm"
     stroke-linecap="round"
     stroke-linejoin="round"
     fill="none"
     id="path12"
     style="stroke-width:0.00529167;stroke-dasharray:none" /><path
     d="M0.2240015,-0.6214006 L0.2253457,-0.6237734 0.2257731,-0.6265117 0.225297,-0.6292632 0.2239306,-0.6316759 0.2220793,-0.6332083 0.2194307,-0.6343687 0.2161976,-0.6351039 0.2125924,-0.6353608 0.2101121,-0.6353608 0.2101121,-0.6271406 0.2101121,-0.6189204 0.2162064,-0.619133 0.2215921,-0.6196822 0.2228832,-0.6203089 0.2240015,-0.6214006z"
     transform="matrix(1,0,0,-1,0.815,3.1996704)"
     stroke="rgb(100,100,100)"
     stroke-width="0.0010cm"
     stroke-linecap="round"
     stroke-linejoin="round"
     fill="none"
     id="path13"
     style="stroke-width:0.00529167;stroke-dasharray:none" /><path
     d="M-0.0847526,-0.4298368 L-0.0903154,-0.4277465 -0.0964363,-0.4266545 -0.1031286,-0.4265557 -0.1104054,-0.427445 -0.1153604,-0.4285113 -0.12015,-0.4298991 -0.1247681,-0.4316028 -0.1292086,-0.4336169 -0.1334657,-0.4359358 -0.1375332,-0.4385539 -0.1414052,-0.4414655 -0.1450755,-0.4446651 -0.1485383,-0.448147 -0.1517874,-0.4519056 -0.1548168,-0.4559354 -0.1576206,-0.4602308 -0.1601927,-0.464786 -0.1625271,-0.4695956 -0.1646178,-0.4746539 -0.1664586,-0.4799552 -0.1688027,-0.4886578 -0.1705688,-0.4979027 -0.1717502,-0.5075079 -0.1723404,-0.5172917 -0.1723326,-0.5270722 -0.1717203,-0.5366674 -0.1704968,-0.5458957 -0.1686554,-0.554575 -0.1667332,-0.5604589 -0.1639607,-0.5665155 -0.1606832,-0.5720938 -0.1572463,-0.5765428 -0.1545864,-0.5791592 -0.1518452,-0.5813837 -0.1489876,-0.5832294 -0.1459789,-0.5847098 -0.1427843,-0.5858381 -0.1393687,-0.5866276 -0.1356973,-0.5870915 -0.1317353,-0.5872432 -0.126654,-0.5870524 -0.1216514,-0.5864607 -0.1167433,-0.5854791 -0.1119454,-0.5841186 -0.1072733,-0.5823902 -0.1027427,-0.5803049 -0.0983692,-0.5778738 -0.0941686,-0.5751078 -0.0901564,-0.5720179 -0.0863485,-0.5686151 -0.0827604,-0.5649105 -0.0794079,-0.560915 -0.0763065,-0.5566397 -0.0734721,-0.5520955 -0.0709201,-0.5472935 -0.0686665,-0.5422446 -0.0649151,-0.5316715 -0.0623596,-0.5211714 -0.0608138,-0.509728 -0.0600919,-0.4963248 -0.0601628,-0.4810547 -0.0606051,-0.4745893 -0.0613498,-0.4687144 -0.0624199,-0.4632879 -0.0638389,-0.4581679 -0.0656298,-0.4532123 -0.0678161,-0.4482791 -0.0712796,-0.4421463 -0.075248,-0.4370317 -0.0797345,-0.4329301 -0.0847526,-0.4298368z"
     transform="matrix(1,0,0,-1,0.815,3.1996704)"
     stroke="rgb(100,100,100)"
     stroke-width="0.0010cm"
     stroke-linecap="round"
     stroke-linejoin="round"
     fill="none"
     id="path14"
     style="stroke-width:0.0079375;stroke-dasharray:none" /><path
     d="M-0.1220303,-0.4595841 L-0.1197565,-0.4581488 -0.1172791,-0.4571371 -0.11447,-0.4564185 -0.1120795,-0.4561715 -0.1099148,-0.4563897 -0.1077834,-0.4570662 -0.106067,-0.4580697 -0.1045757,-0.4595664 -0.1032953,-0.4615979 -0.1022117,-0.4642058 -0.1013108,-0.4674315 -0.1005785,-0.4713165 -0.0995631,-0.4812308 -0.098963,-0.4977443 -0.0991202,-0.5147495 -0.0999418,-0.5295224 -0.1005727,-0.5352206 -0.1013347,-0.5393393 -0.1023918,-0.5428676 -0.1036522,-0.5460149 -0.1051203,-0.5487851 -0.1068001,-0.5511824 -0.1086959,-0.553211 -0.1108117,-0.5548751 -0.1131517,-0.5561787 -0.1157201,-0.5571261 -0.1192228,-0.5578175 -0.1222562,-0.5576875 -0.1248495,-0.5566989 -0.1270318,-0.5548142 -0.128832,-0.5519961 -0.1302793,-0.5482072 -0.1314028,-0.5434102 -0.1322314,-0.5375677 -0.1327828,-0.5244977 -0.1327098,-0.5057143 -0.1321318,-0.4876219 -0.1316908,-0.4808361 -0.1311685,-0.4766247 -0.1302025,-0.4728227 -0.1290082,-0.4693943 -0.1275897,-0.466348 -0.1259511,-0.463692 -0.1240966,-0.4614346 -0.1220303,-0.4595841z"
     transform="matrix(1,0,0,-1,0.815,3.1996704)"
     stroke="rgb(100,100,100)"
     stroke-width="0.0010cm"
     stroke-linecap="round"
     stroke-linejoin="round"
     fill="none"
     id="path15"
     style="stroke-width:0.0079375;stroke-dasharray:none" /><path
     d="M-0.2326111,-0.5981137 L-0.2323697,-0.6086292 -0.2320088,-0.6119764 -0.2139119,-0.6072728 -0.1965059,-0.6021972 -0.1960453,-0.5844281 -0.1957972,-0.5425297 -0.1955847,-0.4835001 -0.1822622,-0.4799569 -0.1690107,-0.4764137 -0.1690107,-0.4605401 -0.1691878,-0.4471734 -0.1695488,-0.4451837 -0.169838,-0.4448652 -0.1702153,-0.4448083 -0.2171982,-0.4573513 -0.2629055,-0.4698942 -0.2631181,-0.485626 -0.2630561,-0.4987358 -0.2627494,-0.5009127 -0.2621969,-0.5014287 -0.2504866,-0.4984701 -0.233993,-0.4939171 -0.2336157,-0.4940436 -0.2333264,-0.4950753 -0.2329654,-0.5021727 -0.2327883,-0.5527342 -0.2326111,-0.5981137z"
     transform="matrix(1,0,0,-1,0.815,3.1996704)"
     stroke="rgb(100,100,100)"
     stroke-width="0.0010cm"
     stroke-linecap="round"
     stroke-linejoin="round"
     fill="none"
     id="path16"
     style="stroke-width:0.0079375;stroke-dasharray:none" /><path
     d="M0.0760764,-0.3954633 L0.0722813,-0.4023608 0.0700003,-0.4078494 0.0685432,-0.4133181 0.0678567,-0.4190128 0.0678877,-0.4251791 0.0685461,-0.4314526 0.0697933,-0.4370078 0.0716533,-0.4418771 0.0741503,-0.4460928 0.0773083,-0.4496873 0.0811515,-0.4526931 0.0857038,-0.4551425 0.0909894,-0.4570678 0.0967914,-0.4582637 0.1055165,-0.459619 0.1178358,-0.461726 0.1222059,-0.4629187 0.1255711,-0.4643048 0.1280727,-0.46596 0.1298517,-0.4679599 0.1310495,-0.4703799 0.1318071,-0.4732957 0.1319633,-0.4766939 0.1311428,-0.4800189 0.1293258,-0.4833307 0.1264923,-0.486689 0.1242723,-0.4887474 0.1223379,-0.4901879 0.120284,-0.4912431 0.1177052,-0.4921455 0.1140889,-0.4931332 0.1111503,-0.4935628 0.1084774,-0.4934609 0.1056583,-0.4928542 0.1026876,-0.4914081 0.0994843,-0.4888326 0.0964803,-0.4855397 0.0941075,-0.4819411 0.0924865,-0.4792571 0.0913438,-0.478327 0.0759663,-0.4886732 0.0612975,-0.4987359 0.064132,-0.5041924 0.0660076,-0.5074433 0.0681215,-0.5104417 0.0704662,-0.513181 0.0730343,-0.5156546 0.0758184,-0.5178558 0.0788108,-0.519778 0.0820042,-0.5214145 0.0853912,-0.5227587 0.0881496,-0.5235261 0.0913947,-0.5240742 0.0988199,-0.5245126 0.1066171,-0.5240742 0.1137367,-0.5227587 0.1186606,-0.5212506 0.1234546,-0.5193962 0.1281002,-0.5172148 0.1325788,-0.5147256 0.1368717,-0.5119479 0.1409605,-0.5089008 0.1448265,-0.5056035 0.1484512,-0.5020753 0.1518159,-0.4983353 0.1549022,-0.4944028 0.1576913,-0.4902968 0.1601648,-0.4860368 0.162304,-0.4816418 0.1640904,-0.477131 0.1655054,-0.4725238 0.1665304,-0.4678392 0.1673837,-0.4608926 0.1674439,-0.4545588 0.1667086,-0.448833 0.1651752,-0.44371 0.1628412,-0.439185 0.1597043,-0.4352528 0.1557617,-0.4319086 0.1510112,-0.4291474 0.1466487,-0.4273592 0.1416217,-0.4258965 0.1351067,-0.4245534 0.1262796,-0.423124 0.1174958,-0.4216646 0.1115488,-0.4203248 0.1076347,-0.4188788 0.1049496,-0.4171005 0.1036412,-0.4156781 0.1027307,-0.4140916 0.1021954,-0.4123764 0.1020132,-0.4105678 0.1021614,-0.408701 0.1026177,-0.4068114 0.104365,-0.4031049 0.1070755,-0.3997305 0.11057,-0.3969707 0.114669,-0.3951078 0.1168892,-0.3946009 0.1191933,-0.394424 0.1211001,-0.3945813 0.1229812,-0.3950441 0.1265897,-0.3968334 0.129866,-0.3996857 0.1326574,-0.4034946 0.1341455,-0.405532 0.1347501,-0.405966 0.1352085,-0.4059749 0.1633415,-0.3868416 0.1628809,-0.3852826 0.1613573,-0.3820228 0.1587143,-0.3779459 0.155201,-0.3739621 0.1512227,-0.3704831 0.1471845,-0.3679209 0.1441687,-0.3666131 0.1408489,-0.3655636 0.1335432,-0.3642626 0.1257592,-0.3640644 0.1218415,-0.3643934 0.1179885,-0.3650155 0.1109846,-0.3669602 0.1041701,-0.3698243 0.0976346,-0.373537 0.0914677,-0.3780279 0.0857593,-0.3832263 0.080599,-0.3890616 0.0760764,-0.3954633z"
     transform="matrix(1,0,0,-1,0.815,3.1996704)"
     stroke="rgb(100,100,100)"
     stroke-width="0.0010cm"
     stroke-linecap="round"
     stroke-linejoin="round"
     fill="none"
     id="path17"
     style="stroke-width:0.0079375;stroke-dasharray:none" /><path
     d="M0.0269482,-0.3899362 L0.0310384,-0.3884979 0.0492504,-0.3833691 0.0726356,-0.3770622 0.0727773,-0.333481 0.0729899,-0.2898997 0.1681603,-0.2896871 0.2632597,-0.2895454 0.2632597,-0.2211616 0.2632597,-0.1527778 0.0000001,-0.1527778 -0.2632595,-0.1527778 -0.2632595,-0.2211616 -0.2632597,-0.2895453 -0.1666722,-0.289687 -0.0701554,-0.2898996 -0.0699428,-0.3527559 -0.0697479,-0.3972142 -0.0694467,-0.4156831 -0.040605,-0.4078881 -0.019213,-0.402219 -0.013689,-0.4009722 -0.0116926,-0.4008017 -0.0036141,-0.4392807 0.0037646,-0.4752885 0.0051254,-0.4810849 0.0056691,-0.4822242 0.01559,-0.4369422 0.0255818,-0.3908098 0.0269482,-0.3899362z"
     transform="matrix(1,0,0,-1,0.815,3.1996704)"
     stroke="rgb(100,100,100)"
     stroke-width="0.0010cm"
     stroke-linecap="round"
     stroke-linejoin="round"
     fill="none"
     id="path18"
     style="stroke-width:0.0079375;stroke-dasharray:none" /><path
     d="M0.0718081,-0.5330743 L0.0714308,-0.5328903 0.0407467,-0.5411105 0.0404444,-0.5372806 0.0401886,-0.5260962 0.0398963,-0.483498 0.0395951,-0.4433891 0.039398,-0.4315791 0.0392937,-0.4285434 0.0391877,-0.4277282 0.0258652,-0.4879627 0.0124719,-0.5478427 0.0116448,-0.5486797 0.0096285,-0.5495966 0.0003542,-0.5523071 -0.0112675,-0.5551416 -0.0233144,-0.500718 -0.0357864,-0.4447354 -0.0359156,-0.4455548 -0.0360356,-0.4486196 -0.0362382,-0.4606621 -0.0364242,-0.5026313 -0.0364951,-0.5622988 -0.039117,-0.5630074 -0.0556284,-0.5675427 -0.0694468,-0.5713694 -0.0696594,-0.6257221 -0.0698011,-0.6800039 0.0014172,-0.6800039 0.0726355,-0.6800039 0.0726355,-0.6062345 0.0724583,-0.5432276 0.0720974,-0.5343751 0.0718081,-0.5330743z"
     transform="matrix(1,0,0,-1,0.815,3.1996704)"
     stroke="rgb(100,100,100)"
     stroke-width="0.0010cm"
     stroke-linecap="round"
     stroke-linejoin="round"
     fill="none"
     id="path19"
     style="stroke-width:0.0079375;stroke-dasharray:none" /><path
     d="M0.2071712,-0.6789333 L0.2119856,-0.6797516 0.2171985,-0.6800051 0.2241472,-0.6794745 0.230708,-0.6779656 0.2368188,-0.6755232 0.2424172,-0.6721924 0.247441,-0.6680177 0.2518277,-0.6630442 0.2555153,-0.6573167 0.2584414,-0.65088 0.2592939,-0.6481982 0.2597878,-0.6454766 0.2600712,-0.6367781 0.2598764,-0.6298234 0.2590969,-0.6245629 0.2574404,-0.6198471 0.2546147,-0.6145268 0.2523336,-0.6110816 0.2496664,-0.607839 0.2466587,-0.6048356 0.2433562,-0.6021079 0.2398046,-0.5996925 0.2360495,-0.5976258 0.2321366,-0.5959444 0.2281116,-0.5946849 0.2233128,-0.5939154 0.2174643,-0.5936308 0.2115892,-0.5938379 0.2067106,-0.5945432 0.2024765,-0.5960047 0.1974983,-0.5981572 0.1922278,-0.6014357 0.1870105,-0.6058902 0.1824309,-0.6109426 0.1790737,-0.6160149 0.176848,-0.6210263 0.1752725,-0.6262769 0.1743464,-0.6316803 0.1740689,-0.6371501 0.1744392,-0.6426 0.1754563,-0.6479436 0.1771195,-0.6530945 0.179428,-0.6579664 0.1828871,-0.6630598 0.1873293,-0.6679405 0.1923031,-0.6721569 0.1973566,-0.6752572 0.2024101,-0.677464 0.2071712,-0.6789333z"
     transform="matrix(1,0,0,-1,0.815,3.1996704)"
     stroke="rgb(100,100,100)"
     stroke-width="0.0010cm"
     stroke-linecap="round"
     stroke-linejoin="round"
     fill="none"
     id="path20"
     style="stroke-width:0.00529167;stroke-dasharray:none" /><path
     d="M0.190867,-0.6621539 L0.1871522,-0.6574703 0.1851731,-0.6542046 0.1835436,-0.65085 0.1822679,-0.6474241 0.1813502,-0.6439441 0.1807945,-0.6404277 0.180605,-0.6368921 0.1807859,-0.6333549 0.1813413,-0.6298334 0.18233,-0.6260474 0.18366,-0.6224584 0.1853092,-0.6190811 0.1872551,-0.6159297 0.1894755,-0.6130187 0.1919481,-0.6103626 0.1946504,-0.6079757 0.1975603,-0.6058725 0.2006553,-0.6040675 0.2039133,-0.602575 0.2073117,-0.6014095 0.2108284,-0.6005854 0.2144411,-0.6001171 0.2181273,-0.6000191 0.2218648,-0.6003059 0.2256312,-0.6009917 0.2315522,-0.6029625 0.2369773,-0.6058758 0.2418161,-0.6096179 0.2459781,-0.614075 0.2493728,-0.6191333 0.2519097,-0.6246791 0.2534982,-0.6305986 0.2540478,-0.636778 0.2537603,-0.6413557 0.252924,-0.6457427 0.2515781,-0.6499111 0.2497616,-0.653833 0.2475137,-0.6574804 0.2448735,-0.6608254 0.2418802,-0.6638401 0.2385729,-0.6664966 0.2349907,-0.6687669 0.2311727,-0.6706232 0.2271582,-0.6720374 0.2229861,-0.6729818 0.2186957,-0.6734282 0.2143262,-0.6733489 0.2099165,-0.6727159 0.2055059,-0.6715013 0.1999974,-0.6691296 0.1951332,-0.6660271 0.190867,-0.6621539z"
     transform="matrix(1,0,0,-1,0.815,3.1996704)"
     stroke="rgb(100,100,100)"
     stroke-width="0.0010cm"
     stroke-linecap="round"
     stroke-linejoin="round"
     fill="none"
     id="path21"
     style="stroke-width:0.00529167;stroke-dasharray:none" /><path
     d="M0.233639,-0.6608719 L0.237005,-0.6607213 0.2382451,-0.660305 0.2311499,-0.6486833 0.2261274,-0.6411009 0.2252239,-0.6397633 0.2252106,-0.639357 0.2254896,-0.6391167 0.2275413,-0.6380017 0.2297857,-0.6362024 0.2317777,-0.6341241 0.233072,-0.632172 0.2342568,-0.629178 0.2347374,-0.6263966 0.234527,-0.6237215 0.233639,-0.6210464 0.232444,-0.6187775 0.2309616,-0.6169396 0.2290774,-0.615492 0.2266766,-0.614394 0.2236446,-0.613605 0.219867,-0.6130842 0.209616,-0.6126844 0.2016084,-0.6126844 0.2016084,-0.6367783 0.2016084,-0.6608719 0.2058603,-0.6608719 0.2101121,-0.6608719 0.2101121,-0.650951 0.2101121,-0.64103 0.2132301,-0.64103 0.2155852,-0.6412902 0.2165847,-0.6418036 0.2176148,-0.6427396 0.2202158,-0.6463814 0.2242849,-0.6532186 0.2286785,-0.6608719 0.233639,-0.6608719z"
     transform="matrix(1,0,0,-1,0.815,3.1996704)"
     stroke="rgb(100,100,100)"
     stroke-width="0.0010cm"
     stroke-linecap="round"
     stroke-linejoin="round"
     fill="none"
     id="path22"
     style="stroke-width:0.00529167;stroke-dasharray:none" /><path
     d="M0.2630741,-0.3318316 L0.262764,-0.3271723 0.214364,-0.3404947 0.1665308,-0.3536755 0.1663182,-0.3694073 0.1663713,-0.382836 0.1667168,-0.3848135 0.1673812,-0.3852099 0.1828295,-0.3813124 0.198207,-0.3774149 0.1986079,-0.3776697 0.1989167,-0.3788156 0.1993142,-0.3860692 0.1996243,-0.4364446 0.1998368,-0.4954742 0.2161356,-0.4910807 0.2340641,-0.4861911 0.2356231,-0.4858367 0.2356231,-0.4266653 0.2358092,-0.3797002 0.2360716,-0.3700627 0.2364735,-0.3670687 0.2501503,-0.3628877 0.2629058,-0.3593445 0.2631184,-0.3431876 0.2630741,-0.3318316z"
     transform="matrix(1,0,0,-1,0.815,3.1996704)"
     stroke="rgb(100,100,100)"
     stroke-width="0.0010cm"
     stroke-linecap="round"
     stroke-linejoin="round"
     fill="none"
     id="path23"
     style="stroke-width:0.0079375;stroke-dasharray:none" /><path
     d="M0.2101121,-0.6353608 L0.2101121,-0.6271406 0.2101121,-0.6189204 0.2162064,-0.619133 0.2215921,-0.6196822 0.2228832,-0.6203089 0.2240015,-0.6214006 0.2253457,-0.6237734 0.2257731,-0.6265117 0.225297,-0.6292632 0.2239306,-0.6316759 0.2220793,-0.6332083 0.2194307,-0.6343687 0.2161976,-0.6351039 0.2125924,-0.6353608 0.2101121,-0.6353608z"
     transform="matrix(1,0,0,-1,0.815,3.1996704)"
     stroke="rgb(100,100,100)"
     stroke-width="0.0010cm"
     stroke-linecap="round"
     stroke-linejoin="round"
     fill="none"
     id="path24"
     style="stroke-width:0.00529167;stroke-dasharray:none" /><path
     d="M-0.2640841,-0.7970232 A0.3109647,0.3109647 148.0904574 0,1 -0.3110759,-0.9615619 L-0.31,-2.9408895 A0.31,0.31 180.0311469 0,1 0.3099142,-2.9480162 L0.3108534,-0.9615399 A0.3109647,0.3109647 359.9729101 0,1 0.2639159,-0.7971104"
     transform="matrix(1,0,0,-1,0.815,3.1996704)"
     stroke="rgb(100,100,100)"
     stroke-width="0.0010cm"
     stroke-linecap="round"
     stroke-linejoin="round"
     fill="none"
     id="path25"
     style="stroke-width:0.01322917;stroke-dasharray:none" /><path
     d="M-0.1498178,-0.8273228 A0.2009647,0.2009647 138.1538947 0,1 -0.201076,-0.9615021 L-0.2,-2.9408297 A0.2,0.2 180.0311469 0,1 0.1999148,-2.9465572 L0.2008534,-0.9614879 A0.2009647,0.2009647 359.9729101 0,1 0.1496395,-0.8273723"
     transform="matrix(1,0,0,-1,0.815,3.1996704)"
     stroke="rgb(100,100,100)"
     stroke-width="0.0010cm"
     stroke-linecap="round"
     stroke-linejoin="round"
     fill="none"
     id="path26"
     style="stroke-width:0.01322917;stroke-dasharray:none" /><path
     d="M-0.0675821,-1.8910159 a0.0675,0.0675 0 1,1 0.135,0 a0.0675,0.0675 0 1,1 -0.135,0z"
     transform="matrix(1,0,0,-1,0.815,3.1996704)"
     stroke="rgb(100,100,100)"
     stroke-width="0.0010cm"
     stroke-linecap="round"
     stroke-linejoin="round"
     fill="none"
     id="path27"
     style="stroke-width:0.01322917;stroke-dasharray:none" /><path
     d="M-0.23,2.4784894 L-0.23,2.7661424 -0.2041858,2.7661424 -0.1794187,2.7899999 -0.025,2.7899999"
     transform="matrix(1,0,0,-1,0.815,3.1996704)"
     stroke="rgb(100,100,100)"
     stroke-width="0.0010cm"
     stroke-linecap="round"
     stroke-linejoin="round"
     fill="none"
     id="path28"
     style="stroke-width:0.01322917;stroke-dasharray:none" /><path
     d="M0.025,2.7899999 L0.1794187,2.7899999 0.2041858,2.7661424 0.23,2.7661424 0.23,2.4784894"
     transform="matrix(1,0,0,-1,0.815,3.1996704)"
     stroke="rgb(100,100,100)"
     stroke-width="0.0010cm"
     stroke-linecap="round"
     stroke-linejoin="round"
     fill="none"
     id="path29"
     style="stroke-width:0.01322917;stroke-dasharray:none" /><path
     d="M-0.23,2.7661424 L-0.2322502,2.9388241 -0.025,2.9388241 -0.025,2.4784493 0,2.4784493 0.025,2.4784493 0.025,2.9388241 0.2322502,2.9388241 0.23,2.7661424"
     transform="matrix(1,0,0,-1,0.815,3.1996704)"
     stroke="rgb(100,100,100)"
     stroke-width="0.0010cm"
     stroke-linecap="round"
     stroke-linejoin="round"
     fill="none"
     id="path30"
     style="stroke-width:0.01322917;stroke-dasharray:none" /><path
     d="M-0.23,2.7256011 L-0.025,2.7256011"
     transform="matrix(1,0,0,-1,0.815,3.1996704)"
     stroke="rgb(100,100,100)"
     stroke-width="0.0010cm"
     stroke-linecap="round"
     stroke-linejoin="round"
     fill="none"
     id="path31"
     style="stroke-width:0.01322917;stroke-dasharray:none" /><path
     d="M0.025,2.7256011 L0.23,2.7256011"
     transform="matrix(1,0,0,-1,0.815,3.1996704)"
     stroke="rgb(100,100,100)"
     stroke-width="0.0010cm"
     stroke-linecap="round"
     stroke-linejoin="round"
     fill="none"
     id="path32"
     style="stroke-width:0.01322917;stroke-dasharray:none" /><path
     d="M-0.2041858,2.7661424 L-0.025,2.7661424"
     transform="matrix(1,0,0,-1,0.815,3.1996704)"
     stroke="rgb(100,100,100)"
     stroke-width="0.0010cm"
     stroke-linecap="round"
     stroke-linejoin="round"
     fill="none"
     id="path33"
     style="stroke-width:0.01322917;stroke-dasharray:none" /><path
     d="M0.025,2.7661424 L0.2041858,2.7661424"
     transform="matrix(1,0,0,-1,0.815,3.1996704)"
     stroke="rgb(100,100,100)"
     stroke-width="0.0010cm"
     stroke-linecap="round"
     stroke-linejoin="round"
     fill="none"
     id="path34"
     style="stroke-width:0.01322917;stroke-dasharray:none" /></svg>
